<?xml version="1.0" encoding="UTF-8" standalone="no"?>
<!-- Generator: Adobe Illustrator 17.0.1, SVG Export Plug-In . SVG Version: 6.00 Build 0)  -->

<svg
   xmlns:dc="http://purl.org/dc/elements/1.1/"
   xmlns:cc="http://creativecommons.org/ns#"
   xmlns:rdf="http://www.w3.org/1999/02/22-rdf-syntax-ns#"
   xmlns:svg="http://www.w3.org/2000/svg"
   xmlns="http://www.w3.org/2000/svg"
   xmlns:sodipodi="http://sodipodi.sourceforge.net/DTD/sodipodi-0.dtd"
   xmlns:inkscape="http://www.inkscape.org/namespaces/inkscape"
   version="1.1"
   x="0px"
   y="0px"
   width="86px"
   height="86px"
   viewBox="0 0 86 86"
   enable-background="new 0 0 86 86"
   xml:space="preserve"
   id="svg44"
   sodipodi:docname="harbour-advanced-camera.svg"
   inkscape:version="0.92.3 (2405546, 2018-03-11)"
   inkscape:export-filename="/home/piggz/projects/harbour-advanced-camera/icons/172x172/harbour-advanced-camera.png"
   inkscape:export-xdpi="192"
   inkscape:export-ydpi="192"><metadata
   id="metadata50"><rdf:RDF><cc:Work
       rdf:about=""><dc:format>image/svg+xml</dc:format><dc:type
         rdf:resource="http://purl.org/dc/dcmitype/StillImage" /><dc:title></dc:title></cc:Work></rdf:RDF></metadata><defs
   id="defs48">
	
		<linearGradient
   gradientTransform="translate(-671.1376)"
   y2="0.71689999"
   x2="756.42072"
   y1="85.283096"
   x1="671.85449"
   gradientUnits="userSpaceOnUse"
   id="SVGID_1_">
		<stop
   id="stop3"
   style="stop-color:#F7D6B3"
   offset="0" />
		<stop
   id="stop5"
   style="stop-color:#777F81"
   offset="0.5" />
		<stop
   id="stop7"
   style="stop-color:#F6FFE4"
   offset="0.9951" />
	</linearGradient>
	
	
	
	
	
	
	
</defs><sodipodi:namedview
   pagecolor="#ffffff"
   bordercolor="#666666"
   borderopacity="1"
   objecttolerance="10"
   gridtolerance="10"
   guidetolerance="10"
   inkscape:pageopacity="0"
   inkscape:pageshadow="2"
   inkscape:window-width="1876"
   inkscape:window-height="1055"
   id="namedview46"
   showgrid="false"
   inkscape:zoom="5.4883721"
   inkscape:cx="78.062351"
   inkscape:cy="35.894068"
   inkscape:window-x="44"
   inkscape:window-y="0"
   inkscape:window-maximized="1"
   inkscape:current-layer="svg44" />
<g
   id="Layer_2"
   display="none">
</g>
<path
   style="fill:url(#SVGID_1_)"
   inkscape:connector-curvature="0"
   id="path10"
   d="M 84.277,0.3 H 43 C 19.417,0.3 0.3,19.418 0.3,43 v 41.277 c 0,0.786 0.637,1.423 1.423,1.423 H 43 C 66.583,85.7 85.7,66.582 85.7,43 V 1.723 C 85.7,0.937 85.063,0.3 84.277,0.3 Z" />
<g
   id="g1238"
   transform="matrix(0.66113903,0,0,0.66113903,-69.636362,4.4125412)"><path
     style="color:#000000;display:inline;overflow:visible;visibility:visible;fill:#1a1a1a;fill-opacity:1;fill-rule:nonzero;stroke:none;stroke-width:1.14052284;marker:none;enable-background:accumulate"
     d="m 177.59842,20.290397 c -11.29866,0 -11.01087,12.017371 -20.95176,12.267907 h -7.46811 -1.35784 -3.67879 -15.10989 -2.58937 -0.17368 c -4.19856,0 -7.57863,3.380071 -7.57863,7.578632 v 48.724277 c 0,4.198561 3.38007,7.57863 7.57863,7.57863 h 88.19631 c 4.19856,0 7.57863,-3.380069 7.57863,-7.57863 V 40.136936 c 0,-4.198561 -3.38007,-7.578632 -7.57863,-7.578632 h -8.6049 c -9.94089,-0.250536 -9.6531,-12.267907 -20.95175,-12.267907 z m -44.98233,7.799677 c -1.98326,0 -3.58406,1.528396 -3.58406,3.441956 h 15.10989 c 0,-1.91356 -1.58502,-3.441956 -3.56827,-3.441956 z"
     id="path3829"
     inkscape:connector-curvature="0" /><circle
     r="23.221905"
     cy="64.889488"
     cx="181.25145"
     style="color:#000000;display:inline;overflow:visible;visibility:visible;fill:none;stroke:#ffffff;stroke-width:2.52621007;stroke-linecap:round;stroke-linejoin:round;stroke-miterlimit:4;stroke-dasharray:none;stroke-opacity:1;marker:none;enable-background:accumulate"
     id="path3772" /><rect
     style="color:#000000;display:inline;overflow:visible;visibility:visible;fill:#ffffff;fill-opacity:1;fill-rule:nonzero;stroke:none;stroke-width:0.25232804;marker:none;enable-background:accumulate"
     id="rect3797"
     width="13.047815"
     height="7.2727938"
     x="174.72961"
     y="22.787964"
     ry="3.6363969" /><g
     transform="matrix(1.4271644,0,0,1.4271644,-140.36254,-124.94303)"
     id="g1183"><g
       id="g4180"
       transform="matrix(0.01979319,0,0,0.01979319,209.10611,116.90919)"><linearGradient
         y2="1495.5353"
         x2="302.40109"
         y1="1199.5353"
         x1="1174.4011"
         gradientUnits="userSpaceOnUse"
         id="SVGID_1_-4"><stop
           id="stop4183"
           style="stop-color:#8FD9FF"
           offset="0" /><stop
           id="stop4185"
           style="stop-color:#005A97"
           offset="1" /></linearGradient><path
         inkscape:connector-curvature="0"
         id="path4187"
         d="m 1129.3434,1185.5632 c 12.699,-133.3132 10.5593,-258.618 8.2264,-320.4229 l -143.7966,249.063 0.2117,0.3142 c -0.0488,0.033 -0.2675,0.1794 -0.64,0.4279 l -0.493,0.8541 h -0.7924 c -17.7061,11.7334 -154.6073,101.3115 -316.7206,175.4233 -101.9248,46.5959 -193.8532,78.1162 -273.2319,93.6855 -51.2694,10.0562 -97.4708,13.4342 -138.3306,10.1848 144.3976,142.1157 342.5172,229.8083 561.1252,229.8083 60.0491,0 118.5476,-6.6301 174.8169,-19.1731 29.5822,-34.9309 54.8085,-82.5996 75.3447,-142.5306 25.5804,-74.6484 43.8428,-168.0581 54.2802,-277.6345 z"
         style="fill:url(#SVGID_1_-4)" /><linearGradient
         y2="167.58321"
         x2="1354.4402"
         y1="445.86731"
         x1="482.46069"
         gradientUnits="userSpaceOnUse"
         id="SVGID_2_"><stop
           id="stop4190"
           style="stop-color:#FFF33B"
           offset="0" /><stop
           id="stop4192"
           style="stop-color:#E93E3A"
           offset="1" /></linearGradient><path
         inkscape:connector-curvature="0"
         id="path4194"
         d="m 656.9514,534.0035 h 0.7925 c 17.7064,-11.7336 154.6073,-101.3115 316.7205,-175.4234 101.9248,-46.5958 193.853,-78.1162 273.2318,-93.6854 51.2694,-10.0563 97.4708,-13.4343 138.3307,-10.1849 C 1241.6292,112.5942 1043.5096,24.9016 824.9016,24.9016 c -60.0491,0 -118.5476,6.6301 -174.817,19.173 -29.582,34.9311 -54.8083,82.5997 -75.3447,142.5306 -25.5801,74.6484 -43.8427,168.0583 -54.2801,277.6346 -12.699,133.3133 -10.5593,258.618 -8.2264,320.423 l 143.7965,-249.063 -0.2115,-0.3142 c 0.0487,-0.0328 0.2673,-0.1794 0.6399,-0.4278 z"
         style="fill:url(#SVGID_2_)" /><linearGradient
         y2="947.80048"
         x2="1672.2721"
         y1="339.82919"
         x1="980.23291"
         gradientUnits="userSpaceOnUse"
         id="SVGID_3_"><stop
           id="stop4197"
           style="stop-color:#8CC63F"
           offset="0" /><stop
           id="stop4199"
           style="stop-color:#90C03D"
           offset="0.1085" /><stop
           id="stop4201"
           style="stop-color:#9AAE38"
           offset="0.2559" /><stop
           id="stop4203"
           style="stop-color:#AA922E"
           offset="0.4256" /><stop
           id="stop4205"
           style="stop-color:#C16A22"
           offset="0.612" /><stop
           id="stop4207"
           style="stop-color:#DF3812"
           offset="0.8095" /><stop
           id="stop4209"
           style="stop-color:#FF0000"
           offset="1" /></linearGradient><path
         inkscape:connector-curvature="0"
         id="path4211"
         d="m 1252.6016,289.107 c -77.4375,15.1711 -167.4641,46.0602 -267.5786,91.8093 -121.8022,55.659 -229.2493,120.1644 -281.6075,153.0872 h 287.593 l 0.1664,-0.3403 c 0.0529,0.0258 0.2892,0.1418 0.6906,0.3403 h 0.9865 l 0.396,0.6862 c 19.0148,9.4673 165.042,83.2381 310.2813,186.5763 91.3157,64.9715 164.5774,128.8236 217.75,189.783 34.4314,39.4731 60.5011,77.8907 78.1187,114.9888 16.6426,-64.2667 25.5039,-131.6661 25.5039,-201.1362 0,-209.0386 -80.1853,-399.3416 -211.4622,-541.8556 -44.9883,-8.097 -98.7913,-6.0954 -160.8381,6.061 z"
         style="fill:url(#SVGID_3_)" /><linearGradient
         y2="1614.0498"
         x2="1162.2429"
         y1="706.04993"
         x1="1322.2429"
         gradientUnits="userSpaceOnUse"
         id="SVGID_4_"><stop
           id="stop4214"
           style="stop-color:#FF49C1"
           offset="0" /><stop
           id="stop4216"
           style="stop-color:#F947C2"
           offset="0.0965" /><stop
           id="stop4218"
           style="stop-color:#E943C6"
           offset="0.2206" /><stop
           id="stop4220"
           style="stop-color:#CF3BCD"
           offset="0.36" /><stop
           id="stop4222"
           style="stop-color:#AA31D6"
           offset="0.5105" /><stop
           id="stop4224"
           style="stop-color:#7A23E1"
           offset="0.6699" /><stop
           id="stop4226"
           style="stop-color:#4113EF"
           offset="0.835" /><stop
           id="stop4228"
           style="stop-color:#0000FF"
           offset="1" /></linearGradient><path
         inkscape:connector-curvature="0"
         id="path4230"
         d="M 1502.7632,927.4033 C 1450.9059,867.926 1379.1419,805.4053 1289.4646,741.578 1180.3616,663.9237 1070.7747,603.1244 1016.0835,574.2423 l 143.7966,249.063 0.3779,-0.0261 c 0,0.0587 0.022,0.3212 0.051,0.7682 l 0.493,0.8542 -0.3961,0.6861 c 1.3085,21.2008 10.4347,184.5495 -6.4392,361.9997 -10.6091,111.5674 -29.2759,206.9398 -55.4819,283.4685 -16.969,49.5552 -37.2048,91.3409 -60.5239,125.1475 261.8225,-72.1638 469.8518,-274.058 550.5939,-532.208 -15.4537,-43.1067 -44.1329,-88.8135 -85.7911,-136.5921 z"
         style="fill:url(#SVGID_4_)" /><linearGradient
         y2="654.13232"
         x2="15.1366"
         y1="1300.1323"
         x1="649.13647"
         gradientUnits="userSpaceOnUse"
         id="SVGID_5_"><stop
           id="stop4233"
           style="stop-color:#C3D7FF"
           offset="0" /><stop
           id="stop4235"
           style="stop-color:#00CBA5"
           offset="1" /></linearGradient><path
         inkscape:connector-curvature="0"
         id="path4237"
         d="m 397.2016,1360.696 c 77.4375,-15.1711 167.4641,-46.0602 267.5786,-91.8092 121.8022,-55.6591 229.2494,-120.1644 281.6077,-153.0873 H 658.7948 l -0.1664,0.3403 c -0.0529,-0.026 -0.2892,-0.1418 -0.6906,-0.3403 h -0.9865 l -0.396,-0.6862 C 637.5405,1105.646 491.5133,1031.8751 346.274,928.537 254.9584,863.5655 181.6968,799.7134 128.5241,738.754 94.0926,699.281 68.0229,660.8634 50.4053,623.7652 33.7628,688.032 24.9016,755.4315 24.9016,824.9016 c 0,209.0385 80.1852,399.3416 211.4622,541.8555 44.988,8.0971 98.791,6.0954 160.8378,-6.0611 z"
         style="fill:url(#SVGID_5_)" /><linearGradient
         y2="33.954498"
         x2="467.6806"
         y1="961.95453"
         x1="327.6806"
         gradientUnits="userSpaceOnUse"
         id="SVGID_6_"><stop
           id="stop4240"
           style="stop-color:#EDE928"
           offset="0" /><stop
           id="stop4242"
           style="stop-color:#F37E31"
           offset="1" /></linearGradient><path
         inkscape:connector-curvature="0"
         id="path4244"
         d="m 147.04,722.3998 c 51.8573,59.4772 123.6213,121.998 213.2984,185.8253 109.1033,77.6542 218.6902,138.4536 273.3813,167.3357 L 489.923,826.4979 l -0.3779,0.026 c -0.004,-0.0586 -0.0217,-0.3212 -0.0505,-0.7681 l -0.4931,-0.8542 0.3961,-0.6862 c -1.3083,-21.2006 -10.4347,-184.5494 6.4392,-361.9998 10.6092,-111.5673 29.2759,-206.9397 55.482,-283.4684 16.969,-49.5551 37.2048,-91.341 60.5239,-125.1474 -261.8225,72.1639 -469.8518,274.058 -550.5938,532.2081 15.4537,43.1067 44.1329,88.8133 85.7911,136.5919 z"
         style="fill:url(#SVGID_6_)" /></g></g></g></svg>