<svg xmlns="http://www.w3.org/2000/svg" xmlns:xlink="http://www.w3.org/1999/xlink" width="72" height="72"><defs><linearGradient id="a"><stop offset="0" stop-color="#fff"/><stop offset="1" stop-color="#fff" stop-opacity="0"/></linearGradient><radialGradient xlink:href="#a" id="c" cx="83.781" cy="74.875" fx="83.781" fy="74.875" r="7.592" gradientUnits="userSpaceOnUse" gradientTransform="translate(-77.855 -66.817) scale(1.3115)"/><linearGradient gradientTransform="translate(3.057 8.185) scale(1.02948)" xlink:href="#a" id="b" x1="16.504" y1="26.029" x2="21.655" y2="55.161" gradientUnits="userSpaceOnUse"/></defs><path d="M56.697 11.163H15.303a4.14 5.229 0 0 0-4.14 5.229v39.216a4.14 5.229 0 0 0 4.14 5.229h41.394a4.14 5.229 0 0 0 4.14-5.229V16.392a4.14 5.229 0 0 0-4.14-5.229z" opacity=".5" fill="none" stroke="#fff" stroke-width="2.326"/><path style="line-height:normal;font-variant-ligatures:normal;font-variant-position:normal;font-variant-caps:normal;font-variant-numeric:normal;font-variant-alternates:normal;font-feature-settings:normal;text-indent:0;text-align:start;text-decoration-line:none;text-decoration-style:solid;text-decoration-color:#fff;text-transform:none;text-orientation:mixed;white-space:normal;shape-padding:0;isolation:auto;mix-blend-mode:normal;solid-color:#fff;solid-opacity:1" d="M59.678 38.896V56.57a3.074 3.074 0 0 1-3.088 3.089H15.41a3.074 3.074 0 0 1-3.088-3.089V38.51c17.86-1.815 38.22 1.076 47.356.386z" font-weight="400" overflow="visible" color="#fff" font-family="sans-serif" opacity=".5" fill="url(#b)"/><g color="#fff" fill-rule="evenodd" stroke-width=".695"><path d="M32.024 21.425a9.956 9.956 0 0 0-.358.013c.092.037.417 9.142.507 9.16.09.017 3.744-8.336 3.842-8.333a9.956 9.956 0 0 0-3.99-.84zm3.991.84c.07.07-3.59 8.421-3.517 8.476.074.054 6.965-5.863 7.073-5.835a9.956 9.956 0 0 0-3.556-2.641zm3.556 2.64c.01.111-6.885 6.024-6.842 6.105.042.081 8.855-2.27 8.911-2.19a9.956 9.956 0 0 0-2.07-3.914zm2.07 3.915c-.01.097-8.823 2.442-8.82 2.533.003.092 8.954 1.793 8.978 1.89a9.956 9.956 0 0 0 .182-1.862 9.956 9.956 0 0 0-.34-2.561zm.158 4.424c-.058.081-9.008-1.626-9.045-1.542-.01.025.706.576 1.622 1.273 2.767.112 5.094.222 7.403.358a9.956 9.956 0 0 0 .02-.09zM31.666 21.438a9.956 9.956 0 0 0-4.28 1.14c.097-.011 4.345 8.056 4.433 8.032.089-.023-.243-9.128-.153-9.172zm-4.28 1.14a9.956 9.956 0 0 0-3.354 2.886c.102-.038 7.403 5.372 7.472 5.313.07-.06-4.182-8.125-4.119-8.2zm-3.354 2.886h-.002a9.956 9.956 0 0 0-1.78 4.055c.057-.082 9.007 1.626 9.044 1.542.037-.084-7.269-5.489-7.262-5.597zM22.25 29.52a9.956 9.956 0 0 0-.182 1.862 9.956 9.956 0 0 0 .102 1.325c1.53.002 2.992.016 4.403.038 2.291-.634 4.656-1.287 4.655-1.334-.004-.092-8.955-1.793-8.978-1.89zm9.07 2.234c-.02-.038-2.006.468-4.078.999 1.015.018 1.961.043 2.918.069.69-.61 1.171-1.047 1.16-1.068zm1.224.233c-.013.01.233.496.449.93.336.012.63.028.96.04-.799-.573-1.39-.986-1.409-.97zm-.994.036c-.016-.013-.457.346-1.017.81.226.005.47.008.692.015.139-.343.337-.817.325-.825zm.68.13c-.013.003-.001.472 0 .733.153.005.278.013.43.018-.173-.307-.417-.754-.43-.75zm-.354.013c-.012-.002-.212.435-.333.69.139.004.246.013.384.017-.017-.244-.04-.705-.051-.707z" style="isolation:auto;mix-blend-mode:normal;solid-color:#fff;solid-opacity:1;marker:none" overflow="visible" transform="translate(-10.075 -9.656) scale(1.43874)" opacity=".755" fill="url(#c)"/><path d="M35.965 31.661a4.36 4.36 0 0 0-4.363 4.363 4.36 4.36 0 0 0 .28 1.53 335.659 335.659 0 0 1 8.044.275 4.36 4.36 0 0 0 .4-1.805 4.36 4.36 0 0 0-4.361-4.363z" style="isolation:auto;mix-blend-mode:normal;solid-color:#fff;solid-opacity:1;marker:none" overflow="visible" fill="#fff"/></g></svg>