<?xml version="1.0" encoding="UTF-8" standalone="no"?>
<svg
   xmlns:dc="http://purl.org/dc/elements/1.1/"
   xmlns:cc="http://creativecommons.org/ns#"
   xmlns:rdf="http://www.w3.org/1999/02/22-rdf-syntax-ns#"
   xmlns:svg="http://www.w3.org/2000/svg"
   xmlns="http://www.w3.org/2000/svg"
   xmlns:xlink="http://www.w3.org/1999/xlink"
   xmlns:sodipodi="http://sodipodi.sourceforge.net/DTD/sodipodi-0.dtd"
   xmlns:inkscape="http://www.inkscape.org/namespaces/inkscape"
   width="72"
   height="72"
   version="1.1"
   id="svg14982"
   sodipodi:docname="icon-m-scene_mode_theatre.svg"
   inkscape:version="0.92.4 (5da689c313, 2019-01-14)">
  <metadata
     id="metadata14986">
    <rdf:RDF>
      <cc:Work
         rdf:about="">
        <dc:format>image/svg+xml</dc:format>
        <dc:type
           rdf:resource="http://purl.org/dc/dcmitype/StillImage" />
        <dc:title></dc:title>
      </cc:Work>
    </rdf:RDF>
  </metadata>
  <sodipodi:namedview
     pagecolor="#ffffff"
     bordercolor="#666666"
     borderopacity="1"
     objecttolerance="10"
     gridtolerance="10"
     guidetolerance="10"
     inkscape:pageopacity="0"
     inkscape:pageshadow="2"
     inkscape:window-width="1876"
     inkscape:window-height="1055"
     id="namedview14984"
     showgrid="false"
     inkscape:pagecheckerboard="true"
     inkscape:zoom="10.429825"
     inkscape:cx="30.257446"
     inkscape:cy="31.766591"
     inkscape:window-x="44"
     inkscape:window-y="0"
     inkscape:window-maximized="1"
     inkscape:current-layer="svg14982" />
  <defs
     id="defs14974">
    <linearGradient
       id="c">
      <stop
         offset="0"
         stop-color="#fff"
         stop-opacity=".899"
         id="stop14951" />
      <stop
         offset=".49"
         stop-color="#fff"
         stop-opacity=".5"
         id="stop14953" />
      <stop
         offset=".51"
         stop-color="#fff"
         stop-opacity=".931"
         id="stop14955" />
      <stop
         offset="1"
         stop-color="#fff"
         stop-opacity=".5"
         id="stop14957" />
    </linearGradient>
    <linearGradient
       id="b">
      <stop
         offset="0"
         stop-color="#fff"
         id="stop14960" />
      <stop
         offset=".5"
         stop-color="#fff"
         stop-opacity=".73"
         id="stop14962" />
      <stop
         offset="1"
         stop-color="#fff"
         stop-opacity="0"
         id="stop14964" />
    </linearGradient>
    <linearGradient
       id="a">
      <stop
         offset="0"
         stop-color="#fff"
         id="stop14967" />
      <stop
         offset="1"
         stop-color="#fff"
         stop-opacity="0"
         id="stop14969" />
    </linearGradient>
    <radialGradient
       xlink:href="#b"
       id="d"
       cx="32"
       cy="32"
       fx="32"
       fy="32"
       r="23"
       gradientTransform="matrix(1.5838081,-0.05023591,0.03230867,1.6252486,-15.71561,-14.400615)"
       gradientUnits="userSpaceOnUse" />
    <linearGradient
       xlink:href="#c"
       id="e"
       x1="74.246002"
       y1="-52.848999"
       x2="107.834"
       y2="-52.848999"
       gradientUnits="userSpaceOnUse"
       gradientTransform="matrix(0.72660364,0,0,0.91781514,-30.278316,84.85942)" />
  </defs>
  <path
     d="M 56.697421,11.163095 H 15.302578 a 4.1394841,5.228822 0 0 0 -4.139484,5.228824 v 39.216164 a 4.1394841,5.228822 0 0 0 4.139484,5.228823 h 41.394843 a 4.1394841,5.228822 0 0 0 4.139484,-5.228823 V 16.391919 a 4.1394841,5.228822 0 0 0 -4.139484,-5.228824 z"
     id="path14976"
     inkscape:connector-curvature="0"
     style="opacity:0.5;fill:none;stroke:#ffffff;stroke-width:2.32618928" />
  <path
     style="color:#ffffff;font-weight:400;line-height:normal;font-family:sans-serif;font-variant-ligatures:normal;font-variant-position:normal;font-variant-caps:normal;font-variant-numeric:normal;font-variant-alternates:normal;font-feature-settings:normal;text-indent:0;text-align:start;text-decoration:none;text-decoration-line:none;text-decoration-style:solid;text-decoration-color:#ffffff;text-transform:none;text-orientation:mixed;white-space:normal;shape-padding:0;overflow:visible;opacity:0.5;isolation:auto;mix-blend-mode:normal;solid-color:#ffffff;solid-opacity:1;fill:url(#d);stroke-width:1.16309464"
     d="m 15.302578,12.470302 c -1.726164,0 -3.104613,1.741197 -3.104613,3.921617 v 16.592359 a 5.3968525,14.904757 0 0 0 0.856873,0.773866 6.1419596,7.7582646 0 0 0 -0.856873,0.401312 v 21.448627 c 0,2.18042 1.378449,3.921616 3.104613,3.921616 h 4.733501 c 2.057323,-0.414383 3.545467,-1.772571 3.545467,-5.820986 0,-6.682434 -4.054624,-18.32702 -8.026459,-19.998936 A 5.3968525,14.904757 0 0 0 19.663526,19.252083 5.3968525,14.904757 0 0 0 19.508294,15.765767 23.599199,9.3595914 0 0 0 36,18.441616 a 23.599199,9.3595914 0 0 0 16.489634,-2.665392 5.3968525,14.904757 0 0 0 -0.154195,3.475859 5.3968525,14.904757 0 0 0 4.111543,14.455079 c -3.972871,1.667995 -8.028529,13.317809 -8.028529,20.000245 0,4.049721 1.488144,5.407909 3.545467,5.822292 h 4.733501 c 1.726164,0 3.104613,-1.741196 3.104613,-3.921616 V 34.16207 A 6.1471338,7.7648006 0 0 0 58.94102,33.758144 5.3968525,14.904757 0 0 0 59.802034,32.980355 V 16.391919 c 0,-2.18042 -1.378449,-3.921617 -3.104613,-3.921617 z"
     font-weight="400"
     overflow="visible"
     id="path14978"
     inkscape:connector-curvature="0" />
  <path
     style="color:#ffffff;overflow:visible;isolation:auto;mix-blend-mode:normal;solid-color:#ffffff;solid-opacity:1;fill:url(#e);fill-rule:evenodd;stroke-width:1.16309464;marker:none"
     d="M 23.79887,18.750117 V 42.43668 A 12.176292,15.380579 0 0 0 36,57.851247 c 6.759776,0 12.201129,-6.8759 12.201129,-15.414567 V 18.750117 c -8.134086,2.292838 -16.268173,2.464082 -24.402259,0 z m 5.607966,7.377868 c 0.702677,0 1.258403,0.261441 1.670282,0.781708 0.435681,0.550333 0.654039,1.206552 0.654039,1.972574 0,0.733341 -0.217324,1.362109 -0.654039,1.882377 -0.411879,0.549025 -0.967605,0.826152 -1.670282,0.826152 -0.654038,0 -1.199415,-0.27582 -1.635096,-0.827461 a 2.0324868,2.5673515 0 0 1 -0.618853,-1.882374 c 0,-0.764716 0.206974,-1.420935 0.618853,-1.971268 0.435681,-0.520267 0.981058,-0.781708 1.635096,-0.781708 z m 13.113887,0 c 0.702677,0 1.260471,0.261441 1.672351,0.781708 0.434645,0.550333 0.654038,1.206552 0.654038,1.972574 0,0.733341 -0.218358,1.362109 -0.654038,1.882377 -0.41188,0.549025 -0.969674,0.826152 -1.672351,0.826152 -0.654039,0 -1.198382,-0.27582 -1.635098,-0.827461 a 2.0314519,2.5660444 0 0 1 -0.616783,-1.882374 c 0,-0.764716 0.205941,-1.420935 0.616783,-1.971268 0.436716,-0.520267 0.981059,-0.781708 1.635098,-0.781708 z m -15.360591,16.16621 c 2.724815,2.000024 5.544839,5.069344 8.449722,5.086337 v 1.738583 c -3.368506,-0.01307 -6.300297,-3.479781 -8.935078,-5.521636 z m 9.030284,-1.627472 c 3.368504,0.01307 6.300295,3.712465 8.935076,5.754321 l -0.48639,1.301975 c -2.72378,-2.000024 -5.543803,-5.29941 -8.448686,-5.317711 z"
     overflow="visible"
     id="path14980"
     inkscape:connector-curvature="0" />
</svg>
