<?xml version="1.0" encoding="UTF-8" standalone="no"?>
<svg
   xmlns:dc="http://purl.org/dc/elements/1.1/"
   xmlns:cc="http://creativecommons.org/ns#"
   xmlns:rdf="http://www.w3.org/1999/02/22-rdf-syntax-ns#"
   xmlns:svg="http://www.w3.org/2000/svg"
   xmlns="http://www.w3.org/2000/svg"
   xmlns:xlink="http://www.w3.org/1999/xlink"
   xmlns:sodipodi="http://sodipodi.sourceforge.net/DTD/sodipodi-0.dtd"
   xmlns:inkscape="http://www.inkscape.org/namespaces/inkscape"
   width="72"
   height="72"
   version="1.1"
   id="svg11792"
   sodipodi:docname="icon-m-scene_mode_snow.svg"
   inkscape:version="0.92.4 (5da689c313, 2019-01-14)">
  <metadata
     id="metadata11796">
    <rdf:RDF>
      <cc:Work
         rdf:about="">
        <dc:format>image/svg+xml</dc:format>
        <dc:type
           rdf:resource="http://purl.org/dc/dcmitype/StillImage" />
        <dc:title></dc:title>
      </cc:Work>
    </rdf:RDF>
  </metadata>
  <sodipodi:namedview
     pagecolor="#ffffff"
     bordercolor="#666666"
     borderopacity="1"
     objecttolerance="10"
     gridtolerance="10"
     guidetolerance="10"
     inkscape:pageopacity="0"
     inkscape:pageshadow="2"
     inkscape:window-width="1876"
     inkscape:window-height="1055"
     id="namedview11794"
     showgrid="false"
     inkscape:pagecheckerboard="true"
     inkscape:zoom="7.375"
     inkscape:cx="38.802808"
     inkscape:cy="36.997843"
     inkscape:window-x="44"
     inkscape:window-y="0"
     inkscape:window-maximized="1"
     inkscape:current-layer="svg11792" />
  <defs
     id="defs11768">
    <linearGradient
       id="b">
      <stop
         offset="0"
         stop-color="#fff"
         id="stop11754" />
      <stop
         offset="1"
         stop-color="#fff"
         stop-opacity="0"
         id="stop11756" />
    </linearGradient>
    <linearGradient
       id="a">
      <stop
         offset="0"
         stop-color="#fff"
         id="stop11759" />
      <stop
         offset="1"
         stop-color="#fff"
         stop-opacity="0"
         id="stop11761" />
    </linearGradient>
    <linearGradient
       xlink:href="#a"
       id="d"
       x1="-10.96"
       y1="35.099998"
       x2="-10.96"
       y2="79.622002"
       gradientUnits="userSpaceOnUse"
       gradientTransform="matrix(1.034871,0,0,1.3072055,36.646793,-11.718231)" />
    <linearGradient
       xlink:href="#a"
       id="e"
       x1="-11.402"
       y1="16.841999"
       x2="-11.402"
       y2="50.105999"
       gradientUnits="userSpaceOnUse"
       gradientTransform="matrix(1.034871,0,0,1.3072055,36.646793,-6.5011738)" />
    <linearGradient
       xlink:href="#a"
       id="f"
       x1="-12.75"
       y1="25.652"
       x2="-12.75"
       y2="56.911999"
       gradientUnits="userSpaceOnUse"
       gradientTransform="matrix(1.034871,0,0,1.3072055,36.647827,-9.1038201)" />
    <linearGradient
       xlink:href="#b"
       id="c"
       x1="35.444"
       y1="37.483002"
       x2="35.444"
       y2="62.674"
       gradientUnits="userSpaceOnUse"
       gradientTransform="matrix(1.034871,0,0,1.3072055,2.8841254,-5.8305774)" />
  </defs>
  <path
     style="color:#ffffff;font-weight:400;line-height:normal;font-family:sans-serif;font-variant-ligatures:normal;font-variant-position:normal;font-variant-caps:normal;font-variant-numeric:normal;font-variant-alternates:normal;font-feature-settings:normal;text-indent:0;text-align:start;text-decoration:none;text-decoration-line:none;text-decoration-style:solid;text-decoration-color:#ffffff;text-transform:none;text-orientation:mixed;white-space:normal;shape-padding:0;overflow:visible;opacity:0.5;isolation:auto;mix-blend-mode:normal;solid-color:#ffffff;solid-opacity:1;fill:url(#c);stroke-width:1.16309464"
     d="m 59.802034,45.31384 v 10.294244 c 0,2.180418 -1.378448,3.921616 -3.104613,3.921616 H 15.302578 c -1.726166,0 -3.104614,-1.741198 -3.104614,-3.921616 V 43.353032 c 0.618854,-0.248369 1.943489,-0.278434 3.777279,-0.164709 -0.120044,7.668069 4.708665,11.942631 9.182411,11.634132 3.628258,-0.250985 7.515234,-3.630111 8.138227,-9.647179 9.617056,1.905905 14.713797,2.5033 26.506153,0.138564 z"
     font-weight="400"
     overflow="visible"
     id="path11770"
     inkscape:connector-curvature="0" />
  <path
     d="m 19.308563,35.228749 a 8.6898124,10.976605 0 0 0 -3.33125,8.636708 8.6898124,10.976605 0 0 0 8.689814,10.976604 8.6898124,10.976605 0 0 0 8.690846,-10.976604 8.6898124,10.976605 0 0 0 -3.332285,-8.623635 5.7176627,7.2223107 0 0 1 -5.358561,4.712475 5.7176627,7.2223107 0 0 1 -5.358564,-4.725548 z"
     id="path11772"
     style="fill:url(#d);stroke-width:1.16309464"
     inkscape:connector-curvature="0" />
  <path
     d="m 28.601707,23.432526 a 3.9325101,4.9673812 0 0 1 -3.933546,4.968689 3.9325101,4.9673812 0 0 1 -3.93251,-4.967382 3.9325101,4.9673812 0 0 1 3.93251,-4.967381 3.9325101,4.9673812 0 0 1 3.93251,4.967381 z"
     id="path11774"
     style="fill:url(#e);stroke-width:1.16309464"
     inkscape:connector-curvature="0" />
  <path
     d="m 21.640129,26.609036 a 5.7176627,7.2223107 0 0 0 -2.690665,6.122951 5.7176627,7.2223107 0 0 0 5.718697,7.22231 5.7176627,7.2223107 0 0 0 5.717662,-7.22231 5.7176627,7.2223107 0 0 0 -2.690664,-6.117722 3.9325101,4.9673812 0 0 1 -3.026998,1.797408 3.9325101,4.9673812 0 0 1 -3.028032,-1.802637 z"
     id="path11776"
     style="fill:url(#f);stroke-width:1.16309464"
     inkscape:connector-curvature="0" />
  <path
     d="M 56.697421,11.163095 H 15.302578 a 4.1394843,5.2288222 0 0 0 -4.139484,5.228823 v 39.216166 a 4.1394843,5.2288222 0 0 0 4.139484,5.228822 h 41.394843 a 4.1394843,5.2288222 0 0 0 4.139484,-5.228822 V 16.391918 a 4.1394843,5.2288222 0 0 0 -4.139484,-5.228823 z"
     id="path11778"
     inkscape:connector-curvature="0"
     style="opacity:0.5;fill:none;stroke:#ffffff;stroke-width:2.32618928" />
  <g
     transform="matrix(1.034871,0,0,1.3072055,1.5905367,-4.8501734)"
     id="g11790">
    <g
       id="h"
       transform="translate(87.687,30.437)">
      <circle
         id="g"
         cx="-48.562"
         cy="-9.1870003"
         r="1.813"
         stroke-miterlimit="4"
         style="opacity:1;fill:#ffffff;fill-opacity:1;stroke:none;stroke-width:1.21599996;stroke-linecap:round;stroke-miterlimit:4;stroke-dasharray:none;stroke-opacity:1" />
      <use
         height="100%"
         width="100%"
         xlink:href="#g"
         transform="translate(0,6)"
         id="use11781"
         x="0"
         y="0" />
      <use
         height="100%"
         width="100%"
         xlink:href="#g"
         transform="translate(0,12)"
         id="use11783"
         x="0"
         y="0" />
    </g>
    <use
       transform="translate(11.75)"
       height="100%"
       width="100%"
       xlink:href="#h"
       id="use11786"
       x="0"
       y="0" />
    <use
       height="100%"
       width="100%"
       transform="translate(5.875,-3.125)"
       xlink:href="#h"
       id="use11788"
       x="0"
       y="0" />
  </g>
</svg>
