<svg xmlns="http://www.w3.org/2000/svg" xmlns:xlink="http://www.w3.org/1999/xlink" width="64" height="64"><defs><linearGradient id="b"><stop offset="0" stop-color="#fff" stop-opacity=".765"/><stop offset="1" stop-color="#fff" stop-opacity="0"/></linearGradient><linearGradient id="a"><stop offset="0" stop-color="#fff" stop-opacity=".754"/><stop offset="1" stop-color="#fff" stop-opacity="0"/></linearGradient><linearGradient xlink:href="#a" id="c" x1="11.406" y1="104.761" x2="11.75" y2="102.75" gradientUnits="userSpaceOnUse"/><linearGradient gradientTransform="translate(-36.75 4.804)" xlink:href="#b" id="d" x1="11.891" y1="104.324" x2="11.75" y2="102.75" gradientUnits="userSpaceOnUse"/></defs><path d="M52 13H12a4 4 0 0 0-4 4v30a4 4 0 0 0 4 4h40a4 4 0 0 0 4-4V17a4 4 0 0 0-4-4z" opacity=".5" fill="none" stroke="#fff" stroke-width="2"/><g stroke-width="3.293" opacity=".827" stroke="#fff"><path d="M25.25 98.49l-12.5 12.552L.25 98.491z" style="isolation:auto;mix-blend-mode:normal;solid-color:#fff;solid-opacity:1;marker:none" color="#fff" overflow="visible" fill="url(#c)" fill-rule="evenodd" stroke-linecap="round" stroke-linejoin="round" transform="matrix(.60506 -.08878 .09008 .59636 25.131 -32.448)"/><path d="M21.875 125.651l-9.125-2.205-9.125 2.205z" style="isolation:auto;mix-blend-mode:normal;solid-color:#fff;solid-opacity:1;marker:none" color="#fff" overflow="visible" fill="#fff" fill-opacity=".716" fill-rule="evenodd" stroke-linecap="round" stroke-linejoin="round" transform="matrix(.60506 -.08878 .09008 .59636 25.131 -32.448)"/><path d="M12.75 111.042v12.404" opacity=".75" fill="none" transform="matrix(.60506 -.08878 .09008 .59636 25.131 -32.448)"/></g><g stroke-width="3.293" opacity=".827" stroke="#fff"><path d="M-11.5 103.295L-24 115.846l-12.5-12.551z" style="isolation:auto;mix-blend-mode:normal;solid-color:#fff;solid-opacity:1;marker:none" color="#fff" overflow="visible" fill="url(#d)" fill-rule="evenodd" stroke-linecap="round" stroke-linejoin="round" transform="matrix(.60658 .07811 -.07925 .59785 47.12 -33.876)"/><path d="M-14.875 130.455L-24 128.25l-9.125 2.205z" style="isolation:auto;mix-blend-mode:normal;solid-color:#fff;solid-opacity:1;marker:none" color="#fff" overflow="visible" fill="#fff" fill-opacity=".716" fill-rule="evenodd" stroke-linecap="round" stroke-linejoin="round" transform="matrix(.60658 .07811 -.07925 .59785 47.12 -33.876)"/><path d="M-24 115.846v12.404" opacity=".75" fill="none" transform="matrix(.60658 .07811 -.07925 .59785 47.12 -33.876)"/></g></svg>