<?xml version="1.0" encoding="UTF-8" standalone="no"?>
<svg
   xmlns:dc="http://purl.org/dc/elements/1.1/"
   xmlns:cc="http://creativecommons.org/ns#"
   xmlns:rdf="http://www.w3.org/1999/02/22-rdf-syntax-ns#"
   xmlns:svg="http://www.w3.org/2000/svg"
   xmlns="http://www.w3.org/2000/svg"
   xmlns:xlink="http://www.w3.org/1999/xlink"
   xmlns:sodipodi="http://sodipodi.sourceforge.net/DTD/sodipodi-0.dtd"
   xmlns:inkscape="http://www.inkscape.org/namespaces/inkscape"
   width="72"
   height="72"
   version="1.1"
   id="svg14330"
   sodipodi:docname="icon-m-scene_mode_sunset.svg"
   inkscape:version="0.92.4 (5da689c313, 2019-01-14)">
  <metadata
     id="metadata14334">
    <rdf:RDF>
      <cc:Work
         rdf:about="">
        <dc:format>image/svg+xml</dc:format>
        <dc:type
           rdf:resource="http://purl.org/dc/dcmitype/StillImage" />
        <dc:title></dc:title>
      </cc:Work>
    </rdf:RDF>
  </metadata>
  <sodipodi:namedview
     pagecolor="#ffffff"
     bordercolor="#666666"
     borderopacity="1"
     objecttolerance="10"
     gridtolerance="10"
     guidetolerance="10"
     inkscape:pageopacity="0"
     inkscape:pageshadow="2"
     inkscape:window-width="1876"
     inkscape:window-height="1055"
     id="namedview14332"
     showgrid="false"
     inkscape:pagecheckerboard="true"
     inkscape:zoom="10.429825"
     inkscape:cx="32.882701"
     inkscape:cy="32.282995"
     inkscape:window-x="44"
     inkscape:window-y="0"
     inkscape:window-maximized="1"
     inkscape:current-layer="svg14330" />
  <defs
     id="defs14318">
    <linearGradient
       id="b">
      <stop
         offset="0"
         stop-color="#fff"
         id="stop14306" />
      <stop
         offset="1"
         stop-color="#fff"
         stop-opacity="0"
         id="stop14308" />
    </linearGradient>
    <radialGradient
       xlink:href="#a"
       id="d"
       cx="83.780998"
       cy="74.875"
       fx="83.780998"
       fy="74.875"
       r="7.592"
       gradientUnits="userSpaceOnUse"
       gradientTransform="matrix(1.3115,0,0,1.3115,-77.855,-66.817)" />
    <linearGradient
       id="a">
      <stop
         offset="0"
         stop-color="#fff"
         id="stop14312" />
      <stop
         offset="1"
         stop-color="#fff"
         stop-opacity="0"
         id="stop14314" />
    </linearGradient>
    <linearGradient
       xlink:href="#b"
       id="c"
       x1="17.854"
       y1="32.269001"
       x2="21.655001"
       y2="55.160999"
       gradientUnits="userSpaceOnUse"
       gradientTransform="matrix(1.034871,0,0,1.3072055,2.8841267,-5.830576)" />
  </defs>
  <path
     d="M 56.697421,11.163095 H 15.302578 a 4.1394841,5.228822 0 0 0 -4.139484,5.228824 v 39.216164 a 4.1394841,5.228822 0 0 0 4.139484,5.228823 h 41.394843 a 4.1394841,5.228822 0 0 0 4.139484,-5.228823 V 16.391919 a 4.1394841,5.228822 0 0 0 -4.139484,-5.228824 z"
     id="path14320"
     inkscape:connector-curvature="0"
     style="opacity:0.5;fill:none;stroke:#ffffff;stroke-width:2.32618928" />
  <path
     style="color:#ffffff;font-weight:400;line-height:normal;font-family:sans-serif;font-variant-ligatures:normal;font-variant-position:normal;font-variant-caps:normal;font-variant-numeric:normal;font-variant-alternates:normal;font-feature-settings:normal;text-indent:0;text-align:start;text-decoration:none;text-decoration-line:none;text-decoration-style:solid;text-decoration-color:#ffffff;text-transform:none;text-orientation:mixed;white-space:normal;shape-padding:0;overflow:visible;opacity:0.5;isolation:auto;mix-blend-mode:normal;solid-color:#ffffff;solid-opacity:1;fill:url(#c);stroke-width:1.16309464"
     d="m 59.802034,38.614411 v 16.993672 c 0,2.18042 -1.378449,3.921616 -3.104613,3.921616 H 15.302578 c -1.726164,0 -3.104613,-1.741196 -3.104613,-3.921616 V 38.12421 c 28.314072,-2.000025 38.419588,1.366029 47.604069,0.490201 z"
     font-weight="400"
     overflow="visible"
     id="path14322"
     inkscape:connector-curvature="0" />
  <g
     id="g14328"
     style="color:#ffffff;fill-rule:evenodd"
     transform="matrix(1.5052649,0,0,1.629271,-12.300187,-15.274693)">
    <path
       d="m 32.024,21.425 a 9.956,9.956 0 0 0 -0.358,0.013 c 0.092,0.037 0.417,9.142 0.507,9.16 0.09,0.017 3.744,-8.336 3.842,-8.333 a 9.956,9.956 0 0 0 -3.99,-0.84 z m 3.991,0.84 c 0.07,0.07 -3.59,8.421 -3.517,8.476 0.074,0.054 6.965,-5.863 7.073,-5.835 a 9.956,9.956 0 0 0 -3.556,-2.641 z m 3.556,2.64 c 0.01,0.111 -6.885,6.024 -6.842,6.105 0.042,0.081 8.855,-2.27 8.911,-2.19 a 9.956,9.956 0 0 0 -2.07,-3.914 z m 2.07,3.915 c -0.01,0.097 -8.823,2.442 -8.82,2.533 0.003,0.092 8.954,1.793 8.978,1.89 a 9.956,9.956 0 0 0 0.182,-1.862 9.956,9.956 0 0 0 -0.34,-2.561 z m 0.158,4.424 c -0.058,0.081 -9.008,-1.626 -9.045,-1.542 -0.01,0.025 0.706,0.576 1.622,1.273 2.767,0.112 5.094,0.222 7.403,0.358 a 9.956,9.956 0 0 0 0.02,-0.09 z M 31.666,21.438 a 9.956,9.956 0 0 0 -4.28,1.14 c 0.097,-0.011 4.345,8.056 4.433,8.032 0.089,-0.023 -0.243,-9.128 -0.153,-9.172 z m -4.28,1.14 a 9.956,9.956 0 0 0 -3.354,2.886 c 0.102,-0.038 7.403,5.372 7.472,5.313 0.07,-0.06 -4.182,-8.125 -4.119,-8.2 z m -3.354,2.886 H 24.03 a 9.956,9.956 0 0 0 -1.78,4.055 c 0.057,-0.082 9.007,1.626 9.044,1.542 0.037,-0.084 -7.269,-5.489 -7.262,-5.597 z M 22.25,29.52 a 9.956,9.956 0 0 0 -0.182,1.862 9.956,9.956 0 0 0 0.102,1.325 c 1.53,0.002 2.992,0.016 4.403,0.038 2.291,-0.634 4.656,-1.287 4.655,-1.334 -0.004,-0.092 -8.955,-1.793 -8.978,-1.89 z m 9.07,2.234 c -0.02,-0.038 -2.006,0.468 -4.078,0.999 1.015,0.018 1.961,0.043 2.918,0.069 0.69,-0.61 1.171,-1.047 1.16,-1.068 z m 1.224,0.233 c -0.013,0.01 0.233,0.496 0.449,0.93 0.336,0.012 0.63,0.028 0.96,0.04 -0.799,-0.573 -1.39,-0.986 -1.409,-0.97 z m -0.994,0.036 c -0.016,-0.013 -0.457,0.346 -1.017,0.81 0.226,0.005 0.47,0.008 0.692,0.015 0.139,-0.343 0.337,-0.817 0.325,-0.825 z m 0.68,0.13 c -0.013,0.003 -10e-4,0.472 0,0.733 0.153,0.005 0.278,0.013 0.43,0.018 -0.173,-0.307 -0.417,-0.754 -0.43,-0.75 z m -0.354,0.013 c -0.012,-0.002 -0.212,0.435 -0.333,0.69 0.139,0.004 0.246,0.013 0.384,0.017 -0.017,-0.244 -0.04,-0.705 -0.051,-0.707 z"
       style="overflow:visible;opacity:0.75499998;isolation:auto;mix-blend-mode:normal;solid-color:#ffffff;solid-opacity:1;fill:url(#d);marker:none"
       overflow="visible"
       transform="translate(0.063,-0.437)"
       id="path14324"
       inkscape:connector-curvature="0" />
    <path
       d="m 32.063,28.281 a 3.031,3.031 0 0 0 -3.032,3.032 3.031,3.031 0 0 0 0.194,1.064 233.3,233.3 0 0 1 5.591,0.191 3.031,3.031 0 0 0 0.278,-1.255 3.031,3.031 0 0 0 -3.031,-3.032 z"
       style="overflow:visible;isolation:auto;mix-blend-mode:normal;solid-color:#ffffff;solid-opacity:1;fill:#ffffff;marker:none"
       overflow="visible"
       id="path14326"
       inkscape:connector-curvature="0" />
  </g>
</svg>
