<?xml version="1.0" encoding="UTF-8" standalone="no"?>
<svg
   xmlns:dc="http://purl.org/dc/elements/1.1/"
   xmlns:cc="http://creativecommons.org/ns#"
   xmlns:rdf="http://www.w3.org/1999/02/22-rdf-syntax-ns#"
   xmlns:svg="http://www.w3.org/2000/svg"
   xmlns="http://www.w3.org/2000/svg"
   xmlns:xlink="http://www.w3.org/1999/xlink"
   xmlns:sodipodi="http://sodipodi.sourceforge.net/DTD/sodipodi-0.dtd"
   xmlns:inkscape="http://www.inkscape.org/namespaces/inkscape"
   width="72"
   height="72"
   version="1.1"
   id="svg2183"
   sodipodi:docname="icon-m-scene_mode_backlight.svg"
   inkscape:version="0.92.4 (5da689c313, 2019-01-14)">
  <metadata
     id="metadata2187">
    <rdf:RDF>
      <cc:Work
         rdf:about="">
        <dc:format>image/svg+xml</dc:format>
        <dc:type
           rdf:resource="http://purl.org/dc/dcmitype/StillImage" />
        <dc:title></dc:title>
      </cc:Work>
    </rdf:RDF>
  </metadata>
  <sodipodi:namedview
     pagecolor="#ffffff"
     bordercolor="#666666"
     borderopacity="1"
     objecttolerance="10"
     gridtolerance="10"
     guidetolerance="10"
     inkscape:pageopacity="0"
     inkscape:pageshadow="2"
     inkscape:window-width="1876"
     inkscape:window-height="1055"
     id="namedview2185"
     showgrid="false"
     inkscape:pagecheckerboard="true"
     inkscape:zoom="10.429825"
     inkscape:cx="49.71747"
     inkscape:cy="33.820046"
     inkscape:window-x="44"
     inkscape:window-y="0"
     inkscape:window-maximized="1"
     inkscape:current-layer="svg2183" />
  <defs
     id="defs2171">
    <linearGradient
       xlink:href="#a"
       id="b"
       x1="29.875"
       y1="19.364"
       x2="42.514999"
       y2="60.111"
       gradientUnits="userSpaceOnUse"
       gradientTransform="matrix(1.034871,0,0,1.3072055,2.8841267,-5.830576)" />
    <linearGradient
       id="a">
      <stop
         offset="0"
         stop-color="#fff"
         id="stop2165" />
      <stop
         offset="1"
         stop-color="#fff"
         stop-opacity="0"
         id="stop2167" />
    </linearGradient>
    <radialGradient
       xlink:href="#a"
       id="c"
       cx="83.780998"
       cy="74.875"
       fx="83.780998"
       fy="74.875"
       r="7.592"
       gradientUnits="userSpaceOnUse"
       gradientTransform="matrix(1.68623,0,0,1.68623,-119.507,-99.355)" />
  </defs>
  <path
     d="m 52.345788,31.213015 c -1.29359,0 -2.359506,1.009161 -3.585828,1.883682 l -13.099398,9.353057 c -2.453679,1.751654 -5.242657,2.515062 -7.239958,0 l -1.04522,-1.328122 c -1.996266,-2.515063 -5.597617,-6.820998 -8.804683,-1.960809 l -6.372736,9.658943 v 6.788317 c 0,2.18042 1.378449,3.921616 3.104613,3.921616 h 41.394843 c 1.726164,0 3.104613,-1.741196 3.104613,-3.921616 V 38.075844 l -3.870419,-4.979147 a 5.0625891,6.3948493 0 0 0 -3.585827,-1.883682 z"
     id="path2173"
     style="fill:url(#b);stroke-width:1.16309464"
     inkscape:connector-curvature="0" />
  <path
     d="M 56.697421,11.163095 H 15.302578 a 4.1394841,5.228822 0 0 0 -4.139484,5.228824 v 39.216164 a 4.1394841,5.228822 0 0 0 4.139484,5.228823 h 41.394843 a 4.1394841,5.228822 0 0 0 4.139484,-5.228823 V 16.391919 a 4.1394841,5.228822 0 0 0 -4.139484,-5.228824 z"
     id="path2175"
     inkscape:connector-curvature="0"
     style="opacity:0.5;fill:none;stroke:#ffffff;stroke-width:2.32618928" />
  <g
     id="g2181"
     style="color:#ffffff;fill-rule:evenodd"
     transform="matrix(1.034871,0,0,1.1209409,2.8841268,-3.2042451)">
    <path
       d="m 21.768,14.1 a 12.801,12.801 0 0 0 -0.461,0.017 c 0.119,0.048 0.536,11.755 0.652,11.777 0.116,0.022 4.814,-10.718 4.94,-10.714 A 12.801,12.801 0 0 0 21.768,14.1 Z m 5.13,1.08 c 0.09,0.09 -4.616,10.828 -4.521,10.898 0.095,0.07 8.955,-7.538 9.093,-7.502 A 12.801,12.801 0 0 0 26.9,15.18 Z m 4.572,3.396 c 0.014,0.142 -8.851,7.744 -8.797,7.848 0.055,0.104 11.386,-2.918 11.458,-2.816 a 12.801,12.801 0 0 0 -2.66,-5.032 z m 2.661,5.032 c -0.011,0.125 -11.343,3.14 -11.339,3.257 0.004,0.118 11.513,2.306 11.543,2.431 a 12.801,12.801 0 0 0 0.234,-2.394 12.801,12.801 0 0 0 -0.438,-3.294 z m 0.204,5.688 c -0.074,0.105 -11.581,-2.09 -11.629,-1.983 -0.047,0.108 9.346,7.058 9.337,7.196 h 0.004 a 12.801,12.801 0 0 0 2.289,-5.213 z m -2.292,5.213 c -0.13,0.05 -9.517,-6.907 -9.607,-6.83 -0.09,0.077 5.378,10.446 5.296,10.542 a 12.801,12.801 0 0 0 4.311,-3.712 z m -4.31,3.712 c -0.127,0.013 -5.588,-10.358 -5.702,-10.328 -0.114,0.03 0.313,11.737 0.198,11.794 a 12.801,12.801 0 0 0 5.503,-1.466 z m -5.504,1.466 c -0.12,-0.048 -0.536,-11.755 -0.652,-11.778 -0.116,-0.022 -4.814,10.718 -4.94,10.714 a 12.801,12.801 0 0 0 5.13,1.08 12.801,12.801 0 0 0 0.462,-0.016 z m -5.592,-1.064 c -0.09,-0.09 4.616,-10.828 4.521,-10.898 -0.094,-0.07 -8.955,7.538 -9.093,7.502 a 12.801,12.801 0 0 0 4.572,3.396 z m -4.572,-3.396 c -0.014,-0.141 8.852,-7.744 8.797,-7.848 -0.055,-0.104 -11.386,2.918 -11.458,2.816 a 12.801,12.801 0 0 0 2.661,5.032 z M 9.405,30.195 C 9.415,30.07 20.748,27.055 20.744,26.938 20.739,26.82 9.231,24.633 9.2,24.508 a 12.801,12.801 0 0 0 -0.234,2.394 12.801,12.801 0 0 0 0.438,3.293 z M 9.2,24.507 c 0.074,-0.105 11.582,2.09 11.63,1.983 0.046,-0.108 -9.347,-7.057 -9.338,-7.196 H 11.489 A 12.801,12.801 0 0 0 9.2,24.507 Z m 2.292,-5.213 c 0.13,-0.05 9.518,6.907 9.607,6.83 0.09,-0.076 -5.378,-10.446 -5.296,-10.542 a 12.801,12.801 0 0 0 -4.31,3.712 z m 4.311,-3.712 c 0.126,-0.013 5.587,10.359 5.701,10.328 0.114,-0.03 -0.313,-11.737 -0.197,-11.793 a 12.801,12.801 0 0 0 -5.504,1.465 z"
       style="overflow:visible;opacity:0.75499998;isolation:auto;mix-blend-mode:normal;solid-color:#ffffff;solid-opacity:1;fill:url(#c);marker:none"
       overflow="visible"
       id="path2177"
       inkscape:connector-curvature="0" />
    <circle
       r="4.2290001"
       cy="26.902"
       cx="21.768"
       style="overflow:visible;isolation:auto;mix-blend-mode:normal;solid-color:#ffffff;solid-opacity:1;fill:#ffffff;marker:none"
       overflow="visible"
       id="circle2179" />
  </g>
</svg>
