<svg xmlns="http://www.w3.org/2000/svg" xmlns:xlink="http://www.w3.org/1999/xlink" width="64" height="64"><defs><linearGradient id="a"><stop offset="0" stop-color="#ececec"/><stop offset="1" stop-color="#f8f8f8" stop-opacity="0"/></linearGradient><radialGradient xlink:href="#a" id="b" cx="83.781" cy="74.875" fx="83.781" fy="74.875" r="7.592" gradientUnits="userSpaceOnUse" gradientTransform="translate(-294.118 -259.45) scale(3.89251)"/></defs><path d="M57.437 35.32l-1.535-2.74-3.089.577 2.133-2.307-1.503-2.759 2.853 1.316 2.16-2.283-.37 3.12 2.837 1.349-3.081.612z" opacity=".4" fill="#fff" fill-opacity=".991" stroke="#fff" stroke-linecap="round" stroke-linejoin="round"/><path d="M54.382 20.374l-2.585-3.538-4.178 1.317 2.566-3.551-2.544-3.567 4.17 1.343 2.607-3.522.01 4.382 4.156 1.39-4.164 1.365z" opacity=".5" fill="#fff" fill-opacity=".991" stroke="#fff" stroke-width=".999" stroke-linecap="round" stroke-linejoin="round"/><path d="M45.414 8.104l-1.108-1.178-1.47.673.778-1.418-1.095-1.19 1.589.301.794-1.409.204 1.605 1.585.32-1.463.69z" opacity=".4" fill="#fff" fill-opacity=".991" stroke="#fff" stroke-linecap="round" stroke-linejoin="round"/><path style="isolation:auto;mix-blend-mode:normal;solid-color:#000;solid-opacity:1;marker:none" d="M32.002 2.448a29.55 29.55 0 0 0-1.064.04c.183.074.662 11.718 1.046 19.749a9.762 9.762 0 0 1 .018 0 9.762 9.762 0 0 1 3.603.698c3.313-7.33 8.047-18 8.241-17.993a29.55 29.55 0 0 0-11.844-2.494zm11.844 2.494c.137.137-4.494 10.857-7.633 18.264a9.762 9.762 0 0 1 2.967 2.196c6.148-5.15 15.005-12.674 15.217-12.62a29.55 29.55 0 0 0-10.55-7.84zm10.55 7.84c.022.217-8.75 7.826-14.774 13.12a9.762 9.762 0 0 1 1.713 3.264c7.8-1.979 19.096-4.922 19.207-4.765a29.55 29.55 0 0 0-6.145-11.619zm6.146 11.619c-.018.191-11.29 3.251-19.04 5.415a9.762 9.762 0 0 1 .261 2.186 9.762 9.762 0 0 1-.126 1.497c7.88 1.598 19.327 3.839 19.374 4.03a29.55 29.55 0 0 0 .54-5.527 29.55 29.55 0 0 0-1.01-7.601zm.469 13.129c-.114.161-11.58-1.967-19.496-3.377a9.762 9.762 0 0 1-1.474 3.386c6.391 4.85 15.695 11.812 15.681 12.024h.005A29.55 29.55 0 0 0 61.01 37.53zm-5.289 12.033c-.2.076-9.579-6.8-16.082-11.497a9.762 9.762 0 0 1-2.8 2.399c3.665 7.16 9.057 17.517 8.932 17.665a29.55 29.55 0 0 0 9.95-8.567zm-9.95 8.567c-.193.02-5.693-10.278-9.527-17.35a9.762 9.762 0 0 1-3.557.96c.194 8.038.555 19.689.378 19.776a29.55 29.55 0 0 0 12.706-3.386zm-12.706 3.386c-.182-.074-.661-11.722-1.046-19.753a9.762 9.762 0 0 1-.018 0 9.762 9.762 0 0 1-3.602-.698c-3.314 7.33-8.048 18-8.242 17.993a29.55 29.55 0 0 0 11.844 2.494 29.55 29.55 0 0 0 1.064-.036zm-12.908-2.458c-.136-.138 4.49-10.857 7.629-18.264a9.762 9.762 0 0 1-2.962-2.191c-6.148 5.15-15.01 12.674-15.222 12.62a29.55 29.55 0 0 0 10.555 7.835zM9.603 51.223c-.021-.218 8.756-7.83 14.78-13.125a9.762 9.762 0 0 1-1.714-3.264c-7.8 1.979-19.096 4.927-19.206 4.77a29.55 29.55 0 0 0 6.14 11.619zm-6.14-11.62c.017-.19 11.285-3.255 19.035-5.419a9.762 9.762 0 0 1-.257-2.182 9.762 9.762 0 0 1 .126-1.497c-7.88-1.597-19.331-3.838-19.378-4.03a29.55 29.55 0 0 0-.54 5.527 29.55 29.55 0 0 0 1.014 7.602zm-.474-13.128c.114-.162 11.585 1.962 19.5 3.372a9.762 9.762 0 0 1 1.474-3.381c-6.39-4.85-15.695-11.812-15.68-12.025h-.01A29.55 29.55 0 0 0 2.99 26.475zM8.282 14.44c.2-.075 9.584 6.795 16.087 11.493a9.762 9.762 0 0 1 2.791-2.394c-3.665-7.161-9.053-17.522-8.927-17.67a29.55 29.55 0 0 0-9.95 8.571zm9.95-8.57c.194-.021 5.689 10.277 9.523 17.348a9.762 9.762 0 0 1 3.562-.955c-.195-8.038-.556-19.688-.379-19.775A29.55 29.55 0 0 0 18.233 5.87z" color="#000" overflow="visible" opacity=".755" fill="url(#b)" fill-rule="evenodd"/><circle style="isolation:auto;mix-blend-mode:normal;solid-color:#000;solid-opacity:1;marker:none" cx="32" cy="32" r="9.762" color="#000" overflow="visible" fill="none" stroke="#f8f8f8" stroke-width="2" stroke-linecap="round" stroke-linejoin="round" stroke-opacity=".989"/></svg>