<svg xmlns="http://www.w3.org/2000/svg" width="64" height="64"><path d="M52 13H12a4 4 0 0 0-4 4v30a4 4 0 0 0 4 4h40a4 4 0 0 0 4-4V17a4 4 0 0 0-4-4z" opacity=".5" fill="none" stroke="#fff" stroke-width="2"/><path style="isolation:auto;mix-blend-mode:normal;solid-color:#fff;solid-opacity:1;marker:none" d="M32 18.494a13.506 13.506 0 0 0-2.601.265l7.052 12.215 4.948-8.654A13.506 13.506 0 0 0 32 18.494zm-3.67.51a13.506 13.506 0 0 0-9.112 8.672h14.168zm13.766 4.05l-7 12.123 10.026-.042A13.506 13.506 0 0 0 45.506 32a13.506 13.506 0 0 0-3.41-8.946zm-12.898 5.543l-10.262.043a13.506 13.506 0 0 0-.442 3.36 13.506 13.506 0 0 0 3.509 9.059zm-1.398 4.27l-5.095 8.91A13.506 13.506 0 0 0 32 45.507a13.506 13.506 0 0 0 2.905-.334zm3.038 3.337l5.077 8.71a13.506 13.506 0 0 0 8.91-8.71z" color="#fff" overflow="visible" fill="#fff" fill-rule="evenodd"/></svg>