<svg xmlns="http://www.w3.org/2000/svg" width="64" height="64"><path d="M52 13H12a4 4 0 0 0-4 4v30a4 4 0 0 0 4 4h40a4 4 0 0 0 4-4V17a4 4 0 0 0-4-4z" opacity=".5" fill="none" stroke="#fff" stroke-width="2"/><path style="isolation:auto;mix-blend-mode:normal;solid-color:#fff;solid-opacity:1;marker:none" d="M32 18.494a13.506 13.506 0 0 0-8.478 2.998h12.905l-1.564-2.683A13.506 13.506 0 0 0 32 18.494zm4.933.946l6.394 11.076 1.515-2.648a13.506 13.506 0 0 0-7.91-8.428zm-11.57 3.431l-3.307.014A13.506 13.506 0 0 0 18.494 32a13.506 13.506 0 0 0 .218 2.391zm19.962 6.958l-6.393 11.074 3.223-.014A13.506 13.506 0 0 0 45.506 32a13.506 13.506 0 0 0-.181-2.17zm-24.4 3.496l-1.708 2.984a13.506 13.506 0 0 0 8.285 8.41zm6.872 9.063l1.673 2.872a13.506 13.506 0 0 0 2.53.246 13.506 13.506 0 0 0 8.614-3.118z" color="#fff" overflow="visible" fill="#fff" fill-rule="evenodd"/></svg>