<svg xmlns="http://www.w3.org/2000/svg" xmlns:xlink="http://www.w3.org/1999/xlink" width="72" height="72"><defs><linearGradient id="c"><stop offset="0" stop-color="#fff"/><stop offset="1" stop-color="#fff" stop-opacity="0"/></linearGradient><linearGradient id="b"><stop offset="0" stop-color="#fff"/><stop offset="1" stop-color="#fff" stop-opacity="0"/></linearGradient><linearGradient id="a"><stop offset="0" stop-color="#fff"/><stop offset="1" stop-color="#fff" stop-opacity="0"/></linearGradient><linearGradient xlink:href="#a" id="d" x1="22.252" y1="24.271" x2="25.813" y2="55.125" gradientUnits="userSpaceOnUse" gradientTransform="matrix(1.03487 0 0 1.3072 2.884 -5.83)"/><linearGradient xlink:href="#b" id="f" x1="35.313" y1="26.562" x2="29.75" y2="52.563" gradientUnits="userSpaceOnUse" gradientTransform="matrix(1.03487 0 0 1.3072 2.884 -5.83)"/><linearGradient xlink:href="#c" id="e" x1="43.813" y1="33.625" x2="30.625" y2="55.438" gradientUnits="userSpaceOnUse" gradientTransform="matrix(1.03487 0 0 1.3072 1.85 -4.687)"/></defs><path d="M56.697 11.163H15.303a4.14 5.229 0 0 0-4.14 5.229v39.216a4.14 5.229 0 0 0 4.14 5.229h41.394a4.14 5.229 0 0 0 4.14-5.229V16.392a4.14 5.229 0 0 0-4.14-5.229z" opacity=".5" fill="none" stroke="#fff" stroke-width="2.326"/><path d="M32.955 49.813c-1.766-14.722-7.043-23.916-7.043-23.916-.542 1.363-1.405 1.916-2.287 2.426 0 0 5.968 11.817 8.233 20.566.864 3.335 1.744 6.311 1.097.924z" opacity=".7" fill="url(#d)" fill-rule="evenodd"/><path d="M37.343 54.66c3.216-14.327 9.363-22.612 9.363-22.612.402 1.438 1.204 2.125 2.028 2.769 0 0-7.094 10.78-10.21 19.1-1.188 3.172-2.357 5.985-1.18.743z" opacity=".7" fill="url(#e)" fill-rule="evenodd"/><path d="M35.476 51.084c3.093-14.817 4.036-25.004 4.036-25.004-1.031.794-1.997.687-2.956.532 0 0-.681 12.232-1.625 22.954-.306 3.486-.555 6.785.545 1.517z" opacity=".7" fill="url(#f)" fill-rule="evenodd"/><path d="M48.35 17.956l-3.223 3.222m1.611-3.89v4.558m2.279-2.279H44.46m3.89 1.611l-3.223-3.222" transform="matrix(1.84105 0 0 2.03188 -33.745 -13.218)" opacity=".775" fill="none" stroke="#fff" stroke-width="1.202" stroke-linecap="round"/><path d="M43.246 26.138l-3.222 3.222m1.611-3.89v4.558m2.279-2.279h-4.558m3.89 1.611l-3.222-3.222" transform="matrix(1.1608 0 0 1.26718 -10.54 -14.256)" opacity=".882" fill="none" stroke="#fff" stroke-width=".959" stroke-linecap="round"/><path d="M51.547 27.602l-3.223 3.223m1.611-3.89v4.557m2.279-2.278h-4.557m3.89 1.611l-3.223-3.223" transform="matrix(1.11717 0 0 1.21956 -35.037 7.858)" opacity=".809" fill="none" stroke="#fff" stroke-width=".996" stroke-linecap="round"/><path d="M46.413 45.789l-.131-2.801m1.102 2.344l-2.073-1.888m.092 1.981l1.888-2.074m-2.344 1.103l2.801-.131" stroke-width=".669" transform="matrix(1.03487 0 0 1.14214 2.884 -2.908)" opacity=".7" fill="none" stroke="#fff" stroke-linecap="round"/><path d="M51.547 27.602l-3.223 3.223m1.611-3.89v4.557m2.279-2.278h-4.557m3.89 1.611l-3.223-3.223" transform="matrix(-1.0508 1.27363 -1.154 -1.15973 107.261 -8.48)" opacity=".778" fill="none" stroke="#fff" stroke-width="1.419" stroke-linecap="round"/></svg>