<svg xmlns="http://www.w3.org/2000/svg" xmlns:xlink="http://www.w3.org/1999/xlink" width="72" height="72"><defs><linearGradient id="c"><stop offset="0" stop-color="#fff"/><stop offset="1" stop-color="#fff" stop-opacity="0"/></linearGradient><linearGradient id="b"><stop offset="0" stop-color="#fff"/><stop offset="1" stop-color="#fff" stop-opacity="0"/></linearGradient><linearGradient id="a"><stop offset="0" stop-color="#fff"/><stop offset="1" stop-color="#fff" stop-opacity="0"/></linearGradient><linearGradient xlink:href="#a" id="e" x1="12.29" y1="22.068" x2="30.327" y2="20.806" gradientUnits="userSpaceOnUse" gradientTransform="matrix(.83992 .1252 -.10349 1.01607 9.257 5.414)"/><linearGradient xlink:href="#b" id="g" x1="56.194" y1="23.027" x2="37.424" y2="24.136" gradientUnits="userSpaceOnUse" gradientTransform="matrix(.81685 -.26763 .22123 .98816 -.095 18.353)"/><linearGradient xlink:href="#b" id="d" x1="12.29" y1="22.068" x2="30.327" y2="20.806" gradientUnits="userSpaceOnUse" gradientTransform="matrix(.83992 .1252 -.10349 1.01607 5.307 5.7)"/><linearGradient xlink:href="#b" id="f" x1="56.194" y1="23.027" x2="37.424" y2="24.136" gradientUnits="userSpaceOnUse" gradientTransform="matrix(.81684 -.26763 .22123 .98815 5.485 18.555)"/><linearGradient xlink:href="#c" id="h" x1="40.077" y1="15.294" x2="42.858" y2="75.314" gradientUnits="userSpaceOnUse" gradientTransform="matrix(1.03487 0 0 1.2519 2.405 -4.422)"/></defs><path d="M14.078 42.202c-.664.052-1.089.848-1.252 1.515-.21.861-.145 2.04.665 2.768 1.335 1.2 3.09 3.215 4.786 5.167 1.497 1.722 3.041 3.422 4.207 4.527 1.738 1.642 4.057 1.756 5.698 1.628h.001c4.22-.325 8.464-2.856 9.972-5.087.363-.536.55-.994.513-1.332-.428-3.802-1.152-9.164-1.462-11.465l-.06-.439c-.127-.943-3.328-17.132-4.936-16.382-1.971.916-.272 3.772.526 11.36.01.1-.252.178-.365.163-.84-.107-3.829-15.451-6.048-14.74-2.567.826.158 6.933 1.658 14.716.069.363-.304.905-.417.526-.758-2.556-3.337-9.715-4.65-14.555-.406-1.494-1.149-2.511-1.775-2.375-.9.198-1.638 1.765-1.246 3.608a1029.355 1245.233 0 0 0 3.125 14.376l-.33.13-.286-.791c-.038-.104-3.72-10.324-5.065-13.14-.451-.944-1.075-1.042-1.408-1.017-.406.033-.794.28-1.04.664-.265.417-.351.961-.252 1.577.423 2.618 3.094 13.067 3.12 13.173l2.244 9.54-4.994-3.772c-.33-.25-.643-.365-.928-.343z" opacity=".078" fill="url(#d)"/><path d="M18.03 41.916c-.665.051-1.09.847-1.253 1.514-.211.862-.145 2.041.665 2.77 1.335 1.198 3.09 3.215 4.786 5.165 1.497 1.723 3.041 3.423 4.207 4.527 1.738 1.642 4.057 1.756 5.698 1.629h.001c4.22-.326 8.464-2.856 9.972-5.088.363-.536.551-.994.513-1.332-.429-3.802-1.152-9.164-1.461-11.464l-.06-.438c-.128-.945-3.329-17.132-4.937-16.384-1.971.918-.272 3.774.526 11.36.01.1-.252.18-.364.164-.843-.106-3.83-15.452-6.05-14.74-2.566.826.16 6.932 1.659 14.716.069.362-.304.904-.416.526-.759-2.556-3.338-9.715-4.651-14.556-.406-1.492-1.149-2.511-1.775-2.375-.9.198-1.638 1.766-1.246 3.61a1029.355 1245.233 0 0 0 3.125 14.375l-.33.13-.286-.792c-.038-.103-3.72-10.323-5.065-13.14-.451-.944-1.075-1.042-1.407-1.015-.407.031-.795.279-1.04.663-.265.416-.352.96-.253 1.576.423 2.618 3.094 13.068 3.12 13.174l2.244 9.54-4.993-3.772c-.332-.25-.644-.365-.929-.343z" opacity=".5" fill="url(#e)"/><path d="M34.656 38.236c-.665.014-1.12.787-1.308 1.444-.243.849-.222 2.032.561 2.803 1.289 1.27 2.966 3.38 4.587 5.423 1.43 1.803 2.909 3.587 4.033 4.754 1.674 1.736 3.985 1.978 5.63 1.94h.003c4.226-.094 8.561-2.389 10.152-4.534.38-.515.587-.964.562-1.302-.285-3.822-.808-9.22-1.03-11.534l-.043-.44c-.092-.952-2.68-17.298-4.316-16.639-2.003.808-.414 3.755.098 11.378.008.101-.257.164-.37.144-.836-.153-3.245-15.647-5.488-15.057-2.596.682-.102 6.932 1.103 14.791.056.364-.337.887-.434.5-.663-2.593-2.97-9.887-4.1-14.794-.35-1.514-1.053-2.571-1.684-2.469-.907.147-1.704 1.671-1.38 3.536.601 3.467 1.507 8.684 2.581 14.532l-.336.112-.255-.807c-.033-.105-3.328-10.516-4.566-13.404-.415-.968-1.035-1.1-1.366-1.093a1.447 1.75 0 0 0-1.066.606c-.279.4-.388.94-.31 1.56.324 2.64 2.598 13.226 2.621 13.332l1.884 9.654-4.847-4.044c-.322-.266-.63-.4-.915-.392z" opacity=".105" fill="url(#f)"/><path d="M29.079 38.034c-.667.015-1.121.787-1.31 1.444-.242.849-.222 2.032.561 2.802 1.289 1.27 2.966 3.381 4.587 5.424 1.43 1.803 2.909 3.587 4.034 4.754 1.673 1.735 3.984 1.978 5.63 1.94h.001c4.227-.095 8.562-2.388 10.153-4.534.381-.516.586-.964.562-1.302-.285-3.823-.807-9.219-1.03-11.534l-.043-.44c-.092-.952-2.68-17.298-4.315-16.638-2.004.807-.414 3.754.097 11.377.008.101-.257.164-.37.144-.836-.154-3.244-15.648-5.488-15.057-2.596.683-.103 6.932 1.103 14.79.056.366-.336.888-.435.502-.662-2.594-2.97-9.887-4.1-14.795-.348-1.514-1.051-2.572-1.683-2.47-.907.148-1.703 1.673-1.38 3.537.601 3.468 1.508 8.684 2.581 14.532l-.335.112-.256-.807c-.033-.105-3.327-10.516-4.566-13.405-.415-.968-1.035-1.1-1.366-1.092a1.447 1.75 0 0 0-1.066.606c-.28.4-.387.94-.31 1.561.324 2.638 2.598 13.224 2.621 13.332l1.884 9.652-4.847-4.042c-.323-.267-.63-.4-.914-.393z" opacity=".5" fill="url(#g)"/><path d="M23.37 39.049c-.665.065-1.08.87-1.232 1.54-.199.866-.118 2.044.703 2.754 1.35 1.172 3.133 3.152 4.856 5.07 1.52 1.691 3.088 3.36 4.27 4.44 1.76 1.608 4.078 1.674 5.719 1.515h.002c4.213-.413 8.421-3.028 9.9-5.289.353-.543.535-1.005.494-1.342-.481-3.793-1.278-9.14-1.62-11.434l-.066-.438c-.14-.94-3.563-17.06-5.162-16.28-1.958.957-.22 3.779.683 11.348.011.1-.248.184-.362.171-.844-.09-4.042-15.373-6.25-14.615-2.557.877.253 6.927 1.859 14.68.074.36-.29.91-.409.534-.794-2.542-3.47-9.646-4.85-14.46-.427-1.485-1.183-2.487-1.808-2.338-.896.215-1.615 1.796-1.195 3.633a1029.357 1245.235 0 0 0 3.321 14.31l-.329.137-.296-.787c-.038-.101-3.86-10.245-5.245-13.034-.464-.936-1.089-1.02-1.42-.988a1.447 1.75 0 0 0-1.032.685c-.259.421-.338.967-.23 1.58.459 2.61 3.273 13.004 3.3 13.11l2.376 9.493-5.044-3.67c-.336-.244-.65-.351-.934-.325z" fill="url(#h)"/><path d="M56.697 11.163H15.303a4.14 5.229 0 0 0-4.14 5.229v39.216a4.14 5.229 0 0 0 4.14 5.229h41.394a4.14 5.229 0 0 0 4.14-5.229V16.392a4.14 5.229 0 0 0-4.14-5.229z" opacity=".5" fill="none" stroke="#fff" stroke-width="2.326"/></svg>