<svg xmlns="http://www.w3.org/2000/svg" xmlns:xlink="http://www.w3.org/1999/xlink" width="72" height="72"><defs><linearGradient id="a"><stop offset="0" stop-color="#fff"/><stop offset="1" stop-color="#fff" stop-opacity="0"/></linearGradient><linearGradient gradientTransform="translate(-6.845 -9.019) scale(1.35412)" xlink:href="#a" id="b" x1="23.158" y1="19.806" x2="64.347" y2="65.061" gradientUnits="userSpaceOnUse"/></defs><path d="M56.697 11.163H15.303a4.14 5.229 0 0 0-4.14 5.229v39.216a4.14 5.229 0 0 0 4.14 5.229h41.394a4.14 5.229 0 0 0 4.14-5.229V16.392a4.14 5.229 0 0 0-4.14-5.229z" opacity=".5" fill="none" stroke="#fff" stroke-width="2.326"/><path d="M16.572 45.008c.086-.601-.162-1.536.114-1.943 3.189-.07 6.405.192 9.57-.244 1.065-.383 4.95-4.184 6.058-2.781.708.507 1.399 1.038 2.099 1.557-1.038 1.469-5.985 4.713-7.625 5.355H16.572z" opacity=".5" fill="#fff"/><path d="M35.055 56.431c1.224-3.659 2.112-7.16 2.999-10.922-.46-1.92-2.2-2.607-3.557-3.973-1.646-1.196-3.673-2.628-3.524-4.924.59-2.646 2.397-4.82 3.58-7.221.722-1.107 2.045-2.17.053-2.297-1.367.607-5.816 3.86-8.815 5.101-.338-.625-2.757-3.745-.804-4.783 2.954-1.566 4.986-3.117 8.528-4.776a21.94 21.94 0 0 1 8.859 3.57c1.672 1.15 2.05 2.673.121 5.917-.677 1.14-1.59 2.877-2.352 4.111l-1.28 2.269c1.666 1.828 2.5 2.721 3.714 4.903 1.13 3.108-.759 6.127-1.762 8.987l-1.584 4.008c-1.391.018-2.791.15-4.176.03z" fill="url(#b)"/><path d="M42.326 23.624c-3.093-1.124-3.419-5.959-.502-7.486 2.364-1.533 5.892-.068 6.348 2.753.77 3.197-2.861 6.186-5.846 4.733z" fill="#fff"/><path d="M44.087 28.471c2.077 1.514 3.295 2.148 5.537 3.415.87.275 4.576.423 5.24 1.178.464.527.39 1.35.585 2.024-1.381.433-6.138.097-7.502-.294-1.506-1.157-4.663-2.52-4.516-3.467.179-1.15.466-1.319.656-2.856z" opacity=".5" fill="#fff"/></svg>