<?xml version="1.0" encoding="UTF-8" standalone="no"?>
<svg
   xmlns:dc="http://purl.org/dc/elements/1.1/"
   xmlns:cc="http://creativecommons.org/ns#"
   xmlns:rdf="http://www.w3.org/1999/02/22-rdf-syntax-ns#"
   xmlns:svg="http://www.w3.org/2000/svg"
   xmlns="http://www.w3.org/2000/svg"
   xmlns:xlink="http://www.w3.org/1999/xlink"
   xmlns:sodipodi="http://sodipodi.sourceforge.net/DTD/sodipodi-0.dtd"
   xmlns:inkscape="http://www.inkscape.org/namespaces/inkscape"
   width="72"
   height="72"
   version="1.1"
   id="svg959"
   sodipodi:docname="icon-m-scene_mode_ar.svg"
   inkscape:version="0.92.4 (5da689c313, 2019-01-14)">
  <metadata
     id="metadata963">
    <rdf:RDF>
      <cc:Work
         rdf:about="">
        <dc:format>image/svg+xml</dc:format>
        <dc:type
           rdf:resource="http://purl.org/dc/dcmitype/StillImage" />
        <dc:title></dc:title>
      </cc:Work>
    </rdf:RDF>
  </metadata>
  <sodipodi:namedview
     pagecolor="#ffffff"
     bordercolor="#666666"
     borderopacity="1"
     objecttolerance="10"
     gridtolerance="10"
     guidetolerance="10"
     inkscape:pageopacity="0"
     inkscape:pageshadow="2"
     inkscape:window-width="1876"
     inkscape:window-height="1055"
     id="namedview961"
     showgrid="false"
     inkscape:pagecheckerboard="true"
     inkscape:zoom="7.375"
     inkscape:cx="48.021874"
     inkscape:cy="31.2735"
     inkscape:window-x="44"
     inkscape:window-y="0"
     inkscape:window-maximized="1"
     inkscape:current-layer="svg959" />
  <defs
     id="defs947">
    <linearGradient
       id="c">
      <stop
         offset="0"
         stop-color="#fff"
         id="stop929" />
      <stop
         offset="1"
         stop-color="#fff"
         stop-opacity="0"
         id="stop931" />
    </linearGradient>
    <linearGradient
       id="b">
      <stop
         offset="0"
         stop-color="#fff"
         id="stop934" />
      <stop
         offset="1"
         stop-color="#fff"
         stop-opacity="0"
         id="stop936" />
    </linearGradient>
    <linearGradient
       id="a">
      <stop
         offset="0"
         stop-color="#fff"
         id="stop939" />
      <stop
         offset="1"
         stop-color="#fff"
         stop-opacity="0"
         id="stop941" />
    </linearGradient>
    <linearGradient
       xlink:href="#a"
       id="e"
       x1="124.165"
       y1="54.444"
       x2="84.627998"
       y2="84.924004"
       gradientUnits="userSpaceOnUse" />
    <linearGradient
       xlink:href="#b"
       id="d"
       x1="86.614998"
       y1="106.623"
       x2="125.752"
       y2="149.841"
       gradientUnits="userSpaceOnUse" />
    <linearGradient
       xlink:href="#c"
       id="f"
       x1="-146.5"
       y1="253.369"
       x2="-127.956"
       y2="234.838"
       gradientUnits="userSpaceOnUse"
       gradientTransform="matrix(0.9836,-0.2858,0.9836,0.2858,-3.017,-0.36)" />
  </defs>
  <path
     d="M 56.697421,11.163095 H 15.302578 a 4.1394841,5.228822 0 0 0 -4.139484,5.228824 v 39.216164 a 4.1394841,5.228822 0 0 0 4.139484,5.228823 h 41.394843 a 4.1394841,5.228822 0 0 0 4.139484,-5.228823 V 16.391919 a 4.1394841,5.228822 0 0 0 -4.139484,-5.228824 z"
     id="path949"
     inkscape:connector-curvature="0"
     style="opacity:0.5;fill:none;stroke:#ffffff;stroke-width:2.32618928" />
  <g
     id="g957"
     style="stroke-width:1.09500003"
     transform="matrix(1.034871,0,0,1.3072055,2.8841268,-5.8305759)">
    <path
       d="m 97.7,108.116 h 8.504 v 11.186 h -8.505 z m -8.505,0 h 8.504 v 11.186 h -8.504 z m 8.504,11.186 h 8.505 v 11.187 h -8.505 z m -8.504,0 h 8.504 v 11.187 h -8.504 z"
       transform="matrix(0.87851,-0.25114,0,0.91358,-61.285,-54.592)"
       id="path951"
       inkscape:connector-curvature="0"
       style="fill:none;stroke:url(#d);stroke-width:2.23200011;stroke-linejoin:round" />
    <path
       d="m 114.708,49.726 h 8.504 v 11.186 h -8.504 z m -8.504,0 h 8.504 v 11.186 h -8.504 z m 8.504,11.186 h 8.504 v 11.186 h -8.504 z m -8.504,0 h 8.504 v 11.186 h -8.504 z"
       transform="matrix(0.87851,0.25114,0,0.91358,-61.285,-54.592)"
       id="path953"
       inkscape:connector-curvature="0"
       style="fill:none;stroke:url(#e);stroke-width:2.23200011;stroke-linejoin:round" />
    <path
       d="m 110.232,103.599 -8.158,2.37 -8.158,-2.37 m 0,0 8.158,2.37 -8.158,2.37 -8.157,-2.37 m 32.63,0 -8.157,2.37 -8.158,-2.37 8.158,-2.37 m -16.316,4.74 8.158,-2.37 8.158,2.37 -8.158,2.37 z"
       transform="matrix(0.91371,0,0,0.91358,-61.285,-54.592)"
       id="path955"
       inkscape:connector-curvature="0"
       style="opacity:0.8;fill:none;stroke:url(#f);stroke-width:2.18899989;stroke-linecap:round;stroke-linejoin:round" />
  </g>
</svg>
