<svg xmlns="http://www.w3.org/2000/svg" xmlns:xlink="http://www.w3.org/1999/xlink" width="72" height="72"><defs><linearGradient id="c"><stop offset="0" stop-color="#fff" stop-opacity=".67"/><stop offset=".5" stop-color="#fff" stop-opacity=".796"/><stop offset="1" stop-color="#fff" stop-opacity=".625"/></linearGradient><linearGradient id="b"><stop offset="0" stop-color="#fff"/><stop offset="1" stop-color="#fff" stop-opacity="0"/></linearGradient><linearGradient id="a"><stop offset="0" stop-color="#fff"/><stop offset="1" stop-color="#fff" stop-opacity="0"/></linearGradient><linearGradient xlink:href="#a" id="f" x1="39.421" y1="106.073" x2="27.931" y2="105.631" gradientUnits="userSpaceOnUse" gradientTransform="matrix(-1.03487 0 0 1.3072 86.421 -92.953)"/><linearGradient xlink:href="#b" id="d" x1="6.187" y1="105.631" x2="32.704" y2="106.78" gradientUnits="userSpaceOnUse" gradientTransform="matrix(-1.03487 0 0 1.3072 35.746 -92.953)"/><linearGradient xlink:href="#c" id="e" x1="21.505" y1="107.212" x2="28.543" y2="107.124" gradientUnits="userSpaceOnUse" gradientTransform="matrix(-1.03487 0 0 1.3072 60.444 -92.953)"/></defs><path d="M56.697 11.163H15.303a4.14 5.229 0 0 0-4.14 5.229v39.216a4.14 5.229 0 0 0 4.14 5.229h41.394a4.14 5.229 0 0 0 4.14-5.229V16.392a4.14 5.229 0 0 0-4.14-5.229z" opacity=".5" fill="none" stroke="#fff" stroke-width="2.326"/><path style="line-height:normal;font-variant-ligatures:normal;font-variant-position:normal;font-variant-caps:normal;font-variant-numeric:normal;font-variant-alternates:normal;font-feature-settings:normal;text-indent:0;text-align:start;text-decoration-line:none;text-decoration-style:solid;text-decoration-color:#fff;text-transform:none;text-orientation:mixed;white-space:normal;shape-padding:0;isolation:auto;mix-blend-mode:normal;solid-color:#fff;solid-opacity:1" d="M25.28 37.456a1.035 1.307 0 0 1 .991 1.294l.117 17.331a1.035 1.307 0 0 1-1.035 1.318h-5.212a1.035 1.307 0 0 1-1.035-1.297l-.091-16.966a1.035 1.307 0 0 1 .976-1.315l5.186-.366a1.007 1.272 0 0 1 .104 0z" font-weight="400" overflow="visible" color="#fff" font-family="sans-serif" fill="url(#d)" paint-order="stroke fill markers"/><path d="M25.994 30.327c0 2.712-1.31 4.91-2.927 4.91-1.616 0-2.927-2.198-2.927-4.91 0-2.713.67-14.27 2.287-14.27 1.707 8.897 3.567 11.557 3.567 14.27zm6.524.68c.184 1.754 1.332 3.053 2.562 2.904 1.231-.149 2.078-1.691 1.894-3.444-.186-1.752-1.484-9.16-2.715-9.011-.693 5.909-1.927 7.8-1.741 9.552z" opacity=".8" fill="#fff" paint-order="stroke fill markers"/><path style="line-height:normal;font-variant-ligatures:normal;font-variant-position:normal;font-variant-caps:normal;font-variant-numeric:normal;font-variant-alternates:normal;font-feature-settings:normal;text-indent:0;text-align:start;text-decoration-line:none;text-decoration-style:solid;text-decoration-color:#fff;text-transform:none;text-orientation:mixed;white-space:normal;shape-padding:0;isolation:auto;mix-blend-mode:normal;solid-color:#fff;solid-opacity:1" d="M36.815 36.99a1.035 1.307 0 0 1 1.006 1.282l.276 17.794a1.035 1.307 0 0 1-1.035 1.333h-4.025a1.035 1.307 0 0 1-1.035-1.307V38.646a1.035 1.307 0 0 1 .96-1.305l3.75-.345a1.008 1.273 0 0 1 .103-.005z" font-weight="400" overflow="visible" color="#fff" font-family="sans-serif" fill="url(#e)" paint-order="stroke fill markers"/><path style="line-height:normal;font-variant-ligatures:normal;font-variant-position:normal;font-variant-caps:normal;font-variant-numeric:normal;font-variant-alternates:normal;font-feature-settings:normal;text-indent:0;text-align:start;text-decoration-line:none;text-decoration-style:solid;text-decoration-color:#fff;text-transform:none;text-orientation:mixed;white-space:normal;shape-padding:0;isolation:auto;mix-blend-mode:normal;solid-color:#fff;solid-opacity:1" d="M49.987 37.801a1.035 1.307 0 0 1 1.007 1.297l.091 16.986a1.035 1.307 0 0 1-1.035 1.315h-4.024a1.035 1.307 0 0 1-1.035-1.315l.091-16.64a1.035 1.307 0 0 1 .962-1.294l3.84-.346a.899.899 0 0 1 .103-.003z" font-weight="400" overflow="visible" color="#fff" font-family="sans-serif" fill="url(#f)" paint-order="stroke fill markers"/><path d="M51.883 30.54c-.202 2.7-1.671 4.732-3.28 4.538-1.61-.192-2.75-2.536-2.547-5.236.203-2.7 2.007-8.696 3.342-13.934 2.59 6.75 2.688 11.931 2.485 14.632z" opacity=".8" fill="#fff" paint-order="stroke fill markers"/></svg>