<?xml version="1.0" encoding="UTF-8" standalone="no"?>
<svg
   xmlns:dc="http://purl.org/dc/elements/1.1/"
   xmlns:cc="http://creativecommons.org/ns#"
   xmlns:rdf="http://www.w3.org/1999/02/22-rdf-syntax-ns#"
   xmlns:svg="http://www.w3.org/2000/svg"
   xmlns="http://www.w3.org/2000/svg"
   xmlns:xlink="http://www.w3.org/1999/xlink"
   xmlns:sodipodi="http://sodipodi.sourceforge.net/DTD/sodipodi-0.dtd"
   xmlns:inkscape="http://www.inkscape.org/namespaces/inkscape"
   width="72"
   height="72"
   version="1.1"
   id="svg4819"
   sodipodi:docname="icon-m-scene_mode_fireworks.svg"
   inkscape:version="0.92.4 (5da689c313, 2019-01-14)">
  <metadata
     id="metadata4823">
    <rdf:RDF>
      <cc:Work
         rdf:about="">
        <dc:format>image/svg+xml</dc:format>
        <dc:type
           rdf:resource="http://purl.org/dc/dcmitype/StillImage" />
        <dc:title></dc:title>
      </cc:Work>
    </rdf:RDF>
  </metadata>
  <sodipodi:namedview
     pagecolor="#ffffff"
     bordercolor="#666666"
     borderopacity="1"
     objecttolerance="10"
     gridtolerance="10"
     guidetolerance="10"
     inkscape:pageopacity="0"
     inkscape:pageshadow="2"
     inkscape:window-width="1876"
     inkscape:window-height="1055"
     id="namedview4821"
     showgrid="false"
     inkscape:pagecheckerboard="true"
     inkscape:zoom="10.429825"
     inkscape:cx="9.2536406"
     inkscape:cy="33.116878"
     inkscape:window-x="44"
     inkscape:window-y="0"
     inkscape:window-maximized="1"
     inkscape:current-layer="svg4819" />
  <defs
     id="defs4789">
    <linearGradient
       id="e">
      <stop
         offset="0"
         stop-color="#fff"
         id="stop4761" />
      <stop
         offset="1"
         stop-color="#fff"
         stop-opacity="0"
         id="stop4763" />
    </linearGradient>
    <linearGradient
       id="d">
      <stop
         offset="0"
         stop-color="#fff"
         id="stop4766" />
      <stop
         offset="1"
         stop-color="#fff"
         stop-opacity="0"
         id="stop4768" />
    </linearGradient>
    <linearGradient
       id="c">
      <stop
         offset="0"
         stop-color="#fff"
         id="stop4771" />
      <stop
         offset="1"
         stop-color="#fff"
         stop-opacity="0"
         id="stop4773" />
    </linearGradient>
    <linearGradient
       id="b">
      <stop
         offset="0"
         stop-color="#fff"
         id="stop4776" />
      <stop
         offset="1"
         stop-color="#fff"
         stop-opacity="0"
         id="stop4778" />
    </linearGradient>
    <linearGradient
       id="a">
      <stop
         offset="0"
         stop-color="#fff"
         id="stop4781" />
      <stop
         offset="1"
         stop-color="#fff"
         stop-opacity="0"
         id="stop4783" />
    </linearGradient>
    <linearGradient
       xlink:href="#c"
       id="f"
       x1="22.252001"
       y1="24.271"
       x2="25.813"
       y2="55.125"
       gradientUnits="userSpaceOnUse"
       gradientTransform="matrix(1.034871,0,0,1.3072055,2.8841267,-5.830576)" />
    <linearGradient
       xlink:href="#d"
       id="h"
       x1="35.313"
       y1="26.562"
       x2="29.75"
       y2="52.563"
       gradientUnits="userSpaceOnUse"
       gradientTransform="matrix(1.034871,0,0,1.3072055,2.8841267,-5.830576)" />
    <linearGradient
       xlink:href="#e"
       id="g"
       x1="43.813"
       y1="33.625"
       x2="30.625"
       y2="55.438"
       gradientUnits="userSpaceOnUse"
       gradientTransform="matrix(1.034871,0,0,1.3072055,1.8492558,-4.686771)" />
  </defs>
  <path
     d="M 56.697421,11.163095 H 15.302578 a 4.1394841,5.228822 0 0 0 -4.139484,5.228824 v 39.216164 a 4.1394841,5.228822 0 0 0 4.139484,5.228823 h 41.394843 a 4.1394841,5.228822 0 0 0 4.139484,-5.228823 V 16.391919 a 4.1394841,5.228822 0 0 0 -4.139484,-5.228824 z"
     id="path4791"
     inkscape:connector-curvature="0"
     style="opacity:0.5;fill:none;stroke:#ffffff;stroke-width:2.32618928" />
  <path
     d="m 32.955408,49.813241 c -1.766524,-14.721747 -7.043331,-23.91663 -7.043331,-23.91663 -0.542272,1.363414 -1.405355,1.916361 -2.287065,2.426172 0,0 5.968101,11.817137 8.233433,20.566264 0.863083,3.334681 1.743759,6.311188 1.096963,0.924194 z"
     id="path4793"
     style="opacity:0.7;fill:url(#f);fill-rule:evenodd;stroke-width:1.16309464"
     inkscape:connector-curvature="0" />
  <path
     d="m 37.343263,54.66036 c 3.215344,-14.326973 9.362477,-22.612042 9.362477,-22.612042 0.402566,1.437927 1.204592,2.124209 2.028348,2.768662 0,0 -7.094042,10.779217 -10.210039,19.100887 -1.18803,3.17128 -2.357436,5.984386 -1.180786,0.742493 z"
     id="path4795"
     style="opacity:0.7;fill:url(#g);fill-rule:evenodd;stroke-width:1.16309464"
     inkscape:connector-curvature="0" />
  <path
     d="m 35.476354,51.083845 c 3.092196,-14.817174 4.035998,-25.004227 4.035998,-25.004227 -1.031767,0.79478 -1.997301,0.68759 -2.956627,0.532032 0,0 -0.680945,12.23283 -1.624747,22.954529 -0.306322,3.486318 -0.554691,6.784397 0.545376,1.516358 z"
     id="path4797"
     style="opacity:0.7;fill:url(#h);fill-rule:evenodd;stroke-width:1.16309464"
     inkscape:connector-curvature="0" />
  <g
     id="g4801"
     style="opacity:0.775;fill:none;stroke:#ffffff;stroke-width:1.12399995;stroke-linecap:round"
     transform="matrix(1.034871,0,0,1.3072055,2.8841268,-5.8305759)">
    <path
       d="m 48.35,17.956 -3.223,3.222 m 1.611,-3.89 v 4.558 m 2.279,-2.279 H 44.46 m 3.89,1.611 -3.223,-3.222"
       transform="matrix(1.77901,0,0,1.77901,-37.098,-10.333)"
       id="path4799"
       inkscape:connector-curvature="0" />
  </g>
  <g
     id="g4805"
     style="opacity:0.88200001;fill:none;stroke:#ffffff;stroke-width:0.89600003;stroke-linecap:round"
     transform="matrix(1.034871,0,0,1.3072055,2.8841268,-5.8305759)">
    <path
       d="m 43.246,26.138 -3.222,3.222 m 1.611,-3.89 v 4.558 m 2.279,-2.279 h -4.558 m 3.89,1.611 -3.222,-3.222"
       transform="matrix(1.12169,0,0,1.10948,-13.169,-10.114)"
       id="path4803"
       inkscape:connector-curvature="0" />
  </g>
  <g
     id="g4809"
     style="opacity:0.80899999;fill:none;stroke:#ffffff;stroke-width:0.93099999;stroke-linecap:round"
     transform="matrix(1.034871,0,0,1.3072055,2.8841268,-5.8305759)">
    <path
       d="m 51.547,27.602 -3.223,3.223 m 1.611,-3.89 v 4.557 m 2.279,-2.278 h -4.557 m 3.89,1.611 -3.223,-3.223"
       transform="matrix(1.07953,0,0,1.06778,-36.643,9.426)"
       id="path4807"
       inkscape:connector-curvature="0" />
  </g>
  <g
     id="g4813"
     style="opacity:0.7;fill:none;stroke:#ffffff;stroke-width:1.01600003;stroke-linecap:round"
     transform="matrix(1.034871,0,0,1.3072055,2.8841268,-5.8305759)">
    <path
       d="m 46.413,45.789 -0.131,-2.801 m 1.102,2.344 -2.073,-1.888 m 0.092,1.981 1.888,-2.074 m -2.344,1.103 2.801,-0.131"
       id="path4811"
       inkscape:connector-curvature="0"
       style="stroke-width:0.62519562" />
  </g>
  <g
     id="g4817"
     style="opacity:0.778;fill:none;stroke:#ffffff;stroke-width:1.32599998;stroke-linecap:round"
     transform="matrix(1.034871,0,0,1.3072055,2.8841268,-5.8305759)">
    <path
       d="m 51.547,27.602 -3.223,3.223 m 1.611,-3.89 v 4.557 m 2.279,-2.278 h -4.557 m 3.89,1.611 -3.223,-3.223"
       transform="matrix(-1.0154,1.11512,-1.11512,-1.0154,100.86,-4.879)"
       id="path4815"
       inkscape:connector-curvature="0" />
  </g>
</svg>
