<svg xmlns="http://www.w3.org/2000/svg" xmlns:xlink="http://www.w3.org/1999/xlink" width="64" height="64"><defs><linearGradient id="c"><stop offset="0" stop-color="#fff"/><stop offset="1" stop-color="#fff" stop-opacity="0"/></linearGradient><linearGradient id="b"><stop offset="0" stop-color="#fff"/><stop offset="1" stop-color="#fff" stop-opacity="0"/></linearGradient><linearGradient id="a"><stop offset="0" stop-color="#fff"/><stop offset="1" stop-color="#fff" stop-opacity="0"/></linearGradient><linearGradient xlink:href="#a" id="e" x1="12.29" y1="22.068" x2="30.327" y2="20.806" gradientUnits="userSpaceOnUse" gradientTransform="matrix(.81162 .1 -.1 .81162 6.621 7.857)"/><linearGradient xlink:href="#b" id="g" x1="56.194" y1="23.027" x2="37.424" y2="24.136" gradientUnits="userSpaceOnUse" gradientTransform="scale(.81776) rotate(-15.154 82.145 22.225)"/><linearGradient xlink:href="#b" id="d" x1="12.29" y1="22.068" x2="30.327" y2="20.806" gradientUnits="userSpaceOnUse" gradientTransform="matrix(.81162 .1 -.1 .81162 2.804 8.085)"/><linearGradient xlink:href="#b" id="f" x1="56.194" y1="23.027" x2="37.424" y2="24.136" gradientUnits="userSpaceOnUse" gradientTransform="matrix(.78932 -.21378 .21378 .78932 2.976 18.354)"/><linearGradient xlink:href="#c" id="h" x1="40.077" y1="15.294" x2="42.858" y2="75.314" gradientUnits="userSpaceOnUse"/></defs><path d="M11.28 37.243c-.642.041-1.052.677-1.21 1.21-.203.688-.14 1.63.643 2.211 1.29.958 2.986 2.568 4.624 4.127 1.447 1.376 2.939 2.734 4.066 3.616 1.679 1.312 3.92 1.403 5.506 1.301h.001c4.077-.26 8.178-2.282 9.636-4.064.35-.428.532-.794.495-1.064-.413-3.037-1.113-7.32-1.412-9.158l-.058-.35c-.123-.754-3.216-13.685-4.77-13.086-1.905.732-.263 3.013.508 9.074.01.08-.243.142-.352.13-.813-.085-3.7-12.342-5.845-11.773-2.48.659.153 5.537 1.602 11.754.067.29-.293.723-.402.42-.733-2.041-3.225-7.76-4.494-11.626-.392-1.193-1.11-2.006-1.715-1.897-.87.158-1.583 1.41-1.204 2.882a994.67 994.67 0 0 0 3.02 11.483l-.32.104-.276-.632c-.036-.083-3.594-8.246-4.894-10.496-.436-.754-1.039-.832-1.36-.812-.393.026-.768.223-1.005.53-.256.333-.34.768-.244 1.26.409 2.091 2.99 10.438 3.015 10.522l2.168 7.62-4.825-3.012c-.32-.2-.622-.292-.897-.274z" opacity=".078" fill="url(#d)"/><path d="M15.099 37.014c-.643.041-1.053.677-1.211 1.21-.204.688-.14 1.63.643 2.212 1.29.957 2.985 2.568 4.624 4.126 1.447 1.376 2.939 2.734 4.066 3.616 1.679 1.312 3.92 1.403 5.506 1.301h.001c4.077-.26 8.178-2.281 9.636-4.064.35-.428.532-.794.495-1.064-.414-3.037-1.113-7.32-1.412-9.157l-.058-.35c-.123-.755-3.216-13.685-4.77-13.087-1.905.733-.263 3.014.508 9.074.01.08-.243.143-.352.131-.814-.085-3.7-12.343-5.845-11.774-2.48.66.153 5.537 1.602 11.755.067.289-.293.722-.402.42-.733-2.042-3.225-7.76-4.494-11.627-.392-1.192-1.11-2.006-1.715-1.897-.87.158-1.583 1.41-1.204 2.883a994.67 994.67 0 0 0 3.02 11.483l-.32.103-.276-.632c-.036-.082-3.594-8.246-4.894-10.496-.436-.754-1.039-.832-1.36-.811-.393.025-.768.223-1.005.53-.256.332-.34.767-.244 1.259.409 2.091 2.99 10.438 3.015 10.523l2.168 7.62-4.825-3.013c-.32-.2-.622-.291-.897-.274z" opacity=".5" fill="url(#e)"/><path d="M31.165 34.075c-.643.011-1.082.628-1.264 1.153-.235.678-.215 1.623.542 2.239 1.245 1.015 2.866 2.7 4.432 4.332 1.382 1.44 2.811 2.865 3.897 3.797 1.618 1.387 3.851 1.58 5.44 1.55h.003c4.084-.075 8.273-1.908 9.81-3.622.368-.411.567-.77.543-1.04-.275-3.053-.78-7.364-.995-9.213l-.042-.352c-.088-.76-2.59-13.817-4.17-13.29-1.936.645-.4 2.999.095 9.088.007.081-.249.131-.358.115-.808-.122-3.136-12.498-5.303-12.027-2.509.545-.099 5.537 1.066 11.815.054.291-.326.708-.42.4-.64-2.072-2.87-7.898-3.962-11.818-.337-1.209-1.017-2.054-1.627-1.972-.876.117-1.646 1.335-1.333 2.824.581 2.77 1.456 6.937 2.494 11.608l-.325.09-.246-.645c-.032-.084-3.216-8.4-4.412-10.707-.401-.773-1-.878-1.32-.873a1.398 1.398 0 0 0-1.03.484c-.27.32-.375.751-.3 1.247.313 2.108 2.511 10.564 2.533 10.649l1.82 7.711-4.683-3.23c-.312-.213-.609-.319-.885-.313z" opacity=".105" fill="url(#f)"/><path d="M25.775 33.913c-.644.012-1.083.629-1.265 1.154-.234.678-.215 1.623.542 2.238 1.245 1.015 2.866 2.701 4.432 4.333 1.382 1.44 2.811 2.865 3.898 3.797 1.617 1.386 3.85 1.58 5.44 1.55h.002c4.084-.076 8.273-1.908 9.81-3.622.369-.412.567-.77.543-1.04-.275-3.054-.779-7.364-.995-9.213l-.041-.352c-.089-.76-2.59-13.817-4.17-13.29-1.937.645-.4 2.999.094 9.088.007.081-.249.131-.357.115-.809-.123-3.136-12.499-5.304-12.027-2.508.545-.099 5.537 1.066 11.814.054.292-.325.709-.42.401-.64-2.072-2.87-7.898-3.962-11.818-.337-1.21-1.016-2.055-1.627-1.973-.876.118-1.645 1.336-1.333 2.825.581 2.77 1.457 6.937 2.494 11.608l-.324.089-.247-.644c-.032-.084-3.215-8.4-4.412-10.708-.401-.773-1-.878-1.32-.872a1.398 1.398 0 0 0-1.03.484c-.27.32-.374.75-.3 1.247.313 2.107 2.511 10.563 2.533 10.649l1.82 7.71-4.683-3.229c-.312-.213-.609-.319-.884-.314z" opacity=".5" fill="url(#g)"/><path d="M20.258 34.724c-.642.052-1.042.695-1.19 1.23-.192.692-.114 1.633.68 2.2 1.305.936 3.027 2.518 4.692 4.05 1.469 1.351 2.984 2.684 4.126 3.547 1.7 1.284 3.941 1.337 5.526 1.21h.002c4.071-.33 8.138-2.419 9.566-4.225.342-.434.518-.803.478-1.072-.465-3.03-1.235-7.301-1.566-9.133l-.063-.35c-.136-.751-3.443-13.628-4.988-13.004-1.892.764-.212 3.018.66 9.064.011.08-.24.147-.35.137-.815-.072-3.906-12.28-6.04-11.674-2.47.7.245 5.533 1.797 11.725.072.288-.28.727-.395.427-.767-2.03-3.354-7.705-4.687-11.55-.412-1.186-1.143-1.987-1.747-1.868-.866.172-1.56 1.435-1.155 2.902a994.672 994.672 0 0 0 3.21 11.431l-.318.109-.286-.628c-.037-.081-3.731-8.184-5.069-10.412-.448-.747-1.052-.815-1.372-.789a1.398 1.398 0 0 0-.997.547c-.25.337-.327.773-.223 1.263.444 2.084 3.163 10.387 3.19 10.471l2.295 7.583-4.874-2.932c-.324-.194-.627-.28-.902-.259z" fill="url(#h)"/><path d="M52 13H12a4 4 0 0 0-4 4v30a4 4 0 0 0 4 4h40a4 4 0 0 0 4-4V17a4 4 0 0 0-4-4z" opacity=".5" fill="none" stroke="#fff" stroke-width="2"/></svg>