<?xml version="1.0" encoding="UTF-8" standalone="no"?>
<svg
   xmlns:dc="http://purl.org/dc/elements/1.1/"
   xmlns:cc="http://creativecommons.org/ns#"
   xmlns:rdf="http://www.w3.org/1999/02/22-rdf-syntax-ns#"
   xmlns:svg="http://www.w3.org/2000/svg"
   xmlns="http://www.w3.org/2000/svg"
   xmlns:xlink="http://www.w3.org/1999/xlink"
   xmlns:sodipodi="http://sodipodi.sourceforge.net/DTD/sodipodi-0.dtd"
   xmlns:inkscape="http://www.inkscape.org/namespaces/inkscape"
   width="72"
   height="72"
   version="1.1"
   id="svg7977"
   sodipodi:docname="icon-m-scene_mode_night.svg"
   inkscape:version="0.92.4 (5da689c313, 2019-01-14)">
  <metadata
     id="metadata7981">
    <rdf:RDF>
      <cc:Work
         rdf:about="">
        <dc:format>image/svg+xml</dc:format>
        <dc:type
           rdf:resource="http://purl.org/dc/dcmitype/StillImage" />
        <dc:title></dc:title>
      </cc:Work>
    </rdf:RDF>
  </metadata>
  <sodipodi:namedview
     pagecolor="#ffffff"
     bordercolor="#666666"
     borderopacity="1"
     objecttolerance="10"
     gridtolerance="10"
     guidetolerance="10"
     inkscape:pageopacity="0"
     inkscape:pageshadow="2"
     inkscape:window-width="1876"
     inkscape:window-height="1055"
     id="namedview7979"
     showgrid="false"
     inkscape:pagecheckerboard="true"
     inkscape:zoom="10.429825"
     inkscape:cx="56.945479"
     inkscape:cy="34.030308"
     inkscape:window-x="44"
     inkscape:window-y="0"
     inkscape:window-maximized="1"
     inkscape:current-layer="svg7977" />
  <defs
     id="defs7947">
    <linearGradient
       id="a">
      <stop
         offset="0"
         stop-color="#fff"
         id="stop7941" />
      <stop
         offset="1"
         stop-color="#fff"
         stop-opacity="0"
         id="stop7943" />
    </linearGradient>
    <linearGradient
       xlink:href="#a"
       id="b"
       x1="26.860001"
       y1="21.958"
       x2="-9.75"
       y2="59"
       gradientUnits="userSpaceOnUse"
       gradientTransform="matrix(1.034871,0,0,1.3072055,2.8841254,-5.8305774)" />
  </defs>
  <path
     d="m 22.83023,33.508467 c 0,8.500757 4.428213,10.894252 8.437305,11.70864 a 9.8478332,12.439369 0 0 1 -4.715908,1.509823 9.8918188,12.494925 0 1 1 0,-24.98985 c 1.473655,0 2.872801,0.405233 4.129135,1.137269 -3.347807,0.819618 -7.850532,2.271924 -7.850532,10.634118 z"
     id="path7949"
     style="fill:url(#b);stroke-width:1.16309464"
     inkscape:connector-curvature="0" />
  <path
     d="M 56.697421,11.163095 H 15.302578 a 4.1394843,5.2288222 0 0 0 -4.139484,5.228823 v 39.216166 a 4.1394843,5.2288222 0 0 0 4.139484,5.228822 h 41.394843 a 4.1394843,5.2288222 0 0 0 4.139484,-5.228822 V 16.391918 a 4.1394843,5.2288222 0 0 0 -4.139484,-5.228823 z"
     id="path7951"
     inkscape:connector-curvature="0"
     style="opacity:0.5;fill:none;stroke:#ffffff;stroke-width:2.32618928" />
  <g
     id="g7955"
     style="fill:none;stroke:#ffffff;stroke-width:1.01600003;stroke-linecap:round"
     transform="matrix(1.034871,0,0,1.3072055,2.8841255,-5.8305776)">
    <path
       d="m 45.446,34.825 -1.983,1.983 m 0.991,-2.394 v 2.805 m 1.402,-1.403 h -2.804 m 2.394,0.992 -1.983,-1.983"
       id="path7953"
       inkscape:connector-curvature="0"
       style="stroke-width:0.62519562" />
  </g>
  <g
     id="g7959"
     style="fill:none;stroke:#ffffff;stroke-width:1.01600003;stroke-linecap:round"
     transform="matrix(1.034871,0,0,1.3072055,2.8841255,-5.8305776)">
    <path
       d="m 37.709,36.778 -1.67,1.67 m 0.835,-2.016 v 2.361 m 1.18,-1.18 h -2.36 m 2.015,0.834 -1.67,-1.67"
       id="path7957"
       inkscape:connector-curvature="0"
       style="stroke-width:0.52629817" />
  </g>
  <g
     id="g7963"
     style="fill:none;stroke:#ffffff;stroke-width:1.01600003;stroke-linecap:round"
     transform="matrix(1.034871,0,0,1.3072055,2.8841255,-5.8305776)">
    <path
       d="m 42.06,43.782 -1.607,1.607 m 0.803,-1.939 v 2.271 m 1.136,-1.136 H 40.12 m 1.94,0.804 -1.607,-1.607"
       id="path7961"
       inkscape:connector-curvature="0"
       style="stroke-width:0.50651664" />
  </g>
  <g
     id="g7967"
     style="fill:none;stroke:#ffffff;stroke-width:1.01600003;stroke-linecap:round"
     transform="matrix(1.034871,0,0,1.3072055,2.8841255,-5.8305776)">
    <path
       d="m 50.578,29.225 -0.132,-2.801 m 1.103,2.345 -2.074,-1.888 m 0.093,1.98 1.888,-2.073 m -2.345,1.102 2.802,-0.131"
       id="path7965"
       inkscape:connector-curvature="0"
       style="stroke-width:0.62519562" />
  </g>
  <g
     id="g7971"
     style="fill:none;stroke:#ffffff;stroke-width:1.01600003;stroke-linecap:round"
     transform="matrix(1.034871,0,0,1.3072055,2.8841255,-5.8305776)">
    <path
       d="m 46.564,22.19 -0.11,-2.359 m 0.928,1.974 -1.746,-1.59 m 0.079,1.668 1.589,-1.745 m -1.974,0.928 2.358,-0.11"
       id="path7969"
       inkscape:connector-curvature="0"
       style="stroke-width:0.52629817" />
  </g>
  <g
     id="g7975"
     style="fill:none;stroke:#ffffff;stroke-width:1.01600003;stroke-linecap:round"
     transform="matrix(1.034871,0,0,1.3072055,2.8841255,-5.8305776)">
    <path
       d="M 38.456,20.69 38.35,18.421 m 0.893,1.899 -1.68,-1.529 m 0.075,1.605 1.53,-1.68 m -1.899,0.894 2.27,-0.107"
       id="path7973"
       inkscape:connector-curvature="0"
       style="stroke-width:0.50651664" />
  </g>
</svg>
