<?xml version="1.0" encoding="UTF-8" standalone="no"?>
<svg
   xmlns:dc="http://purl.org/dc/elements/1.1/"
   xmlns:cc="http://creativecommons.org/ns#"
   xmlns:rdf="http://www.w3.org/1999/02/22-rdf-syntax-ns#"
   xmlns:svg="http://www.w3.org/2000/svg"
   xmlns="http://www.w3.org/2000/svg"
   xmlns:xlink="http://www.w3.org/1999/xlink"
   xmlns:sodipodi="http://sodipodi.sourceforge.net/DTD/sodipodi-0.dtd"
   xmlns:inkscape="http://www.inkscape.org/namespaces/inkscape"
   width="72"
   height="72"
   version="1.1"
   id="svg6099"
   sodipodi:docname="icon-m-scene_mode_hdr.svg"
   inkscape:version="0.92.4 (5da689c313, 2019-01-14)">
  <metadata
     id="metadata6103">
    <rdf:RDF>
      <cc:Work
         rdf:about="">
        <dc:format>image/svg+xml</dc:format>
        <dc:type
           rdf:resource="http://purl.org/dc/dcmitype/StillImage" />
        <dc:title></dc:title>
      </cc:Work>
    </rdf:RDF>
  </metadata>
  <sodipodi:namedview
     pagecolor="#ffffff"
     bordercolor="#666666"
     borderopacity="1"
     objecttolerance="10"
     gridtolerance="10"
     guidetolerance="10"
     inkscape:pageopacity="0"
     inkscape:pageshadow="2"
     inkscape:window-width="1876"
     inkscape:window-height="1055"
     id="namedview6101"
     showgrid="false"
     inkscape:pagecheckerboard="true"
     inkscape:zoom="7.375"
     inkscape:cx="-1.0740234"
     inkscape:cy="42.397339"
     inkscape:window-x="44"
     inkscape:window-y="0"
     inkscape:window-maximized="1"
     inkscape:current-layer="svg6099" />
  <defs
     id="defs6091">
    <linearGradient
       id="a">
      <stop
         offset="0"
         stop-color="#fff"
         id="stop6085" />
      <stop
         offset="1"
         stop-color="#fff"
         stop-opacity="0"
         id="stop6087" />
    </linearGradient>
    <linearGradient
       xlink:href="#a"
       id="b"
       x1="-76.860001"
       y1="100.917"
       x2="-37.969002"
       y2="234.20599"
       gradientUnits="userSpaceOnUse" />
  </defs>
  <path
     d="M 56.697421,11.163095 H 15.302578 a 4.1394841,5.228822 0 0 0 -4.139484,5.228824 v 39.216164 a 4.1394841,5.228822 0 0 0 4.139484,5.228823 h 41.394843 a 4.1394841,5.228822 0 0 0 4.139484,-5.228823 V 16.391919 a 4.1394841,5.228822 0 0 0 -4.139484,-5.228824 z"
     id="path6093"
     inkscape:connector-curvature="0"
     style="opacity:0.5;fill:none;stroke:#ffffff;stroke-width:2.32618928" />
  <g
     style="line-height:125%;-inkscape-font-specification:'Noto Sans'"
     id="g6097"
     transform="matrix(1.034871,0,0,1.3072055,2.8841268,-5.8305759)">
    <path
       style="font-weight:700;font-size:15.94900036px;font-family:'Noto Sans';-inkscape-font-specification:'Noto Sans Bold';letter-spacing:0;word-spacing:0;opacity:0.8;fill:url(#b)"
       d="m -81.83,100.768 c -1.669,0 -3,1.331 -3,3 v 30 c 0,1.668 1.331,3 3,3 h 40 c 1.668,0 3,-1.332 3,-3 v -30 c 0,-1.669 -1.332,-3 -3,-3 z m 3.445,12.304 h 2.408 v 4.467 h 4.514 v -4.467 h 2.408 v 11.389 h -2.408 v -4.912 h -4.514 v 4.912 h -2.408 z m 12.211,0 h 3.572 c 1.191,0 2.222,0.214 3.094,0.639 a 4.613,4.613 0 0 1 2.043,1.883 c 0.49,0.83 0.733,1.848 0.733,3.06 0,1.925 -0.548,3.378 -1.643,4.356 -1.095,0.967 -2.62,1.45 -4.576,1.45 h -3.223 z m 11.807,0 h 3.316 c 1.553,0 2.696,0.282 3.43,0.846 0.744,0.563 1.115,1.42 1.115,2.568 0,0.521 -0.1,0.978 -0.303,1.371 a 3.067,3.067 0 0 1 -0.78,0.989 4.606,4.606 0 0 1 -1.038,0.654 l 3.35,4.96 h -2.68 l -2.711,-4.37 h -1.291 v 4.37 h -2.408 z m -9.399,1.979 v 7.416 h 1.037 c 2.329,0 3.493,-1.25 3.493,-3.748 0,-1.255 -0.276,-2.18 -0.828,-2.776 -0.553,-0.595 -1.356,-0.892 -2.409,-0.892 z m 11.807,0 v 3.078 h 0.781 c 0.798,0 1.367,-0.133 1.707,-0.399 0.351,-0.265 0.526,-0.658 0.526,-1.18 0,-0.541 -0.187,-0.924 -0.559,-1.148 -0.372,-0.234 -0.946,-0.351 -1.723,-0.351 z"
       transform="translate(93.83,-86.768)"
       font-weight="700"
       aria-label="HDR"
       font-size="15.949"
       letter-spacing="0"
       word-spacing="0"
       id="path6095"
       inkscape:connector-curvature="0" />
  </g>
</svg>
