<svg xmlns="http://www.w3.org/2000/svg" xmlns:xlink="http://www.w3.org/1999/xlink" width="64" height="64"><defs><linearGradient id="a"><stop offset="0" stop-color="#f3f3f3"/><stop offset="1" stop-color="#f3f3f3" stop-opacity="0"/></linearGradient><linearGradient xlink:href="#a" id="b" x1="14.849" y1="18.745" x2="53.121" y2="48.09" gradientUnits="userSpaceOnUse"/></defs><path d="M57.437 35.32l-1.535-2.74-3.089.577 2.133-2.307-1.503-2.759 2.853 1.316 2.16-2.283-.37 3.12 2.837 1.349-3.081.612z" opacity=".4" fill="#fff" fill-opacity=".991" stroke="#fff" stroke-linecap="round" stroke-linejoin="round"/><path d="M54.382 20.374l-2.585-3.538-4.178 1.317 2.566-3.551-2.544-3.567 4.17 1.343 2.607-3.522.01 4.382 4.156 1.39-4.164 1.365z" opacity=".5" fill="#fff" fill-opacity=".991" stroke="#fff" stroke-width=".999" stroke-linecap="round" stroke-linejoin="round"/><path d="M45.414 8.104l-1.108-1.178-1.47.673.778-1.418-1.095-1.19 1.589.301.794-1.409.204 1.605 1.585.32-1.463.69z" opacity=".4" fill="#fff" fill-opacity=".991" stroke="#fff" stroke-linecap="round" stroke-linejoin="round"/><path d="M33.54 49.322c1.192-1.64 2.689-2.996 7.621-6.909 7.584-6.015 10.422-9.457 11.604-14.073 1.408-5.497-.773-10.584-5.498-12.825-5.563-2.638-11.614-.755-14 4.358l-.743 1.594-.783-1.616c-2.479-5.119-8.435-6.98-13.959-4.36-5.83 2.765-7.698 9.957-4.225 16.267 1.89 3.432 4.233 5.814 11.289 11.471 4.209 3.375 6.125 5.21 7.302 6.992.35.528.357.524 1.392-.899z" opacity=".6" fill="url(#b)"/><path d="M13.655 32.204c-.252-.45-.745-1.66-1.096-2.689-.864-2.532-.903-5.838-.095-7.949 1.683-4.392 5.434-6.927 10.343-6.988 2.171-.027 2.66-.217 1.187-.46-4.992-.824-9.72 1.618-11.83 6.11-.636 1.355-.751 1.893-.833 3.89-.055 1.354.026 2.86.196 3.623.347 1.566 1.375 3.888 2.078 4.697l.509.584zM33.163 20.38c.892-2.044 2.59-3.872 4.427-4.765 1.573-.765 4.387-1.302 5.82-1.11 1.154.155 1.167-.197.014-.387-3.606-.595-6.8.439-9.113 2.95-1.172 1.271-1.881 2.593-2.089 3.892-.227 1.415.18 1.164.941-.58z" fill="#f3f3f3" stroke="#f6f6f6"/></svg>