<svg xmlns="http://www.w3.org/2000/svg" xmlns:xlink="http://www.w3.org/1999/xlink" width="64" height="64"><defs><linearGradient id="d"><stop offset="0" stop-color="#fff"/><stop offset="1" stop-color="#fff" stop-opacity="0"/></linearGradient><linearGradient id="c"><stop offset="0" stop-color="#fff"/><stop offset="1" stop-color="#fff" stop-opacity="0"/></linearGradient><linearGradient id="b"><stop offset="0" stop-color="#fff"/><stop offset="1" stop-color="#fff" stop-opacity="0"/></linearGradient><linearGradient id="a"><stop offset="0" stop-color="#fff"/><stop offset="1" stop-color="#fff" stop-opacity="0"/></linearGradient><linearGradient xlink:href="#a" id="f" x1="19.25" y1="41.188" x2="39.75" y2="28.813" gradientUnits="userSpaceOnUse" gradientTransform="matrix(.68625 0 0 .65377 9.408 13.066)"/><linearGradient xlink:href="#b" id="g" x1="45.625" y1="42" x2="31.25" y2="29.313" gradientUnits="userSpaceOnUse" gradientTransform="matrix(.68625 0 0 .65377 9.408 15.441)"/><linearGradient xlink:href="#c" id="e" x1="19" y1="18.313" x2="68.563" y2="50.125" gradientUnits="userSpaceOnUse"/><linearGradient xlink:href="#d" id="h" x1="29.375" y1="40.313" x2="44.625" y2="40.938" gradientUnits="userSpaceOnUse"/></defs><path d="M52 13H12a4 4 0 0 0-4 4v30a4 4 0 0 0 4 4h40a4 4 0 0 0 4-4V17a4 4 0 0 0-4-4z" opacity=".5" fill="none" stroke="#fff" stroke-width="2"/><path d="M43.446 15.055c0 10.229-5.124 18.52-11.446 18.52s-11.446-8.291-11.446-18.52l6.717 2.563 3.8-2.563 4.95 2.387z" fill="url(#e)" paint-order="stroke fill markers"/><path d="M28.963 43.99c-3.722.186-8.735-7.565-6.8-10.26 3.721-.186 8.727 7.228 6.8 10.26z" opacity=".8" fill="url(#f)" paint-order="stroke fill markers"/><path d="M35.037 46.365c3.722.186 8.735-7.565 6.8-10.26-3.721-.186-8.727 7.228-6.8 10.26z" opacity=".8" fill="url(#g)" paint-order="stroke fill markers"/><rect width="3.977" height="15.87" x="30.011" y="33.807" ry="1.125" opacity=".8" fill="url(#h)" paint-order="stroke fill markers"/></svg>