<svg xmlns="http://www.w3.org/2000/svg" width="64" height="64"><path d="M57.437 35.32l-1.535-2.74-3.089.577 2.133-2.307-1.503-2.759 2.853 1.316 2.16-2.283-.37 3.12 2.837 1.349-3.081.612z" opacity=".4" fill="#fff" fill-opacity=".991" stroke="#fff" stroke-linecap="round" stroke-linejoin="round"/><path d="M54.382 20.374l-2.585-3.538-4.178 1.317 2.566-3.551-2.544-3.567 4.17 1.343 2.607-3.522.01 4.382 4.156 1.39-4.164 1.365z" opacity=".5" fill="#fff" fill-opacity=".991" stroke="#fff" stroke-width=".999" stroke-linecap="round" stroke-linejoin="round"/><path d="M45.414 8.104l-1.108-1.178-1.47.673.778-1.418-1.095-1.19 1.589.301.794-1.409.204 1.605 1.585.32-1.463.69z" opacity=".4" fill="#fff" fill-opacity=".991" stroke="#fff" stroke-linecap="round" stroke-linejoin="round"/><path style="isolation:auto;mix-blend-mode:normal;solid-color:#000;solid-opacity:1;marker:none" color="#000" overflow="visible" fill="none" stroke="#fff" stroke-width="2" stroke-linecap="round" filter="url(#filter1065)" d="M17.594 8.842h28.811v46.315H17.594z"/><path d="M42.791 6.195l6.983 6.982M21.209 6.195l-6.983 6.982m28.565 44.628l6.983-6.982m-28.565 6.982l-6.983-6.982" fill="none" stroke="#fff" stroke-width="2" stroke-linecap="round" opacity=".7"/><path style="isolation:auto;mix-blend-mode:normal;solid-color:#000;solid-opacity:1;marker:none" d="M31.996 9.78c-.993.189-.617 1.76-1.794 1.832-1.024.5-2.249 1.243-2.34 2.505.048.966.27 2.032.958 2.747 1.133.785 2.6.52 3.899.596.978-.09 2.255-.06 2.815-1.026.553-.904.694-2.062.453-3.082-.452-.768-1.309-1.208-2.042-1.669-1.01-.197-1.234-1.139-1.604-1.886l-.152-.044zM26.52 48.133h10.96v5.613H26.52zm-5.767-7.866h22.494v5.612H20.753zm7.225-5.26h8.044v3.138h-8.044zm-5.347-7.733h18.738v5.656H22.631zm1.68-7.911H39.69v5.657H24.31z" color="#000" overflow="visible" fill="#fff" fill-opacity=".991" fill-rule="evenodd" filter="url(#filter1065)" opacity=".5"/></svg>