<?xml version="1.0" encoding="UTF-8" standalone="no"?>
<svg
   xmlns:dc="http://purl.org/dc/elements/1.1/"
   xmlns:cc="http://creativecommons.org/ns#"
   xmlns:rdf="http://www.w3.org/1999/02/22-rdf-syntax-ns#"
   xmlns:svg="http://www.w3.org/2000/svg"
   xmlns="http://www.w3.org/2000/svg"
   xmlns:xlink="http://www.w3.org/1999/xlink"
   xmlns:sodipodi="http://sodipodi.sourceforge.net/DTD/sodipodi-0.dtd"
   xmlns:inkscape="http://www.inkscape.org/namespaces/inkscape"
   width="72"
   height="72"
   version="1.1"
   id="svg13692"
   sodipodi:docname="icon-m-scene_mode_steady_photo.svg"
   inkscape:version="0.92.4 (5da689c313, 2019-01-14)">
  <metadata
     id="metadata13696">
    <rdf:RDF>
      <cc:Work
         rdf:about="">
        <dc:format>image/svg+xml</dc:format>
        <dc:type
           rdf:resource="http://purl.org/dc/dcmitype/StillImage" />
        <dc:title></dc:title>
      </cc:Work>
    </rdf:RDF>
  </metadata>
  <sodipodi:namedview
     pagecolor="#ffffff"
     bordercolor="#666666"
     borderopacity="1"
     objecttolerance="10"
     gridtolerance="10"
     guidetolerance="10"
     inkscape:pageopacity="0"
     inkscape:pageshadow="2"
     inkscape:window-width="1876"
     inkscape:window-height="1055"
     id="namedview13694"
     showgrid="false"
     inkscape:pagecheckerboard="true"
     inkscape:zoom="10.429825"
     inkscape:cx="51.108343"
     inkscape:cy="27.818857"
     inkscape:window-x="44"
     inkscape:window-y="0"
     inkscape:window-maximized="1"
     inkscape:current-layer="svg13692" />
  <defs
     id="defs13678">
    <linearGradient
       id="c">
      <stop
         offset="0"
         stop-color="#fff"
         id="stop13658" />
      <stop
         offset="1"
         stop-color="#fff"
         stop-opacity="0"
         id="stop13660" />
    </linearGradient>
    <linearGradient
       id="b">
      <stop
         offset="0"
         stop-color="#fff"
         id="stop13663" />
      <stop
         offset="1"
         stop-color="#fff"
         stop-opacity="0"
         id="stop13665" />
    </linearGradient>
    <linearGradient
       id="a">
      <stop
         offset="0"
         stop-color="#fff"
         id="stop13668" />
      <stop
         offset="1"
         stop-color="#fff"
         stop-opacity="0"
         id="stop13670" />
    </linearGradient>
    <linearGradient
       xlink:href="#a"
       id="e"
       x1="12.29"
       y1="22.068001"
       x2="30.327"
       y2="20.806"
       gradientUnits="userSpaceOnUse"
       gradientTransform="matrix(0.83992202,0.13072055,-0.10348711,1.0609541,9.7360078,4.4401391)" />
    <linearGradient
       xlink:href="#b"
       id="g"
       x1="56.194"
       y1="23.027"
       x2="37.424"
       y2="24.136"
       gradientUnits="userSpaceOnUse"
       gradientTransform="matrix(0.8168483,-0.27944678,0.22122872,1.0318084,0.38466777,17.950728)" />
    <linearGradient
       xlink:href="#b"
       id="d"
       x1="12.29"
       y1="22.068001"
       x2="30.327"
       y2="20.806"
       gradientUnits="userSpaceOnUse"
       gradientTransform="matrix(0.83992202,0.13072055,-0.10348711,1.0609541,5.7859051,4.7381821)" />
    <linearGradient
       xlink:href="#b"
       id="f"
       x1="56.194"
       y1="23.027"
       x2="37.424"
       y2="24.136"
       gradientUnits="userSpaceOnUse"
       gradientTransform="matrix(0.8168444,-0.27945439,0.22123473,1.0318034,5.9639029,18.161874)" />
    <linearGradient
       xlink:href="#c"
       id="h"
       x1="40.077"
       y1="15.294"
       x2="42.858002"
       y2="75.314003"
       gradientUnits="userSpaceOnUse"
       gradientTransform="matrix(1.034871,0,0,1.3072055,2.8841267,-5.830576)" />
  </defs>
  <path
     d="m 14.557471,42.853679 c -0.664386,0.05359 -1.088683,0.884978 -1.252193,1.581719 -0.210079,0.899357 -0.144882,2.130744 0.665421,2.890231 1.334984,1.252302 3.090127,3.356905 4.785244,5.394837 1.497459,1.798715 3.041487,3.5739 4.207787,4.726855 1.737548,1.715054 4.056694,1.834011 5.698,1.700674 h 9.97e-4 c 4.219167,-0.339873 8.463175,-2.983042 9.972015,-5.312482 0.362205,-0.559484 0.550553,-1.037922 0.512263,-1.390867 -0.427401,-3.969983 -1.151812,-9.568745 -1.461239,-11.971388 l -0.06001,-0.457521 C 37.498468,39.030103 34.29761,22.126628 32.689421,22.909645 c -1.971429,0.956874 -0.272172,3.938611 0.525715,11.861582 0.0104,0.104581 -0.251474,0.185624 -0.364274,0.169937 -0.841351,-0.111111 -3.829023,-16.13353 -6.048821,-15.38973 -2.566482,0.861448 0.158335,7.237996 1.657862,15.364894 0.06934,0.379089 -0.303217,0.945109 -0.416018,0.549026 -0.75856,-2.668007 -3.337459,-10.143914 -4.65071,-15.197572 -0.40567,-1.559496 -1.148707,-2.622253 -1.774805,-2.479769 -0.900337,0.206539 -1.6382,1.843161 -1.245983,3.767367 a 1029.3552,1300.238 0 0 0 3.12531,15.010641 l -0.331159,0.135948 -0.285625,-0.826152 c -0.03726,-0.108504 -3.719327,-10.779217 -5.064658,-13.72043 -0.451204,-0.985631 -1.075231,-1.087595 -1.407426,-1.061451 -0.406704,0.03399 -0.79478,0.291508 -1.040045,0.692819 -0.264926,0.4353 -0.351856,1.003934 -0.252509,1.647079 0.423264,2.733367 3.094266,13.644611 3.120137,13.754416 l 2.2436,9.960908 -4.993251,-3.937305 c -0.331163,-0.261442 -0.643693,-0.381704 -0.928283,-0.358174 z"
     id="path13680"
     style="opacity:0.078;fill:url(#d);stroke-width:1.16309464"
     inkscape:connector-curvature="0" />
  <path
     d="m 18.509644,42.554329 c -0.665421,0.05359 -1.089719,0.884979 -1.253228,1.581719 -0.211115,0.899357 -0.144882,2.130745 0.665421,2.891539 1.334985,1.250995 3.089091,3.356904 4.785243,5.393529 1.49746,1.798716 3.041488,3.573899 4.207788,4.726855 1.737548,1.715054 4.056693,1.83401 5.698,1.700674 h 9.97e-4 c 4.219169,-0.339873 8.463175,-2.981735 9.972016,-5.312482 0.362206,-0.559485 0.550552,-1.037921 0.512262,-1.390867 -0.428399,-3.969983 -1.151776,-9.568745 -1.461201,-11.97008 l -0.06002,-0.457522 c -0.12729,-0.986941 -3.328148,-17.889109 -4.936337,-17.1074 -1.971429,0.958183 -0.272171,3.939919 0.525715,11.861583 0.0104,0.104581 -0.251474,0.18693 -0.364274,0.171244 C 35.959638,34.53201 32.973,18.508283 30.753203,19.252083 c -2.566481,0.862756 0.158333,7.237998 1.657862,15.366201 0.06934,0.377782 -0.303217,0.943802 -0.416018,0.549027 -0.758561,-2.669314 -3.337459,-10.143915 -4.65071,-15.198878 -0.40567,-1.558189 -1.148707,-2.622255 -1.774804,-2.479769 -0.900337,0.206539 -1.638201,1.843159 -1.245985,3.768673 a 1029.3552,1300.238 0 0 0 3.12531,15.01064 l -0.331157,0.134642 -0.285627,-0.826152 c -0.03725,-0.107199 -3.719325,-10.779216 -5.064658,-13.72043 -0.451203,-0.985634 -1.07523,-1.087594 -1.407425,-1.060144 -0.406703,0.03269 -0.79478,0.291508 -1.040044,0.692819 -0.264927,0.433992 -0.351857,1.002627 -0.252509,1.645772 0.423263,2.733366 3.094265,13.644612 3.120136,13.755723 l 2.243601,9.960907 -4.993252,-3.938611 c -0.33116,-0.261441 -0.643691,-0.380397 -0.928281,-0.358174 z"
     id="path13682"
     style="opacity:0.5;fill:url(#e);stroke-width:1.16309464"
     inkscape:connector-curvature="0" />
  <path
     d="m 35.135882,38.712453 c -0.665423,0.01438 -1.11973,0.820924 -1.308077,1.507208 -0.243195,0.886285 -0.222497,2.121593 0.5609,2.926832 1.288414,1.326814 2.965941,3.529455 4.586549,5.662815 1.430192,1.882377 2.909023,3.745143 4.032893,4.963459 1.674421,1.813092 3.985287,2.065384 5.629697,2.026167 h 0.0032 c 4.226415,-0.09804 8.561489,-2.494147 10.152087,-4.734696 0.380831,-0.537262 0.58677,-1.006549 0.561934,-1.359494 -0.284591,-3.990899 -0.807199,-9.626263 -1.029697,-12.043285 l -0.04347,-0.460136 c -0.09108,-0.993477 -2.680315,-18.061659 -4.315411,-17.372761 -2.003511,0.843146 -0.413949,3.920308 0.09831,11.879884 0.0073,0.105873 -0.257682,0.171243 -0.370483,0.150327 -0.836176,-0.159479 -3.245356,-16.337454 -5.48792,-15.72176 -2.596492,0.712426 -0.102451,7.237997 1.103172,15.444633 0.05588,0.380397 -0.337368,0.925501 -0.434647,0.522882 -0.662317,-2.708529 -2.970079,-10.324309 -4.100157,-15.448554 -0.348754,-1.580412 -1.052464,-2.685 -1.683737,-2.57781 -0.906546,0.152943 -1.703398,1.74512 -1.379483,3.691549 0.601261,3.620959 1.506773,9.068083 2.58097,15.174041 L 43.956165,33.061399 43.701587,32.21825 C 43.66847,32.108443 40.373442,21.237725 39.135737,18.222002 38.720754,17.211532 38.100866,17.074274 37.769706,17.080811 A 1.4467498,1.8274733 0 0 0 36.703789,17.7135 c -0.279414,0.418306 -0.388076,0.98171 -0.310461,1.630084 0.323914,2.755589 2.598562,13.80932 2.62133,13.920432 l 1.883464,10.079862 -4.846301,-4.222274 c -0.322885,-0.278435 -0.630241,-0.417 -0.915865,-0.409156 z"
     id="path13684"
     style="opacity:0.10499998;fill:url(#f);stroke-width:1.16309464"
     inkscape:connector-curvature="0" />
  <path
     d="m 29.557928,38.500685 c -0.666458,0.01569 -1.120766,0.822231 -1.309113,1.508515 -0.242159,0.886285 -0.222497,2.121594 0.560901,2.925525 1.288413,1.326815 2.965939,3.530762 4.586549,5.664123 1.43019,1.882375 2.909021,3.745143 4.033927,4.963458 1.673387,1.811787 3.984254,2.065386 5.629699,2.02617 h 0.002 c 4.226414,-0.09934 8.561489,-2.49415 10.152086,-4.734699 0.381867,-0.53857 0.58677,-1.006549 0.561936,-1.359494 C 53.491316,45.502078 52.969741,39.868022 52.746209,37.451 l -0.04238,-0.460137 c -0.09207,-0.993476 -2.680287,-18.061659 -4.315383,-17.372762 -2.004546,0.843148 -0.413948,3.92031 0.09729,11.879884 0.0073,0.105873 -0.257682,0.171245 -0.369448,0.150329 -0.837212,-0.160787 -3.245356,-16.338762 -5.488956,-15.721761 -2.595457,0.712428 -0.102452,7.237998 1.103173,15.443325 0.05587,0.381704 -0.336335,0.92681 -0.434647,0.524191 -0.662317,-2.708531 -2.97008,-10.32431 -4.100158,-15.448555 -0.348752,-1.581719 -1.05143,-2.686307 -1.683736,-2.579117 -0.906547,0.154251 -1.702363,1.746427 -1.379483,3.692854 0.60126,3.620962 1.507806,9.068086 2.580968,15.174044 l -0.335297,0.11634 -0.255614,-0.84184 C 38.089416,31.897988 34.795424,21.027268 33.556683,18.010239 33.1417,16.999768 32.521812,16.862513 32.190653,16.870356 a 1.4467498,1.8274733 0 0 0 -1.065917,0.632686 c -0.279415,0.418306 -0.387042,0.980405 -0.310462,1.630085 0.323914,2.754284 2.598562,13.808013 2.621329,13.920432 l 1.883465,10.078555 -4.8463,-4.220968 C 30.149876,38.632712 29.84252,38.494149 29.557931,38.500685 Z"
     id="path13686"
     style="opacity:0.5;fill:url(#g);stroke-width:1.16309464"
     inkscape:connector-curvature="0" />
  <path
     d="m 23.848543,39.560829 c -0.664386,0.06797 -1.078335,0.908507 -1.231495,1.607862 -0.198697,0.904586 -0.117976,2.134666 0.703711,2.875852 1.350507,1.223545 3.132555,3.291544 4.855616,5.294182 1.520224,1.766035 3.088054,3.50854 4.269877,4.636659 1.759281,1.678453 4.078428,1.747733 5.718697,1.581718 h 0.002 c 4.212959,-0.431377 8.421781,-3.16213 9.899576,-5.522943 0.353925,-0.567328 0.536064,-1.049687 0.494669,-1.401324 -0.481216,-3.960834 -1.278066,-9.543909 -1.620609,-11.938708 l -0.06521,-0.457523 c -0.140701,-0.981711 -3.563019,-17.814595 -5.161896,-16.9989 -1.957975,0.998705 -0.219392,3.945146 0.683015,11.848511 0.01139,0.104581 -0.248368,0.19216 -0.362205,0.179086 -0.843419,-0.0941 -4.042206,-16.052482 -6.25062,-15.260315 -2.556131,0.915044 0.253543,7.232768 1.859663,15.326983 0.07451,0.376477 -0.289764,0.950339 -0.408773,0.558177 -0.793747,-2.653626 -3.470958,-10.072018 -4.850442,-15.098223 -0.426367,-1.550345 -1.182857,-2.597417 -1.80792,-2.441861 -0.896198,0.224839 -1.614398,1.875841 -1.195276,3.793511 a 1029.3572,1300.2406 0 0 0 3.321937,14.942668 l -0.329044,0.142485 -0.295973,-0.820925 C 32.039545,32.301917 28.216734,21.70963 26.832076,18.797176 26.368455,17.820692 25.743392,17.731804 25.412234,17.765792 a 1.4467498,1.8274733 0 0 0 -1.031767,0.71504 c -0.258716,0.440528 -0.338402,1.010471 -0.230776,1.651001 0.459484,2.724216 3.273298,13.577944 3.301239,13.687749 l 2.375028,9.912539 -5.04396,-3.832727 C 24.4467,39.645797 24.133134,39.533377 23.848543,39.560829 Z"
     id="path13688"
     style="fill:url(#h);stroke-width:1.16309464"
     inkscape:connector-curvature="0" />
  <path
     d="M 56.697421,11.163095 H 15.302578 a 4.1394841,5.228822 0 0 0 -4.139484,5.228824 v 39.216164 a 4.1394841,5.228822 0 0 0 4.139484,5.228823 h 41.394843 a 4.1394841,5.228822 0 0 0 4.139484,-5.228823 V 16.391919 a 4.1394841,5.228822 0 0 0 -4.139484,-5.228824 z"
     id="path13690"
     inkscape:connector-curvature="0"
     style="opacity:0.5;fill:none;stroke:#ffffff;stroke-width:2.32618928" />
</svg>
