<svg xmlns="http://www.w3.org/2000/svg" xmlns:xlink="http://www.w3.org/1999/xlink" width="64" height="64"><defs><linearGradient id="a"><stop offset="0" stop-color="#fff"/><stop offset="1" stop-color="#fff" stop-opacity="0"/></linearGradient><linearGradient xlink:href="#a" id="e" x1="25.75" y1="30.375" x2="43.5" y2="29.875" gradientUnits="userSpaceOnUse" gradientTransform="translate(-16.803 15.282)"/><linearGradient xlink:href="#a" id="b" x1="9.25" y1="20.375" x2="29.5" y2="25" gradientUnits="userSpaceOnUse"/><linearGradient xlink:href="#a" id="d" x1="55.375" y1="45.75" x2="7.875" y2="39.25" gradientUnits="userSpaceOnUse" gradientTransform="translate(19.25 -14.813)"/><linearGradient xlink:href="#a" id="c" x1="38.125" y1="38" x2="53.875" y2="47.25" gradientUnits="userSpaceOnUse"/></defs><path d="M57.437 35.32l-1.535-2.74-3.089.577 2.133-2.307-1.503-2.759 2.853 1.316 2.16-2.283-.37 3.12 2.837 1.349-3.081.612z" opacity=".4" fill="#fff" fill-opacity=".991" stroke="#fff" stroke-linecap="round" stroke-linejoin="round"/><path d="M54.382 20.374l-2.585-3.538-4.178 1.317 2.566-3.551-2.544-3.567 4.17 1.343 2.607-3.522.01 4.382 4.156 1.39-4.164 1.365z" opacity=".5" fill="#fff" fill-opacity=".991" stroke="#fff" stroke-width=".999" stroke-linecap="round" stroke-linejoin="round"/><path d="M45.414 8.104l-1.108-1.178-1.47.673.778-1.418-1.095-1.19 1.589.301.794-1.409.204 1.605 1.585.32-1.463.69z" opacity=".4" fill="#fff" fill-opacity=".991" stroke="#fff" stroke-linecap="round" stroke-linejoin="round"/><path style="isolation:auto;mix-blend-mode:normal;solid-color:#000;solid-opacity:1;marker:none" color="#000" overflow="visible" fill="none" stroke="#fff" stroke-width="2" stroke-linecap="round" stroke-linejoin="round" d="M10.063 15.438h43.875v33.125H10.063z"/><path d="M48.305 50.25h-32.61" fill="none" stroke="#fff" stroke-width="2" stroke-linecap="round"/><path style="isolation:auto;mix-blend-mode:normal;solid-color:#000;solid-opacity:1;marker:none" d="M42.265 21.319c.925-.027 1.847-.09 2.773-.07.925.04 1.825.272 2.735.422.441.058.883.111 1.328.11l-.648 1.723c-.451-.014-.9-.072-1.346-.138-.9-.156-1.792-.38-2.708-.418a30.92 30.92 0 0 0-2.773.103l.639-1.732z" color="#000" overflow="visible" opacity=".232" fill="#fff" fill-rule="evenodd"/><path d="M24.637 23.766l-9.063.848-.088-3.754 5.368-.848-.352-.605-9.064.484.264-1.574 10.032-1.453-.176 2.906 3.255-.363z" opacity=".5" fill="url(#b)" fill-rule="evenodd"/><path d="M40.153 40.667l12.216-.514-.268 5.914-8.292.086.445-2.057 5.529-.086v-.514l-10.79.171z" opacity=".5" fill="url(#c)" fill-rule="evenodd"/><path d="M43 26.688l-9.125-.375-2.125 4.625 20.5 1 1.125-7.625z" opacity=".5" fill="url(#d)" fill-rule="evenodd"/><path d="M21.414 42.782l-10.731 1.034-.236 2.966 12.5-.345z" opacity=".5" fill="url(#e)" fill-rule="evenodd"/><path d="M20.038 46.202c-.78-.842-1.538-1.707-2.363-2.506-1.05-.372-1.652.964-2.636 1.033-.82.432-1.633.849-2.539 1.021-.983.55-.673-1.123.17-.984 1.056-.19 1.82-.932 2.822-1.308.851-.298 2.102-.654 1.711-1.854-.556-1.005-.36-2.071-.057-3.12.145-.53-.315-.984-.527-.27-.784.342-1.7-.671-2.328-1.178-.555-.422-2.152-.664-1.464-1.645.644-.337 1.237.484 1.82.764.608.493 1.201 1.04 1.93 1.343.857-.028.196-1.187.523-1.736.176-1.12-1.232-1.227-1.808-1.903-1.035-.44-1.156-1.572-1.281-2.553-.372-.857-.237-1.843.068-2.702.063-.963.902-1.615 1.51-2.275.84-.833 2.154-.868 3.182-.386 1.027.22 1.544 1.19 1.93 2.077.36.696.517 1.477.406 2.256-.096.902.055 1.867-.471 2.672-.551.912-1.655 1.166-2.509 1.702-.46.64.083 1.539-.044 2.306.518.69 1.292-.706 1.94-.835.898-.282 1.75-1.206 2.727-.916.57.989-1.245 1.172-1.804 1.621-.722.613-1.624.897-2.337 1.499-.397.19-.701-.217-.637.42-.407 1.03.025 2.019.102 3.028-.383 1.184.829 1.703 1.447 2.455.33.653 1.936 1.097 1.074 1.924-.129.095-.465.26-.557.05zm-2.61-12.23c.902-.354 1.972-.653 2.373-1.645.535-.692.342-1.54.36-2.335.04-1.013-.26-2.09-1.106-2.72-.653-.723-1.755-1.025-2.636-.554-1 .591-1.3 1.813-1.589 2.852-.166.899-.037 1.851.287 2.697.408.742 1.112 1.27 1.8 1.734a.56.56 0 0 0 .51-.028zm-2.033-.241c-.023-.106-.094.198 0 0zm3.281-7.777c-.009-.154-.157.15 0 0zm.362 10.573c-.05-.115.167.207 0 0z" fill="#fff"/></svg>