<svg xmlns="http://www.w3.org/2000/svg" xmlns:xlink="http://www.w3.org/1999/xlink" width="72" height="72"><defs><linearGradient xlink:href="#a" id="b" x1="29.875" y1="19.364" x2="42.515" y2="60.111" gradientUnits="userSpaceOnUse" gradientTransform="matrix(1.02959 0 0 1.3072 3.052 -5.675)"/><linearGradient id="a"><stop offset="0" stop-color="#fff"/><stop offset="1" stop-color="#fff" stop-opacity="0"/></linearGradient><radialGradient xlink:href="#a" id="c" cx="83.781" cy="74.875" fx="83.781" fy="74.875" r="7.592" gradientUnits="userSpaceOnUse" gradientTransform="translate(-119.507 -99.355) scale(1.68623)"/></defs><path d="M52.26 31.369c-1.286 0-2.347 1.009-3.567 1.884l-13.032 9.353c-2.442 1.751-5.216 2.515-7.203 0l-1.04-1.329c-1.986-2.515-5.57-6.82-8.76-1.96l-6.34 7.659v8.788c0 1.536 1.01 3.922 3.089 3.922H56.59c1.717 0 3.089-1.742 3.089-3.922V38.232l-3.85-4.98c-.946-1.205-2.23-1.882-3.568-1.883z" fill="url(#b)"/><path d="M56.697 11.163H15.303a4.14 5.229 0 0 0-4.14 5.229v39.216a4.14 5.229 0 0 0 4.14 5.229h41.394a4.14 5.229 0 0 0 4.14-5.229V16.392a4.14 5.229 0 0 0-4.14-5.229z" opacity=".5" fill="none" stroke="#fff" stroke-width="2.326"/><g transform="matrix(1.11828 0 0 1.12094 2.136 -3.204)" color="#fff" fill-rule="evenodd" stroke-width=".962"><path d="M21.768 14.1a12.801 12.801 0 0 0-.461.017c.119.048.536 11.755.652 11.777.116.022 4.814-10.718 4.94-10.714a12.801 12.801 0 0 0-5.131-1.08zm5.13 1.08c.09.09-4.616 10.828-4.521 10.898.095.07 8.955-7.538 9.093-7.502a12.801 12.801 0 0 0-4.57-3.396zm4.572 3.396c.014.142-8.851 7.744-8.797 7.848.055.104 11.386-2.918 11.458-2.816a12.801 12.801 0 0 0-2.66-5.032zm2.661 5.032c-.011.125-11.343 3.14-11.339 3.257.004.118 11.513 2.306 11.543 2.431a12.801 12.801 0 0 0 .234-2.394 12.801 12.801 0 0 0-.438-3.294zm.204 5.688c-.074.105-11.581-2.09-11.629-1.983-.047.108 9.346 7.058 9.337 7.196h.004a12.801 12.801 0 0 0 2.289-5.213zm-2.292 5.213c-.13.05-9.517-6.907-9.607-6.83-.09.077 5.378 10.446 5.296 10.542a12.801 12.801 0 0 0 4.311-3.712zm-4.31 3.712c-.127.013-5.588-10.358-5.702-10.328-.114.03.313 11.737.198 11.794a12.801 12.801 0 0 0 5.503-1.466zm-5.504 1.466c-.12-.048-.536-11.755-.652-11.778-.116-.022-4.814 10.718-4.94 10.714a12.801 12.801 0 0 0 5.13 1.08 12.801 12.801 0 0 0 .462-.016zm-5.592-1.064c-.09-.09 4.616-10.828 4.521-10.898-.094-.07-8.955 7.538-9.093 7.502a12.801 12.801 0 0 0 4.572 3.396zm-4.572-3.396c-.014-.141 8.852-7.744 8.797-7.848-.055-.104-11.386 2.918-11.458 2.816a12.801 12.801 0 0 0 2.661 5.032zm-2.66-5.032c.01-.125 11.343-3.14 11.339-3.257-.005-.118-11.513-2.305-11.544-2.43a12.801 12.801 0 0 0-.234 2.394 12.801 12.801 0 0 0 .438 3.293zM9.2 24.507c.074-.105 11.582 2.09 11.63 1.983.046-.108-9.347-7.057-9.338-7.196h-.003A12.801 12.801 0 0 0 9.2 24.507zm2.292-5.213c.13-.05 9.518 6.907 9.607 6.83.09-.076-5.378-10.446-5.296-10.542a12.801 12.801 0 0 0-4.31 3.712zm4.311-3.712c.126-.013 5.587 10.359 5.701 10.328.114-.03-.313-11.737-.197-11.793a12.801 12.801 0 0 0-5.504 1.465z" style="isolation:auto;mix-blend-mode:normal;solid-color:#fff;solid-opacity:1;marker:none" overflow="visible" opacity=".755" fill="url(#c)"/><circle r="4.229" cy="26.902" cx="21.768" style="isolation:auto;mix-blend-mode:normal;solid-color:#fff;solid-opacity:1;marker:none" overflow="visible" fill="#fff"/></g></svg>