<svg xmlns="http://www.w3.org/2000/svg" width="64" height="64"><path d="M57.437 35.32l-1.535-2.74-3.089.577 2.133-2.307-1.503-2.759 2.853 1.316 2.16-2.283-.37 3.12 2.837 1.349-3.081.612z" opacity=".4" fill="#fff" fill-opacity=".991" stroke="#fff" stroke-linecap="round" stroke-linejoin="round"/><path d="M54.382 20.374l-2.585-3.538-4.178 1.317 2.566-3.551-2.544-3.567 4.17 1.343 2.607-3.522.01 4.382 4.156 1.39-4.164 1.365z" opacity=".5" fill="#fff" fill-opacity=".991" stroke="#fff" stroke-width=".999" stroke-linecap="round" stroke-linejoin="round"/><path d="M45.414 8.104l-1.108-1.178-1.47.673.778-1.418-1.095-1.19 1.589.301.794-1.409.204 1.605 1.585.32-1.463.69z" opacity=".4" fill="#fff" fill-opacity=".991" stroke="#fff" stroke-linecap="round" stroke-linejoin="round"/><g transform="rotate(-45 32.429 34.084)" fill="#fff"><path d="M37.67 55.698c-1.29 1.368-3.211 1.67-5 1.55-1.778.052-3.711.055-5.115-1.231-1.905-1.826-3.178-4.426-2.97-7.113.01-12.65-.019-25.3.014-37.95.124-1.828 1.98-2.704 3.707-2.701l9.284.016c1.829.003 2.694 1.981 2.694 3.705l-.005 38.106c-.107 2.146-1.23 4.04-2.608 5.618z"/><path d="M28.761 56.248l3.675 6.582 3.674-6.582z" opacity=".6"/><rect ry="2.179" y="5.338" x="24.593" height="8.465" width="15.702" style="isolation:auto;mix-blend-mode:normal;solid-color:#000;solid-opacity:1;marker:none" color="#000" overflow="visible" opacity=".6" fill-rule="evenodd"/></g><path d="M53.29 55.554c-11.217 7.474-24.482-.878-27.392-6.138C23.6 45.262 13.145 30.723 7.336 37.749 1.527 44.774 4.02 53.913 4.773 58.432" opacity=".5" fill="none" stroke="#fff" stroke-width="2" stroke-linecap="round"/></svg>