<svg xmlns="http://www.w3.org/2000/svg" xmlns:xlink="http://www.w3.org/1999/xlink" width="72" height="72"><defs><linearGradient id="b"><stop offset="0" stop-color="#fff" stop-opacity=".899"/><stop offset=".49" stop-color="#fff" stop-opacity=".5"/><stop offset=".51" stop-color="#fff" stop-opacity=".931"/><stop offset="1" stop-color="#fff" stop-opacity=".5"/></linearGradient><linearGradient id="a"><stop offset="0" stop-color="#fff"/><stop offset=".5" stop-color="#fff" stop-opacity=".73"/><stop offset="1" stop-color="#fff" stop-opacity="0"/></linearGradient><radialGradient xlink:href="#a" id="c" cx="32" cy="32" fx="32" fy="32" r="23" gradientTransform="matrix(1.5838 -.05024 .0323 1.62525 -15.716 -14.4)" gradientUnits="userSpaceOnUse"/><linearGradient xlink:href="#b" id="d" x1="74.246" y1="-52.849" x2="107.834" y2="-52.849" gradientUnits="userSpaceOnUse" gradientTransform="matrix(.7266 0 0 .81204 -30.278 79.494)"/></defs><path d="M56.697 11.163H15.303a4.14 5.229 0 0 0-4.14 5.229v39.216a4.14 5.229 0 0 0 4.14 5.229h41.394a4.14 5.229 0 0 0 4.14-5.229V16.392a4.14 5.229 0 0 0-4.14-5.229z" opacity=".5" fill="none" stroke="#fff" stroke-width="2.326"/><path style="line-height:normal;font-variant-ligatures:normal;font-variant-position:normal;font-variant-caps:normal;font-variant-numeric:normal;font-variant-alternates:normal;font-feature-settings:normal;text-indent:0;text-align:start;text-decoration-line:none;text-decoration-style:solid;text-decoration-color:#fff;text-transform:none;text-orientation:mixed;white-space:normal;shape-padding:0;isolation:auto;mix-blend-mode:normal;solid-color:#fff;solid-opacity:1" d="M15.303 12.47c-1.727 0-3.105 1.741-3.105 3.922v16.592a5.397 14.905 0 0 0 .857.774 6.142 7.758 0 0 0-.857.401v21.45c0 2.18 1.378 3.92 3.105 3.92h4.733c2.057-.414 3.546-1.772 3.546-5.82 0-6.683-4.055-18.327-8.027-20a5.397 14.905 0 0 0 4.109-14.457 5.397 14.905 0 0 0-.156-3.486A23.6 9.36 0 0 0 36 18.442a23.6 9.36 0 0 0 16.49-2.666 5.397 14.905 0 0 0-.155 3.476 5.397 14.905 0 0 0 4.112 14.455c-3.973 1.668-8.029 13.318-8.029 20 0 4.05 1.489 5.408 3.546 5.823h4.733c1.727 0 3.105-1.741 3.105-3.922V34.162a6.147 7.765 0 0 0-.861-.404 5.397 14.905 0 0 0 .861-.778V16.392c0-2.18-1.378-3.922-3.105-3.922z" font-weight="400" overflow="visible" color="#fff" font-family="sans-serif" opacity=".5" fill="url(#c)"/><path style="isolation:auto;mix-blend-mode:normal;solid-color:#fff;solid-opacity:1;marker:none" d="M23.799 21.003V41.96A12.176 13.608 0 0 0 36 55.598c6.76 0 12.201-6.083 12.201-13.638V21.003c-8.134 2.029-16.268 2.18-24.402 0zm5.608 6.528c.703 0 1.258.231 1.67.691.436.487.654 1.068.654 1.746a2.33 2.33 0 0 1-.654 1.665c-.412.486-.967.731-1.67.731a2.1 2.1 0 0 1-1.635-.732 2.032 2.271 0 0 1-.62-1.665c0-.677.208-1.258.62-1.745.435-.46.98-.691 1.635-.691zm13.114 0c.702 0 1.26.231 1.672.691.435.487.654 1.068.654 1.746 0 .649-.218 1.205-.654 1.665-.412.486-.97.731-1.672.731a2.103 2.103 0 0 1-1.635-.732 2.031 2.27 0 0 1-.617-1.665c0-.677.206-1.258.617-1.745.436-.46.98-.691 1.635-.691zM27.16 41.834c2.724 1.77 5.544 4.485 8.449 4.5v1.538c-3.369-.011-6.3-3.078-8.935-4.885zm9.03-1.44c3.368.012 6.3 3.285 8.934 5.091l-.486 1.152c-2.724-1.77-5.544-4.689-8.449-4.705z" overflow="visible" color="#fff" fill="url(#d)" fill-rule="evenodd"/></svg>