<svg xmlns="http://www.w3.org/2000/svg" width="72" height="72"><path d="M56.697 60.837H15.303a4.14 5.229 0 0 1-4.14-5.229V16.392a4.14 5.229 0 0 1 4.14-5.229h41.394a4.14 5.229 0 0 1 4.14 5.229v39.216a4.14 5.229 0 0 1-4.14 5.229z" opacity=".5" fill="none" stroke="#fff" stroke-width="2.326"/><g style="line-height:0;-inkscape-font-specification:Prompt"><path d="M25.707 44.614l-1.178-4.098h-5.935l-1.189 4.098H13.72l5.594-17.287h4.463l5.616 17.287zm-2.026-7.16l-1.107-3.768q-.07-.212-.212-.695l-.306-1.06q-.153-.588-.294-1.177-.141-.589-.2-1-.047.258-.13.611-.07.354-.176.754-.095.389-.2.79l-.2.753q-.095.353-.177.624l-.106.4-1.095 3.768zm17.706 2.379q0 1.154-.4 2.084-.389.919-1.154 1.578-.754.648-1.86 1-1.096.354-2.52.354-1.249 0-2.415-.259-1.153-.259-2.143-.777v-3.391q.566.27 1.143.53.577.247 1.165.447.6.2 1.19.318.6.118 1.189.118.6 0 1.024-.13.436-.141.695-.377.271-.247.389-.577.13-.341.13-.741 0-.483-.213-.848-.2-.377-.577-.695-.365-.33-.895-.636-.518-.306-1.165-.648-.542-.282-1.213-.683-.671-.4-1.272-.989-.589-.6-.99-1.436-.4-.848-.4-2.026 0-1.154.377-2.06.389-.919 1.095-1.543.707-.636 1.708-.965 1.013-.33 2.26-.33.625 0 1.214.082.6.083 1.177.236.589.153 1.178.377.588.223 1.213.518l-1.178 2.838q-.53-.248-.99-.436-.458-.189-.894-.318-.436-.13-.86-.188-.412-.071-.836-.071-.918 0-1.413.494-.483.483-.483 1.296 0 .435.142.777.153.33.47.624.33.294.837.6.518.307 1.248.695.883.471 1.625.966.742.483 1.272 1.083.541.589.836 1.343.294.753.294 1.766zm16.893-3.992q0 2.178-.6 3.827-.589 1.637-1.72 2.744-1.118 1.095-2.755 1.648-1.625.554-3.709.554h-4.533V27.398h5.04q1.895 0 3.414.542 1.531.541 2.615 1.613 1.083 1.06 1.66 2.638.589 1.578.589 3.65zm-3.697.094q0-1.436-.294-2.473-.283-1.048-.836-1.73-.542-.684-1.343-1.013-.789-.33-1.813-.33h-1.684v11.21h1.342q2.308 0 3.462-1.413 1.166-1.413 1.166-4.25z" style="-inkscape-font-specification:'Droid Sans Bold'" aria-label="ASD" font-weight="700" font-size="21.333" font-family="Droid Sans" letter-spacing=".34" word-spacing="-1.21" fill="#fff" fill-opacity=".784"/></g></svg>