<svg xmlns="http://www.w3.org/2000/svg" xmlns:xlink="http://www.w3.org/1999/xlink" width="72" height="72"><defs><linearGradient id="a"><stop offset="0" stop-color="#fff"/><stop offset="1" stop-color="#fff" stop-opacity="0"/></linearGradient><linearGradient xlink:href="#a" id="b" x1="-76.86" y1="100.917" x2="-37.969" y2="234.206" gradientUnits="userSpaceOnUse"/></defs><path d="M56.697 11.163H15.303a4.14 5.229 0 0 0-4.14 5.229v39.216a4.14 5.229 0 0 0 4.14 5.229h41.394a4.14 5.229 0 0 0 4.14-5.229V16.392a4.14 5.229 0 0 0-4.14-5.229z" opacity=".5" fill="none" stroke="#fff" stroke-width="2.326"/><g style="line-height:125%;-inkscape-font-specification:'Noto Sans'"><path style="-inkscape-font-specification:'Noto Sans Bold'" d="M-81.83 100.768c-1.669 0-3 1.331-3 3v30c0 1.668 1.331 3 3 3h40c1.668 0 3-1.332 3-3v-30c0-1.669-1.332-3-3-3zm3.445 12.304h2.408v4.467h4.514v-4.467h2.408v11.389h-2.408v-4.912h-4.514v4.912h-2.408zm12.211 0h3.572c1.191 0 2.222.214 3.094.639a4.613 4.613 0 0 1 2.043 1.883c.49.83.733 1.848.733 3.06 0 1.925-.548 3.378-1.643 4.356-1.095.967-2.62 1.45-4.576 1.45h-3.223zm11.807 0h3.316c1.553 0 2.696.282 3.43.846.744.563 1.115 1.42 1.115 2.568 0 .521-.1.978-.303 1.371a3.067 3.067 0 0 1-.78.989 4.606 4.606 0 0 1-1.038.654l3.35 4.96h-2.68l-2.711-4.37h-1.291v4.37h-2.408zm-9.399 1.979v7.416h1.037c2.329 0 3.493-1.25 3.493-3.748 0-1.255-.276-2.18-.828-2.776-.553-.595-1.356-.892-2.409-.892zm11.807 0v3.078h.781c.798 0 1.367-.133 1.707-.399.351-.265.526-.658.526-1.18 0-.541-.187-.924-.559-1.148-.372-.234-.946-.351-1.723-.351z" transform="matrix(1.03487 0 0 1.3072 99.986 -119.254)" font-weight="700" aria-label="HDR" font-size="15.949" letter-spacing="0" word-spacing="0" font-family="Noto Sans" opacity=".8" fill="url(#b)"/></g></svg>