<svg xmlns="http://www.w3.org/2000/svg" width="64" height="64"><path d="M53.75 36.57l-1.536-2.74-3.088.577 2.133-2.307-1.504-2.759 2.853 1.316 2.16-2.283-.37 3.12 2.838 1.349-3.082.612z" opacity=".4" fill="#fff" fill-opacity=".991" stroke="#fff" stroke-linecap="round" stroke-linejoin="round"/><path d="M35.904 13.19l-3.507-.724-1.808 3.09-.394-3.559-3.499-.764 3.263-1.475-.354-3.564 2.412 2.648 3.28-1.438-1.774 3.111z" opacity=".6" fill="#fff" fill-opacity=".991" stroke="#fff" stroke-linecap="round" stroke-linejoin="round"/><path d="M58.694 25.186l-2.584-3.538-4.179 1.317 2.566-3.55-2.544-3.568 4.17 1.343 2.607-3.521.011 4.381 4.155 1.39-4.163 1.365z" opacity=".5" fill="#fff" fill-opacity=".991" stroke="#fff" stroke-width=".999" stroke-linecap="round" stroke-linejoin="round"/><path d="M41.977 19.229l-1.108-1.178-1.47.673.777-1.418-1.094-1.19 1.588.301.795-1.409.203 1.605 1.586.32-1.463.69z" opacity=".4" fill="#fff" fill-opacity=".991" stroke="#fff" stroke-linecap="round" stroke-linejoin="round"/><g fill="none" stroke="#fff" stroke-width="2" stroke-linecap="round"><g color="#000" stroke-linejoin="round"><path style="isolation:auto;mix-blend-mode:normal;solid-color:#000;solid-opacity:1;marker:none" d="M40.731 32.646l-3.167-8.19-8.707-1.141 6.811-5.543-1.606-8.634 7.376 4.766 7.715-4.196-2.253 8.488 6.375 6.04-8.769.481z" overflow="visible"/><path style="isolation:auto;mix-blend-mode:normal;solid-color:#000;solid-opacity:1;marker:none" d="M38.636 27.729l-2.67 3.502m-3.658 4.797L18.897 53.62c-1 1.312-2.76 1.64-3.946.737-1.186-.905-1.336-2.689-.336-4L28.013 32.78m3.671-4.814l2.67-3.503" overflow="visible" opacity=".5"/></g><path d="M6.676 12.686l50.648 38.613"/></g></svg>