<svg xmlns="http://www.w3.org/2000/svg" xmlns:xlink="http://www.w3.org/1999/xlink" width="64" height="64"><defs><linearGradient id="a"><stop offset="0" stop-color="#fff"/><stop offset="1" stop-color="#fff" stop-opacity="0"/></linearGradient><linearGradient xlink:href="#a" id="b" x1="-31.187" y1="93.5" x2="-42.063" y2="50.125" gradientUnits="userSpaceOnUse" gradientTransform="matrix(.6377 0 0 .6377 57.916 -20.666)"/><linearGradient xlink:href="#a" id="c" x1="40.25" y1="96" x2="70.5" y2="66.5" gradientUnits="userSpaceOnUse" gradientTransform="matrix(.39956 0 0 .44408 -65.362 -2.898)"/><linearGradient xlink:href="#a" id="d" x1="40.25" y1="96" x2="70.5" y2="66.5" gradientUnits="userSpaceOnUse" gradientTransform="matrix(.39956 0 0 .44408 -50.39 -2.941)"/></defs><path d="M52 13H12a4 4 0 0 0-4 4v30a4 4 0 0 0 4 4h40a4 4 0 0 0 4-4V17a4 4 0 0 0-4-4z" opacity=".5" fill="none" stroke="#fff" stroke-width="2"/><path d="M23.71 29.93c-.928.03-1.007.91-1.094 1.455l-.777 4.857c.414.83 1.495 1.5 2.422 1.5h1.114a3.748 3.748 0 0 1-.035-.48 3.746 3.746 0 0 1 3.746-3.746c2.07 0 3.31 1.678 3.2 3.747-.002.16-.014.32-.036.478h8.03a3.748 3.748 0 0 1-.034-.478 3.746 3.746 0 0 1 3.746-3.747c2.07 0 3.36 1.689 3.183 3.747-.001.16-.013.32-.036.478H52c.927 0 1.342-.67.927-1.5l-3.317-5.568c-.415-.83-1.496-1.528-2.423-1.498z" fill="url(#b)"/><path d="M43.442 27.917c-1.867-2.306-4.527-4.715-9.538-4.706-3.551.006-3.782-.03-5.592.086v0c-3.841.475-4.017 2.11-4.474 5.161" opacity=".5" fill="none" stroke="#fff" stroke-width="2" stroke-linecap="round" stroke-linejoin="round"/><ellipse cx="-47.297" cy="37.412" transform="matrix(-1,0,-0.09398355,0.99557375,0,0)" rx="2.347" ry="2.609" opacity=".758" fill="url(#c)" stroke="#fff" stroke-width="1.097" stroke-linecap="round" stroke-linejoin="round"/><ellipse cx="-32.325" cy="37.369" transform="matrix(-1,0,-0.09398355,0.99557375,0,0)" rx="2.347" ry="2.609" opacity=".758" fill="url(#d)" stroke="#fff" stroke-width="1.097" stroke-linecap="round" stroke-linejoin="round"/><path d="M21.316 24.2h-9.853" opacity=".4" fill="none" stroke="#fff" stroke-width="1.5" stroke-linecap="round"/><path d="M20.037 28.467h-8.574" opacity=".5" fill="none" stroke="#fff" stroke-width="1.5" stroke-linecap="round"/><path d="M19.444 32.734h-7.98M19.16 37h-7.697" opacity=".7" fill="none" stroke="#fff" stroke-width="1.5" stroke-linecap="round"/></svg>