<svg xmlns="http://www.w3.org/2000/svg" xmlns:xlink="http://www.w3.org/1999/xlink" width="72" height="72"><defs><linearGradient id="c"><stop offset="0" stop-color="#fff"/><stop offset="1" stop-color="#fff" stop-opacity="0"/></linearGradient><linearGradient id="b"><stop offset="0" stop-color="#fff"/><stop offset="1" stop-color="#fff" stop-opacity="0"/></linearGradient><linearGradient id="a"><stop offset="0" stop-color="#fff"/><stop offset="1" stop-color="#fff" stop-opacity="0"/></linearGradient><linearGradient xlink:href="#a" id="e" x1="124.165" y1="54.444" x2="84.628" y2="84.924" gradientUnits="userSpaceOnUse"/><linearGradient xlink:href="#b" id="d" x1="86.615" y1="106.623" x2="125.752" y2="149.841" gradientUnits="userSpaceOnUse"/><linearGradient xlink:href="#c" id="f" x1="-146.5" y1="253.369" x2="-127.956" y2="234.838" gradientUnits="userSpaceOnUse" gradientTransform="scale(1.391 .4042) rotate(-45 -2.16 2.173)"/></defs><path d="M56.697 11.163H15.303a4.14 5.229 0 0 0-4.14 5.229v39.216a4.14 5.229 0 0 0 4.14 5.229h41.394a4.14 5.229 0 0 0 4.14-5.229V16.392a4.14 5.229 0 0 0-4.14-5.229z" opacity=".5" fill="none" stroke="#fff" stroke-width="2.326"/><g stroke-width="1.095" fill="none" stroke-linejoin="round"><path d="M97.7 108.116h8.504v11.186h-8.505zm-8.505 0h8.504v11.186h-8.504zm8.504 11.186h8.505v11.187h-8.505zm-8.504 0h8.504v11.187h-8.504z" transform="matrix(.90914 -.3283 0 1.19424 -60.538 -77.194)" stroke="url(#d)" stroke-width="2.232"/><path d="M114.708 49.726h8.504v11.186h-8.504zm-8.504 0h8.504v11.186h-8.504zm8.504 11.186h8.504v11.186h-8.504zm-8.504 0h8.504v11.186h-8.504z" transform="matrix(.90914 .3283 0 1.19424 -60.538 -77.194)" stroke="url(#e)" stroke-width="2.232"/><path d="M110.232 103.599l-8.158 2.37-8.158-2.37m0 0l8.158 2.37-8.158 2.37-8.157-2.37m32.63 0l-8.157 2.37-8.158-2.37 8.158-2.37m-16.316 4.74l8.158-2.37 8.158 2.37-8.158 2.37z" transform="matrix(.94557 0 0 1.19424 -60.538 -77.194)" opacity=".8" stroke="url(#f)" stroke-width="2.189" stroke-linecap="round"/></g></svg>