<?xml version="1.0" encoding="UTF-8" standalone="no"?>
<svg
   xmlns:dc="http://purl.org/dc/elements/1.1/"
   xmlns:cc="http://creativecommons.org/ns#"
   xmlns:rdf="http://www.w3.org/1999/02/22-rdf-syntax-ns#"
   xmlns:svg="http://www.w3.org/2000/svg"
   xmlns="http://www.w3.org/2000/svg"
   xmlns:sodipodi="http://sodipodi.sourceforge.net/DTD/sodipodi-0.dtd"
   xmlns:inkscape="http://www.inkscape.org/namespaces/inkscape"
   width="72"
   height="72"
   version="1.1"
   id="svg4"
   sodipodi:docname="icon-m-scene_mode_asd.svg"
   inkscape:version="0.92.4 (5da689c313, 2019-01-14)">
  <metadata
     id="metadata10">
    <rdf:RDF>
      <cc:Work
         rdf:about="">
        <dc:format>image/svg+xml</dc:format>
        <dc:type
           rdf:resource="http://purl.org/dc/dcmitype/StillImage" />
        <dc:title></dc:title>
      </cc:Work>
    </rdf:RDF>
  </metadata>
  <defs
     id="defs8" />
  <sodipodi:namedview
     pagecolor="#ffffff"
     bordercolor="#666666"
     borderopacity="1"
     objecttolerance="10"
     gridtolerance="10"
     guidetolerance="10"
     inkscape:pageopacity="0"
     inkscape:pageshadow="2"
     inkscape:window-width="1876"
     inkscape:window-height="1055"
     id="namedview6"
     showgrid="false"
     inkscape:pagecheckerboard="true"
     inkscape:zoom="2.6074563"
     inkscape:cx="44.234187"
     inkscape:cy="-38.942821"
     inkscape:window-x="44"
     inkscape:window-y="0"
     inkscape:window-maximized="1"
     inkscape:current-layer="svg4" />
  <path
     d="M 56.697422,60.836906 H 15.302578 A 4.1394843,5.2288214 0 0 1 11.163094,55.608079 V 16.391923 a 4.1394843,5.2288214 0 0 1 4.139484,-5.228828 h 41.394844 a 4.1394843,5.2288214 0 0 1 4.139483,5.228828 v 39.216156 a 4.1394843,5.2288214 0 0 1 -4.139483,5.228827 z"
     id="path2"
     inkscape:connector-curvature="0"
     style="opacity:0.5;fill:none;stroke:#ffffff;stroke-width:2.32618928" />
  <g
     aria-label="ASD"
     style="font-style:normal;font-variant:normal;font-weight:normal;font-stretch:normal;font-size:8px;line-height:0px;font-family:Prompt;-inkscape-font-specification:Prompt;letter-spacing:0.34px;word-spacing:-1.21000051px;fill:#ffffff;fill-opacity:0.78431373;stroke:none;stroke-width:1px;stroke-linecap:butt;stroke-linejoin:miter;stroke-opacity:1"
     id="text835"
     transform="matrix(1.1304349,0,0,1.1304348,-0.17391281,-0.173913)">
    <path
       d="m 22.894375,39.619793 -1.041667,-3.625 h -5.25 l -1.052083,3.625 h -3.260417 l 4.947917,-15.291667 h 3.947916 l 4.968751,15.291667 z m -1.791667,-6.333334 -0.979167,-3.333333 q -0.0625,-0.1875 -0.1875,-0.614583 -0.125,-0.427084 -0.270833,-0.9375 -0.135417,-0.520834 -0.260417,-1.041667 -0.125,-0.520833 -0.177083,-0.885417 -0.04167,0.229167 -0.114583,0.541667 -0.0625,0.3125 -0.15625,0.666667 -0.08333,0.34375 -0.177084,0.697916 -0.09375,0.354167 -0.177083,0.666667 -0.08333,0.3125 -0.15625,0.552083 -0.0625,0.239584 -0.09375,0.354167 l -0.96875,3.333333 z"
       style="font-style:normal;font-variant:normal;font-weight:bold;font-stretch:normal;font-size:21.33333397px;font-family:'Droid Sans';-inkscape-font-specification:'Droid Sans Bold';fill:#ffffff;fill-opacity:0.78431373;stroke-width:1px"
       id="path822"
       inkscape:connector-curvature="0" />
    <path
       d="m 36.765625,35.390626 q 0,1.020834 -0.354167,1.84375 -0.34375,0.8125 -1.020833,1.395834 -0.666667,0.572916 -1.645833,0.885416 -0.96875,0.3125 -2.229167,0.3125 -1.104167,0 -2.135417,-0.229166 -1.020833,-0.229167 -1.895833,-0.6875 v -3.000001 q 0.5,0.239584 1.010416,0.468751 0.510417,0.21875 1.03125,0.395833 0.53125,0.177083 1.052084,0.28125 0.53125,0.104167 1.052083,0.104167 0.53125,0 0.90625,-0.114584 0.385417,-0.125 0.614584,-0.333333 0.239583,-0.21875 0.34375,-0.510417 0.114583,-0.302083 0.114583,-0.65625 0,-0.427083 -0.1875,-0.75 -0.177083,-0.333333 -0.510417,-0.614583 -0.322916,-0.291667 -0.791666,-0.5625 -0.458334,-0.270834 -1.031251,-0.572917 -0.479166,-0.25 -1.072916,-0.604167 -0.59375,-0.354166 -1.125,-0.875 -0.520834,-0.53125 -0.875,-1.270833 -0.354167,-0.75 -0.354167,-1.791667 0,-1.020833 0.333333,-1.822916 0.34375,-0.8125 0.96875,-1.364584 0.625,-0.5625 1.510417,-0.854167 0.895833,-0.291666 2,-0.291666 0.552084,0 1.072917,0.07292 0.53125,0.07292 1.041667,0.208334 0.520833,0.135416 1.041666,0.333333 0.520834,0.197917 1.072917,0.458334 l -1.041667,2.510416 q -0.46875,-0.21875 -0.875,-0.385416 -0.40625,-0.166667 -0.791666,-0.28125 -0.385417,-0.114584 -0.760417,-0.166667 -0.364583,-0.0625 -0.739583,-0.0625 -0.8125,0 -1.250001,0.4375 -0.427083,0.427083 -0.427083,1.145833 0,0.385417 0.125,0.6875 0.135417,0.291667 0.416667,0.552084 0.291667,0.260416 0.739583,0.53125 0.458334,0.270833 1.104167,0.614583 0.78125,0.416667 1.4375,0.854167 0.65625,0.427083 1.125,0.958333 0.479167,0.520833 0.739583,1.1875 0.260417,0.666667 0.260417,1.5625 z"
       style="font-style:normal;font-variant:normal;font-weight:bold;font-stretch:normal;font-size:21.33333397px;font-family:'Droid Sans';-inkscape-font-specification:'Droid Sans Bold';fill:#ffffff;fill-opacity:0.78431373;stroke-width:1px"
       id="path824"
       inkscape:connector-curvature="0" />
    <path
       d="m 51.709791,31.859376 q 0,1.927083 -0.53125,3.385417 -0.520833,1.447917 -1.520833,2.427083 -0.989583,0.96875 -2.4375,1.458334 -1.4375,0.489583 -3.28125,0.489583 H 39.928541 V 24.390626 h 4.458333 q 1.677084,0 3.020834,0.479166 1.354167,0.479167 2.3125,1.427084 0.958333,0.9375 1.46875,2.333333 0.520833,1.395834 0.520833,3.229167 z m -3.270833,0.08333 q 0,-1.270833 -0.260417,-2.1875 -0.25,-0.927083 -0.739583,-1.53125 -0.479167,-0.604166 -1.1875,-0.895833 -0.697917,-0.291667 -1.604167,-0.291667 h -1.489583 v 9.916667 h 1.1875 q 2.041666,0 3.0625,-1.25 1.03125,-1.25 1.03125,-3.760417 z"
       style="font-style:normal;font-variant:normal;font-weight:bold;font-stretch:normal;font-size:21.33333397px;font-family:'Droid Sans';-inkscape-font-specification:'Droid Sans Bold';fill:#ffffff;fill-opacity:0.78431373;stroke-width:1px"
       id="path826"
       inkscape:connector-curvature="0" />
  </g>
</svg>
