<svg xmlns="http://www.w3.org/2000/svg" xmlns:xlink="http://www.w3.org/1999/xlink" width="72" height="72"><defs><linearGradient xlink:href="#a" id="b" x1="29.875" y1="19.364" x2="42.515" y2="60.111" gradientUnits="userSpaceOnUse" gradientTransform="matrix(1.03487 0 0 1.08678 2.884 5.19)"/><linearGradient id="a"><stop offset="0" stop-color="#fff"/><stop offset="1" stop-color="#fff" stop-opacity="0"/></linearGradient></defs><path d="M52.346 24.04c-1.294 0-2.588.523-3.586 1.567l-13.1 15.655c-2.002 2.09-5.237 2.09-7.24 0l-1.045-1.104c-1.996-2.091-5.597-5.671-8.804-1.63l-6.373 8.03v9.711c0 1.813 1.378 3.26 3.105 3.26h41.394c1.727 0 3.105-1.447 3.105-3.26V29.746l-3.87-4.14a4.944 4.944 0 0 0-3.586-1.565z" fill="url(#b)"/><path d="M56.697 11.163H15.303a4.14 5.229 0 0 0-4.14 5.229v39.216a4.14 5.229 0 0 0 4.14 5.229h41.394a4.14 5.229 0 0 0 4.14-5.229V16.392a4.14 5.229 0 0 0-4.14-5.229z" opacity=".5" fill="none" stroke="#fff" stroke-width="2.326"/></svg>