<svg xmlns="http://www.w3.org/2000/svg" xmlns:xlink="http://www.w3.org/1999/xlink" width="72" height="72"><defs><linearGradient id="a"><stop offset="0" stop-color="#fff"/><stop offset="1" stop-color="#fff" stop-opacity="0"/></linearGradient><linearGradient xlink:href="#a" id="b" x1="-31.187" y1="93.5" x2="-42.063" y2="50.125" gradientUnits="userSpaceOnUse" gradientTransform="matrix(.65994 0 0 .76449 62.977 -26.35)"/><linearGradient xlink:href="#a" id="c" x1="40.25" y1="96" x2="70.5" y2="66.5" gradientUnits="userSpaceOnUse" gradientTransform="matrix(.4135 0 0 .53097 16.74 -91.379)"/><linearGradient xlink:href="#a" id="d" x1="40.25" y1="96" x2="70.5" y2="66.5" gradientUnits="userSpaceOnUse" gradientTransform="matrix(.4135 0 0 .53097 32.235 -91.431)"/></defs><path d="M56.697 11.163H15.303a4.14 5.229 0 0 0-4.14 5.229v39.216a4.14 5.229 0 0 0 4.14 5.229h41.394a4.14 5.229 0 0 0 4.14-5.229V16.392a4.14 5.229 0 0 0-4.14-5.229z" opacity=".5" fill="none" stroke="#fff" stroke-width="2.326"/><path d="M27.578 34.305c-.96.036-1.042 1.091-1.132 1.744l-.804 5.823c.428.995 1.547 1.798 2.506 1.798h1.153a3.879 4.493 0 0 1-.036-.575 3.877 4.49 0 0 1 3.877-4.49c2.142 0 3.425 2.01 3.311 4.491a5.268 5.268 0 0 1-.037.573h8.31a3.879 4.493 0 0 1-.035-.573 3.877 4.49 0 0 1 3.876-4.492c2.143 0 3.478 2.025 3.294 4.492a4.8 4.8 0 0 1-.037.573h5.03c.96 0 1.39-.803.96-1.798l-3.433-6.675c-.43-.995-1.548-1.832-2.507-1.796z" fill="url(#b)"/><path d="M47.998 31.98c-1.932-2.765-4.685-5.653-9.87-5.642-3.675.007-3.914-.036-5.787.103v0c-3.975.57-4.157 2.53-4.63 6.187" opacity=".5" fill="none" stroke="#fff" stroke-width="2.326" stroke-linecap="round" stroke-linejoin="round"/><ellipse cx="35.436" cy="-43.182" transform="skewX(-3.43) scale(1 -.99821)" rx="2.429" ry="3.119" opacity=".758" fill="url(#c)" stroke="#fff" stroke-width="1.274" stroke-linecap="round" stroke-linejoin="round"/><ellipse cx="50.93" cy="-43.234" transform="skewX(-3.43) scale(1 -.99821)" rx="2.429" ry="3.119" opacity=".758" fill="url(#d)" stroke="#fff" stroke-width="1.274" stroke-linecap="round" stroke-linejoin="round"/><path d="M25.1 27.436H14.905" opacity=".4" fill="none" stroke="#fff" stroke-width="1.745" stroke-linecap="round"/><path d="M23.777 32.551h-8.873" opacity=".5" fill="none" stroke="#fff" stroke-width="1.745" stroke-linecap="round"/><path d="M23.163 37.667h-8.258m7.965 5.114h-7.966" opacity=".7" fill="none" stroke="#fff" stroke-width="1.745" stroke-linecap="round"/></svg>