<svg xmlns="http://www.w3.org/2000/svg" xmlns:xlink="http://www.w3.org/1999/xlink" width="64" height="64"><defs><linearGradient id="a"><stop offset="0" stop-color="#fff"/><stop offset="1" stop-color="#fff" stop-opacity="0"/></linearGradient><linearGradient xlink:href="#a" id="b" x1="26.86" y1="21.958" x2="-9.75" y2="59" gradientUnits="userSpaceOnUse"/></defs><path d="M19.274 30.094c0 6.503 4.279 8.334 8.153 8.957a9.516 9.516 0 0 1-4.557 1.155 9.558 9.558 0 1 1 0-19.117c1.424 0 2.776.31 3.99.87-3.235.627-7.586 1.738-7.586 8.135z" fill="url(#b)"/><path d="M52 13H12a4 4 0 0 0-4 4v30a4 4 0 0 0 4 4h40a4 4 0 0 0 4-4V17a4 4 0 0 0-4-4z" opacity=".5" fill="none" stroke="#fff" stroke-width="2"/><g fill="none" stroke="#fff" stroke-width="1.016" stroke-linecap="round"><path d="M45.446 34.825l-1.983 1.983M44.454 34.414v2.805M45.856 35.816h-2.804M45.446 36.808l-1.983-1.983" stroke-width=".6251956"/></g><g fill="none" stroke="#fff" stroke-width="1.016" stroke-linecap="round"><path d="M37.709 36.778l-1.67 1.67M36.874 36.432v2.361M38.054 37.613h-2.36M37.709 38.447l-1.67-1.67" stroke-width=".52629816"/></g><g fill="none" stroke="#fff" stroke-width="1.016" stroke-linecap="round"><path d="M42.06 43.782l-1.607 1.607M41.256 43.45v2.271M42.392 44.585H40.12M42.06 45.389l-1.607-1.607" stroke-width=".50651664"/></g><g fill="none" stroke="#fff" stroke-width="1.016" stroke-linecap="round"><path d="M50.578 29.225l-.132-2.801M51.549 28.769l-2.074-1.888M49.568 28.861l1.888-2.073M49.111 27.89l2.802-.131" stroke-width=".6251956"/></g><g fill="none" stroke="#fff" stroke-width="1.016" stroke-linecap="round"><path d="M46.564 22.19l-.11-2.359M47.382 21.805l-1.746-1.59M45.715 21.883l1.589-1.745M45.33 21.066l2.358-.11" stroke-width=".52629816"/></g><g fill="none" stroke="#fff" stroke-width="1.016" stroke-linecap="round"><path d="M38.456 20.69l-.106-2.269M39.243 20.32l-1.68-1.529M37.638 20.396l1.53-1.68M37.269 19.61l2.27-.107" stroke-width=".50651664"/></g></svg>