<svg xmlns="http://www.w3.org/2000/svg" xmlns:xlink="http://www.w3.org/1999/xlink" width="64" height="64"><defs><linearGradient id="c"><stop offset="0" stop-color="#fff"/><stop offset="1" stop-color="#fff" stop-opacity="0"/></linearGradient><linearGradient id="b"><stop offset="0" stop-color="#fff"/><stop offset="1" stop-color="#fff" stop-opacity="0"/></linearGradient><linearGradient id="a"><stop offset="0" stop-color="#fff"/><stop offset="1" stop-color="#fff" stop-opacity="0"/></linearGradient><linearGradient xlink:href="#a" id="e" x1="124.165" y1="54.444" x2="84.628" y2="84.924" gradientUnits="userSpaceOnUse"/><linearGradient xlink:href="#b" id="d" x1="86.615" y1="106.623" x2="125.752" y2="149.841" gradientUnits="userSpaceOnUse"/><linearGradient xlink:href="#c" id="f" x1="-146.5" y1="253.369" x2="-127.956" y2="234.838" gradientUnits="userSpaceOnUse" gradientTransform="matrix(.9836 -.2858 .9836 .2858 -3.017 -.36)"/></defs><path d="M52 13H12a4 4 0 0 0-4 4v30a4 4 0 0 0 4 4h40a4 4 0 0 0 4-4V17a4 4 0 0 0-4-4z" opacity=".5" fill="none" stroke="#fff" stroke-width="2"/><g stroke-width="1.095"><path d="M97.7 108.116h8.504v11.186h-8.505zm-8.505 0h8.504v11.186h-8.504zm8.504 11.186h8.505v11.187h-8.505zm-8.504 0h8.504v11.187h-8.504z" transform="matrix(.87851 -.25114 0 .91358 -61.285 -54.592)" fill="none" stroke="url(#d)" stroke-width="2.232" stroke-linejoin="round"/><path d="M114.708 49.726h8.504v11.186h-8.504zm-8.504 0h8.504v11.186h-8.504zm8.504 11.186h8.504v11.186h-8.504zm-8.504 0h8.504v11.186h-8.504z" transform="matrix(.87851 .25114 0 .91358 -61.285 -54.592)" fill="none" stroke="url(#e)" stroke-width="2.232" stroke-linejoin="round"/><path d="M110.232 103.599l-8.158 2.37-8.158-2.37m0 0l8.158 2.37-8.158 2.37-8.157-2.37m32.63 0l-8.157 2.37-8.158-2.37 8.158-2.37m-16.316 4.74l8.158-2.37 8.158 2.37-8.158 2.37z" opacity=".8" fill="none" stroke="url(#f)" stroke-width="2.189" stroke-linecap="round" stroke-linejoin="round" transform="matrix(.91371 0 0 .91358 -61.285 -54.592)"/></g></svg>