<svg xmlns="http://www.w3.org/2000/svg" xmlns:xlink="http://www.w3.org/1999/xlink" width="64" height="64"><defs><linearGradient id="c"><stop offset="0" stop-color="#fff"/><stop offset="1" stop-color="#fff" stop-opacity="0"/></linearGradient><linearGradient id="b"><stop offset="0" stop-color="#fff"/><stop offset="1" stop-color="#fff" stop-opacity="0"/></linearGradient><linearGradient id="a"><stop offset="0" stop-color="#fff"/><stop offset="1" stop-color="#fff" stop-opacity="0"/></linearGradient><linearGradient xlink:href="#a" id="e" gradientUnits="userSpaceOnUse" gradientTransform="translate(122.375 28.615)" x1="-82.312" y1="66.813" x2="-48.312" y2="52.375"/><radialGradient xlink:href="#b" id="f" cx="83.781" cy="74.875" fx="83.781" fy="74.875" r="7.592" gradientUnits="userSpaceOnUse" gradientTransform="translate(4.87)"/><linearGradient xlink:href="#c" id="d" x1="20.86" y1="32.887" x2="24.395" y2="54.101" gradientUnits="userSpaceOnUse"/></defs><path d="M52 13H12a4 4 0 0 0-4 4v30a4 4 0 0 0 4 4h40a4 4 0 0 0 4-4V17a4 4 0 0 0-4-4z" opacity=".5" fill="none" stroke="#fff" stroke-width="2"/><path style="line-height:normal;font-variant-ligatures:normal;font-variant-position:normal;font-variant-caps:normal;font-variant-numeric:normal;font-variant-alternates:normal;font-feature-settings:normal;text-indent:0;text-align:start;text-decoration-line:none;text-decoration-style:solid;text-decoration-color:#fff;text-transform:none;text-orientation:mixed;white-space:normal;shape-padding:0;isolation:auto;mix-blend-mode:normal;solid-color:#fff;solid-opacity:1" d="M55 40v7c0 1.668-1.332 3-3 3H12c-1.668 0-3-1.332-3-3V33.938C19.228 32.47 48.798 36.302 55 40z" color="#fff" font-weight="400" font-family="sans-serif" overflow="visible" opacity=".36" fill="url(#d)"/><g stroke-width="1.361"><path d="M73.937 92.334H50.562c0-6.455 5.233-11.688 11.688-11.688 6.455 0 11.687 5.233 11.687 11.688z" style="isolation:auto;mix-blend-mode:normal;solid-color:#fff;solid-opacity:1;marker:none" color="#fff" overflow="visible" fill="url(#e)" fill-rule="evenodd" transform="matrix(.78087 .17976 -.15115 .65659 6.238 -40.91)"/><path d="M56.312 92.334c0-6.455 2.659-11.688 5.938-11.688 3.28 0 5.937 5.233 5.937 11.688m5.75 0H50.562c0-6.455 5.233-11.688 11.688-11.688 6.455 0 11.687 5.233 11.687 11.688z" style="isolation:auto;mix-blend-mode:normal;solid-color:#fff;solid-opacity:1;marker:none" color="#fff" overflow="visible" fill="none" stroke="#fff" stroke-width="2.041" stroke-linecap="round" stroke-linejoin="round" transform="matrix(.78087 .17976 -.15115 .65659 6.238 -40.91)"/><path d="M62.187 92.652v15.437M62.187 80.343v-.688" fill="none" stroke="#fff" stroke-width="2.722" stroke-linecap="round" transform="matrix(.78087 .17976 -.15115 .65659 6.238 -40.91)"/></g><g transform="translate(-71.639 -52.768)" color="#fff" fill-rule="evenodd"><circle r="3.031" cy="74.875" cx="88.651" style="isolation:auto;mix-blend-mode:normal;solid-color:#fff;solid-opacity:1;marker:none" overflow="visible" fill="#fff"/><path d="M88.651 67.283a7.591 7.591 0 0 0-.273.01c.07.028.318 6.971.386 6.984.069.013 2.855-6.356 2.93-6.353a7.591 7.591 0 0 0-3.043-.64zm3.043.64c.053.054-2.738 6.422-2.682 6.464.057.041 5.311-4.47 5.393-4.45a7.591 7.591 0 0 0-2.711-2.013zm2.711 2.014c.008.085-5.25 4.593-5.217 4.655.033.062 6.752-1.73 6.795-1.67a7.591 7.591 0 0 0-1.578-2.984zm1.578 2.985c-.007.074-6.727 1.862-6.725 1.932.003.07 6.828 1.367 6.846 1.44a7.591 7.591 0 0 0 .139-1.419 7.591 7.591 0 0 0-.26-1.953zm.121 3.373c-.044.062-6.868-1.24-6.896-1.176-.028.064 5.542 4.185 5.537 4.268h.002a7.591 7.591 0 0 0 1.357-3.092zm-1.36 3.092c-.076.029-5.643-4.097-5.696-4.051-.054.045 3.189 6.195 3.14 6.252a7.591 7.591 0 0 0 2.557-2.201zm-2.556 2.2c-.074.009-3.313-6.142-3.38-6.124-.068.018.185 6.96.117 6.994a7.591 7.591 0 0 0 3.263-.87zm-3.263.87c-.071-.028-.319-6.971-.387-6.984-.069-.013-2.855 6.356-2.93 6.353a7.591 7.591 0 0 0 3.043.64 7.591 7.591 0 0 0 .274-.009zm-3.317-.63c-.053-.054 2.738-6.422 2.682-6.464-.056-.041-5.31 4.47-5.393 4.45a7.591 7.591 0 0 0 2.711 2.013zm-2.71-2.014c-.01-.085 5.248-4.593 5.216-4.655-.033-.062-6.752 1.73-6.795 1.67a7.591 7.591 0 0 0 1.578 2.984zm-1.579-2.985c.007-.074 6.727-1.862 6.725-1.932-.003-.07-6.828-1.367-6.846-1.44a7.591 7.591 0 0 0-.139 1.419 7.591 7.591 0 0 0 .26 1.953zm-.121-3.373c.044-.062 6.868 1.24 6.896 1.176.028-.064-5.542-4.185-5.537-4.268h-.002a7.591 7.591 0 0 0-1.357 3.092zm1.36-3.092c.077-.029 5.644 4.097 5.697 4.051.053-.045-3.19-6.195-3.141-6.252a7.591 7.591 0 0 0-2.557 2.201zm2.556-2.2c.074-.009 3.313 6.142 3.38 6.124.068-.018-.185-6.96-.116-6.994a7.591 7.591 0 0 0-3.264.87z" style="isolation:auto;mix-blend-mode:normal;solid-color:#fff;solid-opacity:1;marker:none" overflow="visible" opacity=".755" fill="url(#f)"/></g></svg>