<?xml version="1.0" encoding="UTF-8" standalone="no"?>
<svg
   xmlns:dc="http://purl.org/dc/elements/1.1/"
   xmlns:cc="http://creativecommons.org/ns#"
   xmlns:rdf="http://www.w3.org/1999/02/22-rdf-syntax-ns#"
   xmlns:svg="http://www.w3.org/2000/svg"
   xmlns="http://www.w3.org/2000/svg"
   xmlns:xlink="http://www.w3.org/1999/xlink"
   xmlns:sodipodi="http://sodipodi.sourceforge.net/DTD/sodipodi-0.dtd"
   xmlns:inkscape="http://www.inkscape.org/namespaces/inkscape"
   width="72"
   height="72"
   version="1.1"
   id="svg4113"
   sodipodi:docname="icon-m-scene_mode_candlelight.svg"
   inkscape:version="0.92.4 (5da689c313, 2019-01-14)">
  <metadata
     id="metadata4117">
    <rdf:RDF>
      <cc:Work
         rdf:about="">
        <dc:format>image/svg+xml</dc:format>
        <dc:type
           rdf:resource="http://purl.org/dc/dcmitype/StillImage" />
        <dc:title></dc:title>
      </cc:Work>
    </rdf:RDF>
  </metadata>
  <sodipodi:namedview
     pagecolor="#ffffff"
     bordercolor="#666666"
     borderopacity="1"
     objecttolerance="10"
     gridtolerance="10"
     guidetolerance="10"
     inkscape:pageopacity="0"
     inkscape:pageshadow="2"
     inkscape:window-width="1876"
     inkscape:window-height="1055"
     id="namedview4115"
     showgrid="false"
     inkscape:pagecheckerboard="true"
     inkscape:zoom="7.375"
     inkscape:cx="38.521985"
     inkscape:cy="20.717822"
     inkscape:window-x="44"
     inkscape:window-y="0"
     inkscape:window-maximized="1"
     inkscape:current-layer="svg4113" />
  <defs
     id="defs4097">
    <linearGradient
       id="c">
      <stop
         offset="0"
         stop-color="#fff"
         stop-opacity=".67"
         id="stop4077" />
      <stop
         offset=".5"
         stop-color="#fff"
         stop-opacity=".796"
         id="stop4079" />
      <stop
         offset="1"
         stop-color="#fff"
         stop-opacity=".625"
         id="stop4081" />
    </linearGradient>
    <linearGradient
       id="b">
      <stop
         offset="0"
         stop-color="#fff"
         id="stop4084" />
      <stop
         offset="1"
         stop-color="#fff"
         stop-opacity="0"
         id="stop4086" />
    </linearGradient>
    <linearGradient
       id="a">
      <stop
         offset="0"
         stop-color="#fff"
         id="stop4089" />
      <stop
         offset="1"
         stop-color="#fff"
         stop-opacity="0"
         id="stop4091" />
    </linearGradient>
    <linearGradient
       xlink:href="#a"
       id="f"
       x1="39.421001"
       y1="106.073"
       x2="27.931"
       y2="105.631"
       gradientUnits="userSpaceOnUse"
       gradientTransform="matrix(-1.034871,0,0,1.3072055,86.420985,-92.953208)" />
    <linearGradient
       xlink:href="#b"
       id="d"
       x1="6.1869998"
       y1="105.631"
       x2="32.703999"
       y2="106.78"
       gradientUnits="userSpaceOnUse"
       gradientTransform="matrix(-1.034871,0,0,1.3072055,35.746456,-92.953208)" />
    <linearGradient
       xlink:href="#c"
       id="e"
       x1="21.504999"
       y1="107.212"
       x2="28.542999"
       y2="107.124"
       gradientUnits="userSpaceOnUse"
       gradientTransform="matrix(-1.034871,0,0,1.3072055,60.443652,-92.953208)" />
  </defs>
  <path
     d="M 56.697421,11.163095 H 15.302578 a 4.1394841,5.228822 0 0 0 -4.139484,5.228824 v 39.216164 a 4.1394841,5.228822 0 0 0 4.139484,5.228823 h 41.394843 a 4.1394841,5.228822 0 0 0 4.139484,-5.228823 V 16.391919 a 4.1394841,5.228822 0 0 0 -4.139484,-5.228824 z"
     id="path4099"
     inkscape:connector-curvature="0"
     style="opacity:0.5;fill:none;stroke:#ffffff;stroke-width:2.32618928" />
  <path
     style="color:#ffffff;font-weight:400;line-height:normal;font-family:sans-serif;font-variant-ligatures:normal;font-variant-position:normal;font-variant-caps:normal;font-variant-numeric:normal;font-variant-alternates:normal;font-feature-settings:normal;text-indent:0;text-align:start;text-decoration:none;text-decoration-line:none;text-decoration-style:solid;text-decoration-color:#ffffff;text-transform:none;text-orientation:mixed;white-space:normal;shape-padding:0;overflow:visible;isolation:auto;mix-blend-mode:normal;solid-color:#ffffff;solid-opacity:1;fill:url(#d);stroke-width:1.16309464;paint-order:stroke fill markers"
     d="m 25.279772,37.456227 a 1.034871,1.3072055 0 0 1 0.991404,1.294135 l 0.116941,17.33093 a 1.034871,1.3072055 0 0 1 -1.034871,1.317663 H 20.140602 A 1.034871,1.3072055 0 0 1 19.10573,56.102207 L 19.01465,39.135986 a 1.034871,1.3072055 0 0 1 0.975884,-1.315049 l 5.186773,-0.366017 a 1.0069295,1.2719109 0 0 1 0.103492,0 z"
     font-weight="400"
     overflow="visible"
     id="path4103"
     inkscape:connector-curvature="0" />
  <path
     d="m 25.993832,30.326729 c 0,2.712452 -1.310147,4.911171 -2.926616,4.911171 -1.616468,0 -2.92765,-2.198719 -2.92765,-4.911171 0,-2.712451 0.670598,-14.269455 2.287065,-14.269455 1.707537,8.89684 3.567201,11.557004 3.567201,14.269455 z m 6.523826,0.681054 c 0.184207,1.752963 1.331879,3.052325 2.56234,2.903304 1.231498,-0.149022 2.078022,-1.691524 1.893816,-3.444487 -0.186277,-1.751655 -1.484005,-9.159589 -2.714466,-9.010568 -0.693365,5.908569 -1.926931,7.800096 -1.74169,9.551751 z"
     id="path4105"
     inkscape:connector-curvature="0"
     style="opacity:0.8;fill:#ffffff;stroke-width:1.16309464;paint-order:stroke fill markers" />
  <path
     style="color:#ffffff;font-weight:400;line-height:normal;font-family:sans-serif;font-variant-ligatures:normal;font-variant-position:normal;font-variant-caps:normal;font-variant-numeric:normal;font-variant-alternates:normal;font-feature-settings:normal;text-indent:0;text-align:start;text-decoration:none;text-decoration-line:none;text-decoration-style:solid;text-decoration-color:#ffffff;text-transform:none;text-orientation:mixed;white-space:normal;shape-padding:0;overflow:visible;isolation:auto;mix-blend-mode:normal;solid-color:#ffffff;solid-opacity:1;fill:url(#e);stroke-width:1.16309464;paint-order:stroke fill markers"
     d="m 36.815477,36.990863 a 1.034871,1.3072055 0 0 1 1.005894,1.281061 l 0.275277,17.793681 a 1.034871,1.3072055 0 0 1 -1.034871,1.33335 H 33.037164 A 1.034871,1.3072055 0 0 1 32.002293,56.091749 V 38.645785 a 1.034871,1.3072055 0 0 1 0.96036,-1.304592 l 3.749338,-0.345101 a 1.0079644,1.2732182 0 0 1 0.10349,-0.0052 z"
     font-weight="400"
     overflow="visible"
     id="path4107"
     inkscape:connector-curvature="0" />
  <path
     style="color:#ffffff;font-weight:400;line-height:normal;font-family:sans-serif;font-variant-ligatures:normal;font-variant-position:normal;font-variant-caps:normal;font-variant-numeric:normal;font-variant-alternates:normal;font-feature-settings:normal;text-indent:0;text-align:start;text-decoration:none;text-decoration-line:none;text-decoration-style:solid;text-decoration-color:#ffffff;text-transform:none;text-orientation:mixed;white-space:normal;shape-padding:0;overflow:visible;isolation:auto;mix-blend-mode:normal;solid-color:#ffffff;solid-opacity:1;fill:url(#f);stroke-width:1.16309464;paint-order:stroke fill markers"
     d="m 49.987316,37.801329 a 1.034871,1.3072055 0 0 1 1.00693,1.296748 l 0.09108,16.985829 a 1.034871,1.3072055 0 0 1 -1.034872,1.315049 h -4.024618 a 1.034871,1.3072055 0 0 1 -1.034871,-1.315049 l 0.09108,-16.639419 a 1.034871,1.3072055 0 0 1 0.962432,-1.294133 l 3.839371,-0.34641 c 0.03518,-0.0026 0.06934,-0.004 0.10349,-0.0026 z"
     font-weight="400"
     overflow="visible"
     id="path4109"
     inkscape:connector-curvature="0" />
  <path
     d="m 51.8832,30.539803 c -0.201799,2.69938 -1.671317,4.732084 -3.280541,4.538618 -1.609225,-0.19216 -2.749653,-2.535978 -2.546817,-5.236664 0.202834,-2.700689 2.00765,-8.695533 3.342633,-13.933505 2.590282,6.750409 2.687561,11.930865 2.484725,14.631551 z"
     id="path4111"
     inkscape:connector-curvature="0"
     style="opacity:0.8;fill:#ffffff;stroke-width:1.16309464;paint-order:stroke fill markers" />
</svg>
