<svg xmlns="http://www.w3.org/2000/svg" width="72" height="72"><path d="M56.697 11.163H15.303a4.14 5.229 0 0 0-4.14 5.229v39.216a4.14 5.229 0 0 0 4.14 5.229h41.394a4.14 5.229 0 0 0 4.14-5.229V16.392a4.14 5.229 0 0 0-4.14-5.229z" opacity=".5" fill="none" stroke="#fff" stroke-width="2.326"/><path style="isolation:auto;mix-blend-mode:normal;solid-color:#fff;solid-opacity:1;marker:none" d="M36 22.435a13.565 13.565 0 0 0-2.612.266l7.083 12.268 4.97-8.692A13.565 13.565 0 0 0 36 22.435zm-3.686.512a13.565 13.565 0 0 0-9.152 8.71h14.23zm13.826 4.068L39.11 39.19l10.07-.042A13.565 13.565 0 0 0 49.565 36a13.565 13.565 0 0 0-3.425-8.984zm-12.954 5.567l-10.307.043A13.565 13.565 0 0 0 22.435 36a13.565 13.565 0 0 0 3.524 9.098zm-1.404 4.288l-5.118 8.949A13.565 13.565 0 0 0 36 49.565a13.565 13.565 0 0 0 2.918-.335zm3.05 3.352l5.1 8.748a13.565 13.565 0 0 0 8.95-8.748z" overflow="visible" color="#fff" fill="#fff" fill-rule="evenodd"/></svg>