<svg xmlns="http://www.w3.org/2000/svg" xmlns:xlink="http://www.w3.org/1999/xlink" width="64" height="64"><defs><linearGradient id="e"><stop offset="0" stop-color="#fff"/><stop offset="1" stop-color="#fff" stop-opacity="0"/></linearGradient><linearGradient id="d"><stop offset="0" stop-color="#fff"/><stop offset="1" stop-color="#fff" stop-opacity="0"/></linearGradient><linearGradient id="c"><stop offset="0" stop-color="#fff"/><stop offset="1" stop-color="#fff" stop-opacity="0"/></linearGradient><linearGradient id="b"><stop offset="0" stop-color="#fff"/><stop offset="1" stop-color="#fff" stop-opacity="0"/></linearGradient><linearGradient id="a"><stop offset="0" stop-color="#fff"/><stop offset="1" stop-color="#fff" stop-opacity="0"/></linearGradient><linearGradient xlink:href="#c" id="f" x1="22.252" y1="24.271" x2="25.813" y2="55.125" gradientUnits="userSpaceOnUse"/><linearGradient xlink:href="#d" id="h" x1="35.313" y1="26.562" x2="29.75" y2="52.563" gradientUnits="userSpaceOnUse"/><linearGradient xlink:href="#e" id="g" x1="43.813" y1="33.625" x2="30.625" y2="55.438" gradientUnits="userSpaceOnUse" gradientTransform="translate(-1 .875)"/></defs><path d="M52 13H12a4 4 0 0 0-4 4v30a4 4 0 0 0 4 4h40a4 4 0 0 0 4-4V17a4 4 0 0 0-4-4z" opacity=".5" fill="none" stroke="#fff" stroke-width="2"/><path d="M29.058 42.567c-1.707-11.262-6.806-18.296-6.806-18.296-.524 1.043-1.358 1.466-2.21 1.856 0 0 5.767 9.04 7.956 15.733.834 2.551 1.685 4.828 1.06.707z" fill="url(#f)" fill-rule="evenodd" opacity=".7"/><path d="M33.298 46.275c3.107-10.96 9.047-17.298 9.047-17.298.389 1.1 1.164 1.625 1.96 2.118 0 0-6.855 8.246-9.866 14.612-1.148 2.426-2.278 4.578-1.141.568z" opacity=".7" fill="url(#g)" fill-rule="evenodd"/><path d="M31.494 43.539c2.988-11.335 3.9-19.128 3.9-19.128-.997.608-1.93.526-2.857.407 0 0-.658 9.358-1.57 17.56-.296 2.667-.536 5.19.527 1.16z" fill="url(#h)" fill-rule="evenodd" opacity=".7"/><g opacity=".775" stroke-width="1.124" fill="none" stroke="#fff" stroke-linecap="round"><path d="M48.35 17.956l-3.223 3.222M46.738 17.288v4.558M49.017 19.567H44.46M48.35 21.178l-3.223-3.222" transform="matrix(1.77901 0 0 1.77901 -37.098 -10.333)"/></g><g opacity=".882" stroke-width=".896" fill="none" stroke="#fff" stroke-linecap="round"><path d="M43.246 26.138l-3.222 3.222M41.635 25.47v4.558M43.914 27.749h-4.558M43.246 29.36l-3.222-3.222" transform="matrix(1.12169 0 0 1.10948 -13.169 -10.114)"/></g><g opacity=".809" stroke-width=".931" fill="none" stroke="#fff" stroke-linecap="round"><path d="M51.547 27.602l-3.223 3.223M49.935 26.935v4.557M52.214 29.214h-4.557M51.547 30.825l-3.223-3.223" transform="matrix(1.07953 0 0 1.06778 -36.643 9.426)"/></g><g opacity=".7" fill="none" stroke="#fff" stroke-width="1.016" stroke-linecap="round"><path d="M46.413 45.789l-.131-2.801M47.384 45.332l-2.073-1.888M45.403 45.425l1.888-2.074M44.947 44.454l2.801-.131" stroke-width=".6251956"/></g><g opacity=".778" stroke-width="1.326" fill="none" stroke="#fff" stroke-linecap="round"><path d="M51.547 27.602l-3.223 3.223M49.935 26.935v4.557M52.214 29.214h-4.557M51.547 30.825l-3.223-3.223" transform="matrix(-1.0154 1.11512 -1.11512 -1.0154 100.86 -4.879)"/></g></svg>