<svg xmlns="http://www.w3.org/2000/svg" xmlns:xlink="http://www.w3.org/1999/xlink" width="64" height="64"><defs><linearGradient id="a"><stop offset="0" stop-color="#fff"/><stop offset="1" stop-color="#fff" stop-opacity="0"/></linearGradient><radialGradient xlink:href="#a" id="b" cx="77.027" cy="10.784" fx="77.027" fy="10.784" r="20.875" gradientTransform="matrix(-1.12936 1.30674 -1.4859 -1.70095 148.837 -52.87)" gradientUnits="userSpaceOnUse"/></defs><path d="M57.437 35.32l-1.535-2.74-3.089.577 2.133-2.307-1.503-2.759 2.853 1.316 2.16-2.283-.37 3.12 2.837 1.349-3.081.612z" opacity=".4" fill="#fff" fill-opacity=".991" stroke="#fff" stroke-linecap="round" stroke-linejoin="round"/><path d="M54.382 20.374l-2.585-3.538-4.178 1.317 2.566-3.551-2.544-3.567 4.17 1.343 2.607-3.522.01 4.382 4.156 1.39-4.164 1.365z" opacity=".5" fill="#fff" fill-opacity=".991" stroke="#fff" stroke-width=".999" stroke-linecap="round" stroke-linejoin="round"/><path d="M45.414 8.104l-1.108-1.178-1.47.673.778-1.418-1.095-1.19 1.589.301.794-1.409.204 1.605 1.585.32-1.463.69z" opacity=".4" fill="#fff" fill-opacity=".991" stroke="#fff" stroke-linecap="round" stroke-linejoin="round"/><path style="isolation:auto;mix-blend-mode:normal;solid-color:#000;solid-opacity:1;marker:none" d="M49.27 40.125c0 10.977-9.857 16.75-17.27 16.75s-17.27-5.773-17.27-16.75 9.49-11.976 17.27-33c7.3 19.058 17.27 22.023 17.27 33z" color="#000" overflow="visible" fill="url(#b)" fill-rule="evenodd" stroke="#fff" stroke-width="2" stroke-linecap="round" stroke-linejoin="round"/><path d="M43.843 43.207c-2.11 5.379-6.28 6.848-6.28 6.848" fill="none" stroke="#fff" stroke-width="2" stroke-linecap="round"/></svg>