<svg xmlns="http://www.w3.org/2000/svg" width="72" height="72"><path d="M56.697 11.163H15.303a4.14 5.229 0 0 0-4.14 5.229v39.216a4.14 5.229 0 0 0 4.14 5.229h41.394a4.14 5.229 0 0 0 4.14-5.229V16.392a4.14 5.229 0 0 0-4.14-5.229z" opacity=".5" fill="none" stroke="#fff" stroke-width="2.326"/><path style="isolation:auto;mix-blend-mode:normal;solid-color:#fff;solid-opacity:1;marker:none" d="M36 22.435a13.565 13.565 0 0 0-8.515 3.01h12.961l-1.57-2.694A13.565 13.565 0 0 0 36 22.435zm4.955.95l6.422 11.124 1.521-2.66a13.565 13.565 0 0 0-7.944-8.464zM29.334 26.83l-3.322.014A13.565 13.565 0 0 0 22.435 36a13.565 13.565 0 0 0 .219 2.401zm20.05 6.988l-6.422 11.123 3.238-.014A13.565 13.565 0 0 0 49.565 36a13.565 13.565 0 0 0-.182-2.18zM24.876 37.33l-1.715 2.997a13.565 13.565 0 0 0 8.321 8.447zm6.903 9.103l1.68 2.884a13.565 13.565 0 0 0 2.541.247 13.565 13.565 0 0 0 8.652-3.131z" overflow="visible" color="#fff" fill="#fff" fill-rule="evenodd"/></svg>