<svg xmlns="http://www.w3.org/2000/svg" xmlns:xlink="http://www.w3.org/1999/xlink" width="72" height="72"><defs><linearGradient id="d"><stop offset="0" stop-color="#fff"/><stop offset="1" stop-color="#fff" stop-opacity="0"/></linearGradient><linearGradient id="c"><stop offset="0" stop-color="#fff"/><stop offset="1" stop-color="#fff" stop-opacity="0"/></linearGradient><linearGradient id="b"><stop offset="0" stop-color="#fff"/><stop offset="1" stop-color="#fff" stop-opacity="0"/></linearGradient><linearGradient id="a"><stop offset="0" stop-color="#fff"/><stop offset="1" stop-color="#fff" stop-opacity="0"/></linearGradient><linearGradient xlink:href="#a" id="f" x1="19.25" y1="41.188" x2="39.75" y2="28.813" gradientUnits="userSpaceOnUse" gradientTransform="matrix(.71018 0 0 .85461 12.62 11.25)"/><linearGradient xlink:href="#b" id="g" x1="45.625" y1="42" x2="31.25" y2="29.313" gradientUnits="userSpaceOnUse" gradientTransform="matrix(.71018 0 0 .85461 12.62 14.354)"/><linearGradient xlink:href="#c" id="e" x1="19" y1="18.313" x2="68.563" y2="50.125" gradientUnits="userSpaceOnUse" gradientTransform="matrix(1.03487 0 0 1.3072 2.884 -5.83)"/><linearGradient xlink:href="#d" id="h" x1="29.375" y1="40.313" x2="44.625" y2="40.938" gradientUnits="userSpaceOnUse" gradientTransform="matrix(1.03487 0 0 1.3072 2.884 -5.83)"/></defs><path d="M56.697 11.163H15.303a4.14 5.229 0 0 0-4.14 5.229v39.216a4.14 5.229 0 0 0 4.14 5.229h41.394a4.14 5.229 0 0 0 4.14-5.229V16.392a4.14 5.229 0 0 0-4.14-5.229z" opacity=".5" fill="none" stroke="#fff" stroke-width="2.326"/><path d="M47.845 13.85c0 13.37-5.303 24.209-11.845 24.209-6.542 0-11.845-10.838-11.845-24.21l6.951 3.35 3.933-3.35 5.122 3.12z" fill="url(#e)" paint-order="stroke fill markers"/><path d="M32.857 51.673c-3.852.244-9.04-9.889-7.037-13.412 3.85-.243 9.031 9.449 7.037 13.412z" opacity=".8" fill="url(#f)" paint-order="stroke fill markers"/><path d="M39.143 54.778c3.852.243 9.04-9.889 7.037-13.412-3.85-.243-9.031 9.449-7.037 13.412z" opacity=".8" fill="url(#g)" paint-order="stroke fill markers"/><rect width="4.116" height="20.745" x="33.942" y="38.362" ry="1.471" opacity=".8" fill="url(#h)" paint-order="stroke fill markers"/></svg>