<svg xmlns="http://www.w3.org/2000/svg" xmlns:xlink="http://www.w3.org/1999/xlink" width="64" height="64"><defs><linearGradient id="c"><stop offset="0" stop-color="#fff" stop-opacity=".899"/><stop offset=".49" stop-color="#fff" stop-opacity=".5"/><stop offset=".51" stop-color="#fff" stop-opacity=".931"/><stop offset="1" stop-color="#fff" stop-opacity=".5"/></linearGradient><linearGradient id="b"><stop offset="0" stop-color="#fff"/><stop offset=".5" stop-color="#fff" stop-opacity=".73"/><stop offset="1" stop-color="#fff" stop-opacity="0"/></linearGradient><linearGradient id="a"><stop offset="0" stop-color="#fff"/><stop offset="1" stop-color="#fff" stop-opacity="0"/></linearGradient><radialGradient xlink:href="#b" id="d" cx="32" cy="32" fx="32" fy="32" r="23" gradientTransform="matrix(1.53044 -.03843 .03122 1.2433 -17.973 -6.556)" gradientUnits="userSpaceOnUse"/><linearGradient xlink:href="#c" id="e" x1="74.246" y1="-52.849" x2="107.834" y2="-52.849" gradientUnits="userSpaceOnUse" gradientTransform="matrix(.70212 0 0 .70212 -32.045 69.377)"/></defs><path d="M52 13H12a4 4 0 0 0-4 4v30a4 4 0 0 0 4 4h40a4 4 0 0 0 4-4V17a4 4 0 0 0-4-4z" opacity=".5" fill="none" stroke="#fff" stroke-width="2"/><path style="line-height:normal;font-variant-ligatures:normal;font-variant-position:normal;font-variant-caps:normal;font-variant-numeric:normal;font-variant-alternates:normal;font-feature-settings:normal;text-indent:0;text-align:start;text-decoration-line:none;text-decoration-style:solid;text-decoration-color:#fff;text-transform:none;text-orientation:mixed;white-space:normal;shape-padding:0;isolation:auto;mix-blend-mode:normal;solid-color:#fff;solid-opacity:1" d="M12 14c-1.668 0-3 1.332-3 3v12.693a5.215 11.402 0 0 0 .828.592 5.935 5.935 0 0 0-.828.307V47c0 1.668 1.332 3 3 3h4.574C18.562 49.683 20 48.644 20 45.547c0-5.112-3.918-14.02-7.756-15.299a5.215 11.402 0 0 0 3.97-11.06 5.215 11.402 0 0 0-.15-2.667A22.804 7.16 0 0 0 32 18.568a22.804 7.16 0 0 0 15.934-2.039 5.215 11.402 0 0 0-.149 2.659 5.215 11.402 0 0 0 3.973 11.058C47.919 31.522 44 40.434 44 45.546c0 3.098 1.438 4.137 3.426 4.454H52c1.668 0 3-1.332 3-3V30.594a5.94 5.94 0 0 0-.832-.309A5.215 11.402 0 0 0 55 29.69V17c0-1.668-1.332-3-3-3H12z" color="#fff" font-weight="400" font-family="sans-serif" overflow="visible" opacity=".5" fill="url(#d)"/><path style="isolation:auto;mix-blend-mode:normal;solid-color:#fff;solid-opacity:1;marker:none" d="M20.21 18.804v18.12A11.766 11.766 0 0 0 32 48.716c6.532 0 11.79-5.26 11.79-11.792v-18.12c-7.86 1.754-15.72 1.885-23.58 0zm5.419 5.644c.679 0 1.216.2 1.614.598.421.421.632.923.632 1.509 0 .561-.21 1.042-.632 1.44-.398.42-.935.632-1.614.632-.632 0-1.159-.211-1.58-.633a1.964 1.964 0 0 1-.598-1.44c0-.585.2-1.087.598-1.508.421-.398.948-.598 1.58-.598zm12.672 0c.679 0 1.218.2 1.616.598.42.421.632.923.632 1.509 0 .561-.211 1.042-.632 1.44-.398.42-.937.632-1.616.632-.632 0-1.158-.211-1.58-.633a1.963 1.963 0 0 1-.596-1.44c0-.585.199-1.087.596-1.508.422-.398.948-.598 1.58-.598zM23.458 36.815c2.633 1.53 5.358 3.878 8.165 3.891v1.33c-3.255-.01-6.088-2.662-8.634-4.224zm8.726-1.245c3.255.01 6.088 2.84 8.634 4.402l-.47.996c-2.632-1.53-5.357-4.054-8.164-4.068z" color="#fff" overflow="visible" fill="url(#e)" fill-rule="evenodd"/></svg>