<svg xmlns="http://www.w3.org/2000/svg" xmlns:xlink="http://www.w3.org/1999/xlink" width="64" height="64"><defs><linearGradient id="b"><stop offset="0" stop-color="#fff"/><stop offset="1" stop-color="#fff" stop-opacity="0"/></linearGradient><linearGradient id="a"><stop offset="0" stop-color="#fff"/><stop offset="1" stop-color="#fff" stop-opacity="0"/></linearGradient><linearGradient xlink:href="#a" id="d" x1="40.791" y1="17.552" x2="31.378" y2="66.961" gradientUnits="userSpaceOnUse" gradientTransform="translate(.008 .996)"/><linearGradient xlink:href="#b" id="c" x1="8.5" y1="19.25" x2="62.625" y2="36.313" gradientUnits="userSpaceOnUse" gradientTransform="translate(.008 .996)"/></defs><path d="M57.437 35.32l-1.535-2.74-3.089.577 2.133-2.307-1.503-2.759 2.853 1.316 2.16-2.283-.37 3.12 2.837 1.349-3.081.612z" opacity=".4" fill="#fff" fill-opacity=".991" stroke="#fff" stroke-linecap="round" stroke-linejoin="round"/><path d="M54.382 20.374l-2.585-3.538-4.178 1.317 2.566-3.551-2.544-3.567 4.17 1.343 2.607-3.522.01 4.382 4.156 1.39-4.164 1.365z" opacity=".5" fill="#fff" fill-opacity=".991" stroke="#fff" stroke-width=".999" stroke-linecap="round" stroke-linejoin="round"/><path d="M45.414 8.104l-1.108-1.178-1.47.673.778-1.418-1.095-1.19 1.589.301.794-1.409.204 1.605 1.585.32-1.463.69z" opacity=".4" fill="#fff" fill-opacity=".991" stroke="#fff" stroke-linecap="round" stroke-linejoin="round"/><path style="line-height:normal;font-variant-ligatures:normal;font-variant-position:normal;font-variant-caps:normal;font-variant-numeric:normal;font-variant-alternates:normal;font-feature-settings:normal;text-indent:0;text-align:start;text-decoration-line:none;text-decoration-style:solid;text-decoration-color:#000;text-transform:none;text-orientation:mixed;white-space:normal;shape-padding:0;isolation:auto;mix-blend-mode:normal;solid-color:#000;solid-opacity:1;marker:none" d="M15.008 13.121a1 1 0 0 0-1 1v37.75a1 1 0 0 0 1 1h8a1 1 0 0 0 1-1v-37.75a1 1 0 0 0-1-1z" color="#000" font-weight="400" font-family="sans-serif" overflow="visible" fill="url(#c)" fill-rule="evenodd" filter="url(#filter1065)"/><path d="M46.008 24.532V41.46m-6-18.473v20.018m-6-22.049v24.08m-6-27.242v30.405" fill="none" stroke="url(#d)" stroke-width="4" stroke-linecap="round" stroke-linejoin="round"/><path d="M48.992 29.969v6.055M26.861 51.872h18.56m0-6.055v6.055M18.019 12.113h2.79" opacity=".6" fill="none" stroke="#fff" stroke-width="2" stroke-linecap="round" stroke-linejoin="round"/></svg>