<svg xmlns="http://www.w3.org/2000/svg" xmlns:xlink="http://www.w3.org/1999/xlink" width="64" height="64"><defs><linearGradient id="b"><stop offset="0" stop-color="#fff"/><stop offset="1" stop-color="#fff" stop-opacity="0"/></linearGradient><linearGradient id="a"><stop offset="0" stop-color="#fff"/><stop offset="1" stop-color="#fff" stop-opacity="0"/></linearGradient><linearGradient xlink:href="#a" id="d" x1="-10.96" y1="35.1" x2="-10.96" y2="79.622" gradientUnits="userSpaceOnUse"/><linearGradient xlink:href="#a" id="e" x1="-11.402" y1="16.842" x2="-11.402" y2="50.106" gradientUnits="userSpaceOnUse" gradientTransform="translate(0 3.991)"/><linearGradient xlink:href="#a" id="f" x1="-12.75" y1="25.652" x2="-12.75" y2="56.912" gradientUnits="userSpaceOnUse" gradientTransform="translate(.001 2)"/><linearGradient xlink:href="#b" id="c" x1="35.444" y1="37.483" x2="35.444" y2="62.674" gradientUnits="userSpaceOnUse"/></defs><path style="line-height:normal;font-variant-ligatures:normal;font-variant-position:normal;font-variant-caps:normal;font-variant-numeric:normal;font-variant-alternates:normal;font-feature-settings:normal;text-indent:0;text-align:start;text-decoration-line:none;text-decoration-style:solid;text-decoration-color:#fff;text-transform:none;text-orientation:mixed;white-space:normal;shape-padding:0;isolation:auto;mix-blend-mode:normal;solid-color:#fff;solid-opacity:1" d="M55 39.125V47c0 1.668-1.332 3-3 3H12c-1.668 0-3-1.332-3-3v-9.375c.598-.19 1.878-.213 3.65-.126-.116 5.866 4.55 9.136 8.873 8.9 3.506-.192 7.262-2.777 7.864-7.38 9.293 1.458 14.218 1.915 25.613.106z" color="#fff" font-weight="400" font-family="sans-serif" overflow="visible" opacity=".5" fill="url(#c)"/><path d="M-16.754 35.914a8.397 8.397 0 0 0-3.219 6.607 8.397 8.397 0 0 0 8.397 8.397 8.397 8.397 0 0 0 8.398-8.397 8.397 8.397 0 0 0-3.22-6.597 5.525 5.525 0 0 1-5.178 3.605 5.525 5.525 0 0 1-5.178-3.615z" fill="url(#d)" transform="translate(32.625 -4.504)"/><path d="M-7.774 26.89a3.8 3.8 0 0 1-3.801 3.801 3.8 3.8 0 0 1-3.8-3.8 3.8 3.8 0 0 1 3.8-3.8 3.8 3.8 0 0 1 3.8 3.8z" fill="url(#e)" transform="translate(32.625 -4.504)"/><path d="M-14.501 29.32a5.525 5.525 0 0 0-2.6 4.684 5.525 5.525 0 0 0 5.526 5.525 5.525 5.525 0 0 0 5.525-5.525 5.525 5.525 0 0 0-2.6-4.68 3.8 3.8 0 0 1-2.925 1.375 3.8 3.8 0 0 1-2.926-1.379z" fill="url(#f)" transform="translate(32.625 -4.504)"/><path d="M52 13H12a4 4 0 0 0-4 4v30a4 4 0 0 0 4 4h40a4 4 0 0 0 4-4V17a4 4 0 0 0-4-4z" opacity=".5" fill="none" stroke="#fff" stroke-width="2"/><g transform="translate(-1.25 .75)"><g id="h" transform="translate(87.687 30.437)"><circle id="g" cx="-48.562" cy="-9.187" r="1.813" opacity="1" fill="#fff" fill-opacity="1" stroke="none" stroke-width="1.216" stroke-linecap="round" stroke-miterlimit="4" stroke-dasharray="none" stroke-opacity="1"/><use height="100%" width="100%" xlink:href="#g" transform="translate(0 6)"/><use height="100%" width="100%" xlink:href="#g" transform="translate(0 12)"/></g><use transform="translate(11.75)" height="100%" width="100%" xlink:href="#h"/><use height="100%" width="100%" transform="translate(5.875 -3.125)" xlink:href="#h"/></g></svg>