<svg xmlns="http://www.w3.org/2000/svg" xmlns:xlink="http://www.w3.org/1999/xlink" width="72" height="72"><defs><linearGradient id="a"><stop offset="0" stop-color="#fff"/><stop offset="1" stop-color="#fff" stop-opacity="0"/></linearGradient><linearGradient xlink:href="#a" id="b" x1="26.86" y1="21.958" x2="-9.75" y2="59" gradientUnits="userSpaceOnUse" gradientTransform="matrix(1.2794 0 0 1.34617 -2.097 -5.257)"/></defs><path d="M22.562 35.255c0 8.754 5.475 11.219 10.431 12.058a12.175 12.81 0 0 1-5.83 1.554 12.23 12.867 0 1 1 0-25.734c1.822 0 3.552.417 5.105 1.17-4.139.845-9.706 2.34-9.706 10.952z" fill="url(#b)"/><path d="M56.697 11.163H15.303a4.14 5.229 0 0 0-4.14 5.229v39.216a4.14 5.229 0 0 0 4.14 5.229h41.394a4.14 5.229 0 0 0 4.14-5.229V16.392a4.14 5.229 0 0 0-4.14-5.229z" opacity=".5" fill="none" stroke="#fff" stroke-width="2.326"/><path d="M45.446 34.825l-1.983 1.983m.991-2.394v2.805m1.402-1.403h-2.804m2.394.992l-1.983-1.983" stroke-width=".685" transform="matrix(1.03487 0 0 1.08888 3.172 3.997)" fill="none" stroke="#fff" stroke-linecap="round"/><path d="M37.709 36.778l-1.67 1.67m.835-2.016v2.361m1.18-1.18h-2.36m2.015.834l-1.67-1.67" stroke-width=".577" transform="matrix(1.03487 0 0 1.08888 2.309 6.298)" fill="none" stroke="#fff" stroke-linecap="round"/><path d="M42.06 43.782l-1.607 1.607m.803-1.939v2.271m1.136-1.136H40.12m1.94.804l-1.607-1.607" stroke-width=".555" transform="matrix(1.03487 0 0 1.08888 5.76 5.052)" fill="none" stroke="#fff" stroke-linecap="round"/><path d="M50.578 29.225l-.132-2.801m1.103 2.345l-2.074-1.888m.093 1.98l1.888-2.073m-2.345 1.102l2.802-.131" stroke-width=".685" transform="matrix(1.03487 0 0 1.08888 2.884 .93)" fill="none" stroke="#fff" stroke-linecap="round"/><path d="M46.564 22.19l-.11-2.359m.928 1.974l-1.746-1.59m.079 1.668l1.589-1.745m-1.974.928l2.358-.11" stroke-width=".577" transform="matrix(1.03487 0 0 1.08888 .487 -1.18)" fill="none" stroke="#fff" stroke-linecap="round"/><path d="M38.456 20.69l-.106-2.269m.893 1.899l-1.68-1.529m.075 1.605l1.53-1.68m-1.899.894l2.27-.107" stroke-width=".555" transform="matrix(1.03487 0 0 1.08888 1.254 -3.194)" fill="none" stroke="#fff" stroke-linecap="round"/></svg>