<svg xmlns="http://www.w3.org/2000/svg" width="64" height="64"><path d="M52 13H12a4 4 0 0 0-4 4v30a4 4 0 0 0 4 4h40a4 4 0 0 0 4-4V17a4 4 0 0 0-4-4z" opacity=".5" fill="none" stroke="#fff" stroke-width="2"/><path d="M10.679 47.625h-.554v-31.25h1.108v31.25zm1.384 0h-.277v-31.25h.554v31.25zm1.662 0h-.277v-31.25h.554v31.25zm2.769 0h-.277v-31.25h.554v31.25zm1.938 0h-1.108v-31.25h2.216v31.25zm2.492 0h-.277v-31.25h.554v31.25zm1.661 0h-.276v-31.25h.553v31.25zm1.385 0h-.554v-31.25h1.108v31.25zm3.046 0h-.277v-31.25h.554v31.25zm1.661 0H28.4v-31.25h.554v31.25zm3.046 0h-1.107v-31.25h2.215v31.25zm1.938 0h-.277v-31.25h.554v31.25zm1.108 0h-.277v-31.25h.554v31.25zm1.938 0H35.6v-31.25h2.215v31.25zm2.493 0h-.278v-31.25h.554v31.25zm1.66 0h-.276v-31.25h.554v31.25zm1.94 0h-.555v-31.25h1.108v31.25zm3.045 0h-.277v-31.25h.554v31.25zm1.385 0h-.554v-31.25h1.107v31.25zm3.045 0h-.83v-31.25h1.661v31.25zm1.662 0h-.277v-31.25h.554v31.25zm1.384 0h-.554v-31.25h1.108v31.25z" fill="#fff"/></svg>