<svg xmlns="http://www.w3.org/2000/svg" xmlns:xlink="http://www.w3.org/1999/xlink" width="64" height="64"><defs><linearGradient id="a"><stop offset="0" stop-color="#fff"/><stop offset="1" stop-color="#fff" stop-opacity="0"/></linearGradient><linearGradient xlink:href="#a" id="b" x1="71.374" y1="-5.827" x2=".398" y2="40.975" gradientUnits="userSpaceOnUse" gradientTransform="translate(4.313)"/></defs><path d="M57.437 35.32l-1.535-2.74-3.089.577 2.133-2.307-1.503-2.759 2.853 1.316 2.16-2.283-.37 3.12 2.837 1.349-3.081.612z" opacity=".4" fill="#fff" fill-opacity=".991" stroke="#fff" stroke-linecap="round" stroke-linejoin="round"/><path d="M54.382 20.374l-2.585-3.538-4.178 1.317 2.566-3.551-2.544-3.567 4.17 1.343 2.607-3.522.01 4.382 4.156 1.39-4.164 1.365z" opacity=".5" fill="#fff" fill-opacity=".991" stroke="#fff" stroke-width=".999" stroke-linecap="round" stroke-linejoin="round"/><path d="M45.414 8.104l-1.108-1.178-1.47.673.778-1.418-1.095-1.19 1.589.301.794-1.409.204 1.605 1.585.32-1.463.69z" opacity=".4" fill="#fff" fill-opacity=".991" stroke="#fff" stroke-linecap="round" stroke-linejoin="round"/><path style="isolation:auto;mix-blend-mode:normal;solid-color:#000;solid-opacity:1;marker:none" color="#000" overflow="visible" fill="url(#b)" fill-rule="evenodd" stroke="#fff" stroke-width="2" stroke-linecap="round" stroke-linejoin="round" d="M10.063 12.625h43.875v27.75H10.063z"/><path d="M26.573 42.875l-8.661 15.003m19.515-15.003l8.661 15.003m-6.698-5.28H24.61" opacity=".5" fill="none" stroke="#fff" stroke-width="2" stroke-linecap="round"/><path d="M52.09 42.369h-7.335" fill="none" stroke="#fff" stroke-width="2" stroke-linecap="round"/></svg>