<svg xmlns="http://www.w3.org/2000/svg" xmlns:xlink="http://www.w3.org/1999/xlink" width="72" height="72"><defs><linearGradient gradientTransform="translate(.47 -3.093) scale(1.09298)" xlink:href="#a" id="c" x1="22.288" y1="17.49" x2="4.875" y2="36" gradientUnits="userSpaceOnUse"/><linearGradient id="a"><stop offset="0" stop-color="#fff"/><stop offset="1" stop-color="#fff" stop-opacity="0"/></linearGradient><linearGradient xlink:href="#a" id="b" x1="14.125" y1="19" x2="53.125" y2="60.125" gradientUnits="userSpaceOnUse" gradientTransform="matrix(1 0 0 1.21842 0 -10.556)"/></defs><path d="M56.697 11.163H15.303a4.14 5.229 0 0 0-4.14 5.229v39.216a4.14 5.229 0 0 0 4.14 5.229h41.394a4.14 5.229 0 0 0 4.14-5.229V16.392a4.14 5.229 0 0 0-4.14-5.229z" opacity=".5" fill="none" stroke="#fff" stroke-width="2.326"/><g transform="matrix(1.12066 0 0 1.11515 4.494 3.78)" stroke-width=".895"><path d="M32 29.337c-8.61 0-15.59 8.504-15.59 18.994h31.18c0-10.49-6.98-18.994-15.59-18.994z" fill="url(#b)"/><circle r="9.713" cy="21.476" cx="32" fill="#fff"/></g><path d="M19.07 22.202c0 4.939 3.25 6.329 6.192 6.802a7.26 7.26 0 1 1-.43-12.981c-2.458.476-5.762 1.32-5.762 6.179z" fill="url(#c)"/></svg>