<svg xmlns="http://www.w3.org/2000/svg" xmlns:xlink="http://www.w3.org/1999/xlink" width="64" height="64"><defs><linearGradient id="c"><stop offset="0" stop-color="#fff" stop-opacity=".67"/><stop offset=".5" stop-color="#fff" stop-opacity=".796"/><stop offset="1" stop-color="#fff" stop-opacity=".625"/></linearGradient><linearGradient id="b"><stop offset="0" stop-color="#fff"/><stop offset="1" stop-color="#fff" stop-opacity="0"/></linearGradient><linearGradient id="a"><stop offset="0" stop-color="#fff"/><stop offset="1" stop-color="#fff" stop-opacity="0"/></linearGradient><linearGradient xlink:href="#a" id="f" x1="39.421" y1="106.073" x2="27.931" y2="105.631" gradientUnits="userSpaceOnUse" gradientTransform="matrix(-1 0 0 1 80.722 -66.648)"/><linearGradient xlink:href="#b" id="d" x1="6.187" y1="105.631" x2="32.704" y2="106.78" gradientUnits="userSpaceOnUse" gradientTransform="matrix(-1 0 0 1 31.755 -66.648)"/><linearGradient xlink:href="#c" id="e" x1="21.505" y1="107.212" x2="28.543" y2="107.124" gradientUnits="userSpaceOnUse" gradientTransform="matrix(-1 0 0 1 55.62 -66.648)"/></defs><path d="M52 13H12a4 4 0 0 0-4 4v30a4 4 0 0 0 4 4h40a4 4 0 0 0 4-4V17a4 4 0 0 0-4-4z" opacity=".5" fill="none" stroke="#fff" stroke-width="2"/><path d="M86.216 111.95l4.924.72v12.538h-5.038zM91.847 105.497c0 2.075-1.266 3.756-2.828 3.756-1.562 0-2.829-1.681-2.829-3.756 0-2.075.648-10.916 2.21-10.916 1.65 6.806 3.447 8.841 3.447 10.916zM98.15 106.018c.18 1.341 1.288 2.335 2.477 2.221 1.189-.114 2.008-1.294 1.83-2.635-.18-1.34-1.434-7.007-2.623-6.893-.67 4.52-1.862 5.966-1.684 7.307zM98.83 112.126l3.712-.265v13.346h-3.889zM111.293 112.214l3.8.708v12.286h-3.889zM116.864 105.66c-.196 2.065-1.615 3.62-3.17 3.472-1.555-.147-2.657-1.94-2.461-4.006.195-2.066 1.94-6.652 3.23-10.66 2.503 5.164 2.597 9.128 2.401 11.193z" fill="none" stroke="#fff" stroke-width="2" stroke-linejoin="round" paint-order="stroke fill markers"/><path style="line-height:normal;font-variant-ligatures:normal;font-variant-position:normal;font-variant-caps:normal;font-variant-numeric:normal;font-variant-alternates:normal;font-feature-settings:normal;text-indent:0;text-align:start;text-decoration-line:none;text-decoration-style:solid;text-decoration-color:#fff;text-transform:none;text-orientation:mixed;white-space:normal;shape-padding:0;isolation:auto;mix-blend-mode:normal;solid-color:#fff;solid-opacity:1" d="M21.641 33.114a1 1 0 0 1 .958.99l.113 13.258a1 1 0 0 1-1 1.008h-5.037a1 1 0 0 1-1-.992l-.088-12.979a1 1 0 0 1 .943-1.006l5.012-.28a.973.973 0 0 1 .1 0z" color="#fff" font-weight="400" font-family="sans-serif" overflow="visible" fill="url(#d)" paint-order="stroke fill markers"/><path d="M22.331 27.66c0 2.075-1.266 3.757-2.828 3.757-1.562 0-2.829-1.682-2.829-3.757s.648-10.916 2.21-10.916c1.65 6.806 3.447 8.841 3.447 10.916zM28.635 28.181c.178 1.341 1.287 2.335 2.476 2.221 1.19-.114 2.008-1.294 1.83-2.635-.18-1.34-1.434-7.007-2.623-6.893-.67 4.52-1.862 5.967-1.683 7.307z" opacity=".8" fill="#fff" paint-order="stroke fill markers"/><path style="line-height:normal;font-variant-ligatures:normal;font-variant-position:normal;font-variant-caps:normal;font-variant-numeric:normal;font-variant-alternates:normal;font-feature-settings:normal;text-indent:0;text-align:start;text-decoration-line:none;text-decoration-style:solid;text-decoration-color:#fff;text-transform:none;text-orientation:mixed;white-space:normal;shape-padding:0;isolation:auto;mix-blend-mode:normal;solid-color:#fff;solid-opacity:1" d="M32.788 32.758a1 1 0 0 1 .972.98l.266 13.612a1 1 0 0 1-1 1.02h-3.889a1 1 0 0 1-1-1V34.024a1 1 0 0 1 .928-.998l3.623-.264a.974.974 0 0 1 .1-.004z" color="#fff" font-weight="400" font-family="sans-serif" overflow="visible" fill="url(#e)" paint-order="stroke fill markers"/><path style="line-height:normal;font-variant-ligatures:normal;font-variant-position:normal;font-variant-caps:normal;font-variant-numeric:normal;font-variant-alternates:normal;font-feature-settings:normal;text-indent:0;text-align:start;text-decoration-line:none;text-decoration-style:solid;text-decoration-color:#fff;text-transform:none;text-orientation:mixed;white-space:normal;shape-padding:0;isolation:auto;mix-blend-mode:normal;solid-color:#fff;solid-opacity:1" d="M45.516 33.378a1 1 0 0 1 .973.992l.088 12.994a1 1 0 0 1-1 1.006h-3.889a1 1 0 0 1-1-1.006l.088-12.729a1 1 0 0 1 .93-.99l3.71-.265c.034-.002.067-.003.1-.002z" color="#fff" font-weight="400" font-family="sans-serif" overflow="visible" fill="url(#f)" paint-order="stroke fill markers"/><path d="M47.348 27.823c-.195 2.065-1.615 3.62-3.17 3.472-1.555-.147-2.657-1.94-2.461-4.006.196-2.066 1.94-6.652 3.23-10.659 2.503 5.164 2.597 9.127 2.401 11.193z" opacity=".8" fill="#fff" paint-order="stroke fill markers"/></svg>