<svg xmlns="http://www.w3.org/2000/svg" width="72" height="72"><path d="M56.697 11.163H15.303a4.14 5.229 0 0 0-4.14 5.229v39.216a4.14 5.229 0 0 0 4.14 5.229h41.394a4.14 5.229 0 0 0 4.14-5.229V16.392a4.14 5.229 0 0 0-4.14-5.229z" opacity=".5" fill="none" stroke="#fff" stroke-width="2.326"/><path d="M13.936 56.425h-.574v-40.85h1.147v40.85zm1.432 0h-.287v-40.85h.573v40.85zm1.72 0H16.8v-40.85h.573v40.85zm2.865 0h-.286v-40.85h.573v40.85zm2.006 0h-1.147v-40.85h2.294v40.85zm2.579 0h-.287v-40.85h.573v40.85zm1.719 0h-.286v-40.85h.572v40.85zm1.433 0h-.573v-40.85h1.146v40.85zm3.152 0h-.286v-40.85h.573v40.85zm1.72 0h-.288v-40.85h.574v40.85zm3.151 0h-1.145v-40.85h2.292v40.85zm2.006 0h-.287v-40.85h.574v40.85zm1.147 0h-.287v-40.85h.573v40.85zm2.005 0h-1.145v-40.85h2.292v40.85zm2.58 0h-.288v-40.85h.574v40.85zm1.718 0h-.286v-40.85h.574v40.85zm2.008 0h-.575v-40.85h1.147v40.85zm3.15 0h-.286v-40.85h.573v40.85zm1.434 0h-.573v-40.85h1.145v40.85zm3.151 0h-.859v-40.85h1.72v40.85zm1.72 0h-.286v-40.85h.573v40.85zm1.432 0h-.573v-40.85h1.147v40.85z" fill="#fff"/></svg>