<svg xmlns="http://www.w3.org/2000/svg" xmlns:xlink="http://www.w3.org/1999/xlink" width="72" height="72"><defs><linearGradient id="b"><stop offset="0" stop-color="#fff"/><stop offset="1" stop-color="#fff" stop-opacity="0"/></linearGradient><linearGradient id="a"><stop offset="0" stop-color="#fff"/><stop offset="1" stop-color="#fff" stop-opacity="0"/></linearGradient><linearGradient xlink:href="#a" id="d" x1="-10.96" y1="35.1" x2="-10.96" y2="79.622" gradientUnits="userSpaceOnUse" gradientTransform="matrix(1.03487 0 0 1.08697 36.647 -5.343)"/><linearGradient xlink:href="#a" id="e" x1="-11.402" y1="16.842" x2="-11.402" y2="50.106" gradientUnits="userSpaceOnUse" gradientTransform="matrix(1.03487 0 0 1.08697 36.647 -1.005)"/><linearGradient xlink:href="#a" id="f" x1="-12.75" y1="25.652" x2="-12.75" y2="56.912" gradientUnits="userSpaceOnUse" gradientTransform="matrix(1.03487 0 0 1.08697 36.648 -3.169)"/><linearGradient xlink:href="#b" id="c" x1="35.444" y1="37.483" x2="35.444" y2="62.674" gradientUnits="userSpaceOnUse" gradientTransform="matrix(1.03487 0 0 1.08697 2.884 -.447)"/></defs><path style="line-height:normal;font-variant-ligatures:normal;font-variant-position:normal;font-variant-caps:normal;font-variant-numeric:normal;font-variant-alternates:normal;font-feature-settings:normal;text-indent:0;text-align:start;text-decoration-line:none;text-decoration-style:solid;text-decoration-color:#fff;text-transform:none;text-orientation:mixed;white-space:normal;shape-padding:0;isolation:auto;mix-blend-mode:normal;solid-color:#fff;solid-opacity:1" d="M59.67 42.08v13.666c0 1.813-1.246 3.92-2.973 3.92H15.303c-1.727 0-2.997-2.107-2.997-3.92V40.45c.619-.206 1.835-.231 3.67-.137-.12 6.376 4.708 9.93 9.182 9.674 3.628-.209 7.515-3.018 8.138-8.022 9.617 1.585 14.582 2.082 26.374.115z" font-weight="400" overflow="visible" color="#fff" font-family="sans-serif" opacity=".5" fill="url(#c)"/><path d="M19.309 33.695a8.69 9.127 0 0 0-3.332 7.181 8.69 9.127 0 0 0 8.69 9.127 8.69 9.127 0 0 0 8.691-9.127 8.69 9.127 0 0 0-3.332-7.17 5.718 6.005 0 0 1-5.359 3.918 5.718 6.005 0 0 1-5.358-3.93z" fill="url(#d)"/><path d="M28.602 23.886a3.933 4.13 0 0 1-3.934 4.131 3.933 4.13 0 0 1-3.932-4.13 3.933 4.13 0 0 1 3.932-4.13 3.933 4.13 0 0 1 3.933 4.13z" fill="url(#e)"/><path d="M21.64 26.527a5.718 6.005 0 0 0-2.69 5.091 5.718 6.005 0 0 0 5.718 6.006 5.718 6.005 0 0 0 5.718-6.006 5.718 6.005 0 0 0-2.69-5.087 3.933 4.13 0 0 1-3.028 1.495 3.933 4.13 0 0 1-3.028-1.499z" fill="url(#f)"/><path d="M56.697 11.163H15.303a4.14 5.229 0 0 0-4.14 5.229v39.216a4.14 5.229 0 0 0 4.14 5.229h41.394a4.14 5.229 0 0 0 4.14-5.229V16.392a4.14 5.229 0 0 0-4.14-5.229z" opacity=".5" fill="none" stroke="#fff" stroke-width="2.326"/><g transform="matrix(1.03487 0 0 1.08697 1.59 .368)" stroke-width="1.097"><g id="h" transform="translate(87.687 30.437)" stroke-width="1.097"><circle id="g" cx="-48.562" cy="-9.187" r="1.813" stroke-miterlimit="4" opacity="1" fill="#fff" fill-opacity="1" stroke="none" stroke-width="1.334" stroke-linecap="round" stroke-dasharray="none" stroke-opacity="1"/><use height="100%" width="100%" xlink:href="#g" transform="translate(0 6)"/><use height="100%" width="100%" xlink:href="#g" transform="translate(0 12)"/></g><use transform="translate(11.75)" height="100%" width="100%" xlink:href="#h"/><use height="100%" width="100%" transform="translate(5.875 -3.125)" xlink:href="#h"/></g></svg>