<?xml version="1.0" encoding="UTF-8" standalone="no"?>
<svg
   xmlns:dc="http://purl.org/dc/elements/1.1/"
   xmlns:cc="http://creativecommons.org/ns#"
   xmlns:rdf="http://www.w3.org/1999/02/22-rdf-syntax-ns#"
   xmlns:svg="http://www.w3.org/2000/svg"
   xmlns="http://www.w3.org/2000/svg"
   xmlns:xlink="http://www.w3.org/1999/xlink"
   xmlns:sodipodi="http://sodipodi.sourceforge.net/DTD/sodipodi-0.dtd"
   xmlns:inkscape="http://www.inkscape.org/namespaces/inkscape"
   width="72"
   height="72"
   version="1.1"
   id="svg3451"
   sodipodi:docname="icon-m-scene_mode_beach.svg"
   inkscape:version="0.92.4 (5da689c313, 2019-01-14)">
  <metadata
     id="metadata3455">
    <rdf:RDF>
      <cc:Work
         rdf:about="">
        <dc:format>image/svg+xml</dc:format>
        <dc:type
           rdf:resource="http://purl.org/dc/dcmitype/StillImage" />
        <dc:title></dc:title>
      </cc:Work>
    </rdf:RDF>
  </metadata>
  <sodipodi:namedview
     pagecolor="#ffffff"
     bordercolor="#666666"
     borderopacity="1"
     objecttolerance="10"
     gridtolerance="10"
     guidetolerance="10"
     inkscape:pageopacity="0"
     inkscape:pageshadow="2"
     inkscape:window-width="1876"
     inkscape:window-height="1055"
     id="namedview3453"
     showgrid="false"
     inkscape:pagecheckerboard="true"
     inkscape:zoom="10.429825"
     inkscape:cx="41.43745"
     inkscape:cy="29.48503"
     inkscape:window-x="44"
     inkscape:window-y="0"
     inkscape:window-maximized="1"
     inkscape:current-layer="svg3451" />
  <defs
     id="defs3431">
    <linearGradient
       id="c">
      <stop
         offset="0"
         stop-color="#fff"
         id="stop3413" />
      <stop
         offset="1"
         stop-color="#fff"
         stop-opacity="0"
         id="stop3415" />
    </linearGradient>
    <linearGradient
       id="b">
      <stop
         offset="0"
         stop-color="#fff"
         id="stop3418" />
      <stop
         offset="1"
         stop-color="#fff"
         stop-opacity="0"
         id="stop3420" />
    </linearGradient>
    <linearGradient
       id="a">
      <stop
         offset="0"
         stop-color="#fff"
         id="stop3423" />
      <stop
         offset="1"
         stop-color="#fff"
         stop-opacity="0"
         id="stop3425" />
    </linearGradient>
    <linearGradient
       xlink:href="#a"
       id="e"
       gradientUnits="userSpaceOnUse"
       gradientTransform="translate(122.375,28.615)"
       x1="-82.311996"
       y1="66.813004"
       x2="-48.312"
       y2="52.375" />
    <radialGradient
       xlink:href="#b"
       id="f"
       cx="83.780998"
       cy="74.875"
       fx="83.780998"
       fy="74.875"
       r="7.592"
       gradientUnits="userSpaceOnUse"
       gradientTransform="translate(4.87)" />
    <linearGradient
       xlink:href="#c"
       id="d"
       x1="20.860001"
       y1="32.887001"
       x2="24.395"
       y2="54.101002"
       gradientUnits="userSpaceOnUse"
       gradientTransform="matrix(1.034871,0,0,1.3072055,2.8841267,-5.830576)" />
  </defs>
  <path
     d="M 56.697421,11.163095 H 15.302578 a 4.1394841,5.228822 0 0 0 -4.139484,5.228824 v 39.216164 a 4.1394841,5.228822 0 0 0 4.139484,5.228823 h 41.394843 a 4.1394841,5.228822 0 0 0 4.139484,-5.228823 V 16.391919 a 4.1394841,5.228822 0 0 0 -4.139484,-5.228824 z"
     id="path3433"
     inkscape:connector-curvature="0"
     style="opacity:0.5;fill:none;stroke:#ffffff;stroke-width:2.32618928" />
  <path
     style="color:#ffffff;font-weight:400;line-height:normal;font-family:sans-serif;font-variant-ligatures:normal;font-variant-position:normal;font-variant-caps:normal;font-variant-numeric:normal;font-variant-alternates:normal;font-feature-settings:normal;text-indent:0;text-align:start;text-decoration:none;text-decoration-line:none;text-decoration-style:solid;text-decoration-color:#ffffff;text-transform:none;text-orientation:mixed;white-space:normal;shape-padding:0;overflow:visible;opacity:0.36000001;isolation:auto;mix-blend-mode:normal;solid-color:#ffffff;solid-opacity:1;fill:url(#d);stroke-width:1.16309464"
     d="m 59.802034,46.457644 v 9.150439 c 0,2.18042 -1.378449,3.921616 -3.104613,3.921616 H 15.302578 c -1.726164,0 -3.104613,-1.741196 -3.104613,-3.921616 V 38.533365 c 10.584663,-1.918978 41.185798,3.090234 47.604069,7.924279 z"
     font-weight="400"
     overflow="visible"
     id="path3435"
     inkscape:connector-curvature="0" />
  <g
     id="g3443"
     style="stroke-width:1.36099994"
     transform="matrix(1.034871,0,0,1.3072055,2.8841268,-5.8305759)">
    <path
       d="M 73.937,92.334 H 50.562 c 0,-6.455 5.233,-11.688 11.688,-11.688 6.455,0 11.687,5.233 11.687,11.688 z"
       style="color:#ffffff;overflow:visible;isolation:auto;mix-blend-mode:normal;solid-color:#ffffff;solid-opacity:1;fill:url(#e);fill-rule:evenodd;marker:none"
       overflow="visible"
       transform="matrix(0.78087,0.17976,-0.15115,0.65659,6.238,-40.91)"
       id="path3437"
       inkscape:connector-curvature="0" />
    <path
       d="m 56.312,92.334 c 0,-6.455 2.659,-11.688 5.938,-11.688 3.28,0 5.937,5.233 5.937,11.688 m 5.75,0 H 50.562 c 0,-6.455 5.233,-11.688 11.688,-11.688 6.455,0 11.687,5.233 11.687,11.688 z"
       style="color:#ffffff;overflow:visible;isolation:auto;mix-blend-mode:normal;solid-color:#ffffff;solid-opacity:1;fill:none;stroke:#ffffff;stroke-width:2.04099989;stroke-linecap:round;stroke-linejoin:round;marker:none"
       overflow="visible"
       transform="matrix(0.78087,0.17976,-0.15115,0.65659,6.238,-40.91)"
       id="path3439"
       inkscape:connector-curvature="0" />
    <path
       d="m 62.187,92.652 v 15.437 m 0,-27.746 v -0.688"
       transform="matrix(0.78087,0.17976,-0.15115,0.65659,6.238,-40.91)"
       id="path3441"
       inkscape:connector-curvature="0"
       style="fill:none;stroke:#ffffff;stroke-width:2.72199988;stroke-linecap:round" />
  </g>
  <g
     transform="matrix(1.034871,0,0,1.1144642,-71.252999,-61.840987)"
     id="g3449"
     style="color:#ffffff;fill-rule:evenodd">
    <circle
       r="3.0309999"
       cy="74.875"
       cx="88.651001"
       style="overflow:visible;isolation:auto;mix-blend-mode:normal;solid-color:#ffffff;solid-opacity:1;fill:#ffffff;marker:none"
       overflow="visible"
       id="circle3445" />
    <path
       d="m 88.651,67.283 a 7.591,7.591 0 0 0 -0.273,0.01 c 0.07,0.028 0.318,6.971 0.386,6.984 0.069,0.013 2.855,-6.356 2.93,-6.353 a 7.591,7.591 0 0 0 -3.043,-0.64 z m 3.043,0.64 c 0.053,0.054 -2.738,6.422 -2.682,6.464 0.057,0.041 5.311,-4.47 5.393,-4.45 a 7.591,7.591 0 0 0 -2.711,-2.013 z m 2.711,2.014 c 0.008,0.085 -5.25,4.593 -5.217,4.655 0.033,0.062 6.752,-1.73 6.795,-1.67 a 7.591,7.591 0 0 0 -1.578,-2.984 z m 1.578,2.985 c -0.007,0.074 -6.727,1.862 -6.725,1.932 0.003,0.07 6.828,1.367 6.846,1.44 a 7.591,7.591 0 0 0 0.139,-1.419 7.591,7.591 0 0 0 -0.26,-1.953 z m 0.121,3.373 c -0.044,0.062 -6.868,-1.24 -6.896,-1.176 -0.028,0.064 5.542,4.185 5.537,4.268 h 0.002 a 7.591,7.591 0 0 0 1.357,-3.092 z m -1.36,3.092 c -0.076,0.029 -5.643,-4.097 -5.696,-4.051 -0.054,0.045 3.189,6.195 3.14,6.252 a 7.591,7.591 0 0 0 2.557,-2.201 z m -2.556,2.2 c -0.074,0.009 -3.313,-6.142 -3.38,-6.124 -0.068,0.018 0.185,6.96 0.117,6.994 a 7.591,7.591 0 0 0 3.263,-0.87 z m -3.263,0.87 c -0.071,-0.028 -0.319,-6.971 -0.387,-6.984 -0.069,-0.013 -2.855,6.356 -2.93,6.353 a 7.591,7.591 0 0 0 3.043,0.64 7.591,7.591 0 0 0 0.274,-0.009 z m -3.317,-0.63 c -0.053,-0.054 2.738,-6.422 2.682,-6.464 -0.056,-0.041 -5.31,4.47 -5.393,4.45 a 7.591,7.591 0 0 0 2.711,2.013 z m -2.71,-2.014 c -0.01,-0.085 5.248,-4.593 5.216,-4.655 -0.033,-0.062 -6.752,1.73 -6.795,1.67 a 7.591,7.591 0 0 0 1.578,2.984 z m -1.579,-2.985 c 0.007,-0.074 6.727,-1.862 6.725,-1.932 -0.003,-0.07 -6.828,-1.367 -6.846,-1.44 a 7.591,7.591 0 0 0 -0.139,1.419 7.591,7.591 0 0 0 0.26,1.953 z m -0.121,-3.373 c 0.044,-0.062 6.868,1.24 6.896,1.176 0.028,-0.064 -5.542,-4.185 -5.537,-4.268 h -0.002 a 7.591,7.591 0 0 0 -1.357,3.092 z m 1.36,-3.092 c 0.077,-0.029 5.644,4.097 5.697,4.051 0.053,-0.045 -3.19,-6.195 -3.141,-6.252 a 7.591,7.591 0 0 0 -2.557,2.201 z m 2.556,-2.2 c 0.074,-0.009 3.313,6.142 3.38,6.124 0.068,-0.018 -0.185,-6.96 -0.116,-6.994 a 7.591,7.591 0 0 0 -3.264,0.87 z"
       style="overflow:visible;opacity:0.75499998;isolation:auto;mix-blend-mode:normal;solid-color:#ffffff;solid-opacity:1;fill:url(#f);marker:none"
       overflow="visible"
       id="path3447"
       inkscape:connector-curvature="0" />
  </g>
</svg>
