<svg xmlns="http://www.w3.org/2000/svg" xmlns:xlink="http://www.w3.org/1999/xlink" width="72" height="72"><defs><linearGradient id="b"><stop offset="0" stop-color="#fff" stop-opacity=".765"/><stop offset="1" stop-color="#fff" stop-opacity="0"/></linearGradient><linearGradient id="a"><stop offset="0" stop-color="#fff" stop-opacity=".754"/><stop offset="1" stop-color="#fff" stop-opacity="0"/></linearGradient><linearGradient xlink:href="#a" id="c" x1="11.406" y1="104.761" x2="11.75" y2="102.75" gradientUnits="userSpaceOnUse"/><linearGradient gradientTransform="translate(-36.75 4.804)" xlink:href="#b" id="d" x1="11.891" y1="104.324" x2="11.75" y2="102.75" gradientUnits="userSpaceOnUse"/></defs><path d="M56.697 11.163H15.303a4.14 5.229 0 0 0-4.14 5.229v39.216a4.14 5.229 0 0 0 4.14 5.229h41.394a4.14 5.229 0 0 0 4.14-5.229V16.392a4.14 5.229 0 0 0-4.14-5.229z" opacity=".5" fill="none" stroke="#fff" stroke-width="2.326"/><g opacity=".827" stroke="#fff" stroke-width="3.293"><path d="M25.25 98.49l-12.5 12.552L.25 98.491z" style="isolation:auto;mix-blend-mode:normal;solid-color:#fff;solid-opacity:1;marker:none" overflow="visible" transform="matrix(.62616 -.11605 .09322 .77957 28.891 -48.247)" color="#fff" fill="url(#c)" fill-rule="evenodd" stroke-linecap="round" stroke-linejoin="round"/><path d="M21.875 125.651l-9.125-2.205-9.125 2.205z" style="isolation:auto;mix-blend-mode:normal;solid-color:#fff;solid-opacity:1;marker:none" overflow="visible" transform="matrix(.62616 -.11605 .09322 .77957 28.891 -48.247)" color="#fff" fill="#fff" fill-opacity=".716" fill-rule="evenodd" stroke-linecap="round" stroke-linejoin="round"/><path d="M12.75 111.042v12.404" transform="matrix(.62616 -.11605 .09322 .77957 28.891 -48.247)" opacity=".75" fill="none"/></g><g opacity=".827" stroke="#fff" stroke-width="3.293"><path d="M-11.5 103.295L-24 115.846l-12.5-12.551z" style="isolation:auto;mix-blend-mode:normal;solid-color:#fff;solid-opacity:1;marker:none" overflow="visible" transform="matrix(.62773 .1021 -.08201 .78151 51.647 -50.113)" color="#fff" fill="url(#d)" fill-rule="evenodd" stroke-linecap="round" stroke-linejoin="round"/><path d="M-14.875 130.455L-24 128.25l-9.125 2.205z" style="isolation:auto;mix-blend-mode:normal;solid-color:#fff;solid-opacity:1;marker:none" overflow="visible" transform="matrix(.62773 .1021 -.08201 .78151 51.647 -50.113)" color="#fff" fill="#fff" fill-opacity=".716" fill-rule="evenodd" stroke-linecap="round" stroke-linejoin="round"/><path d="M-24 115.846v12.404" transform="matrix(.62773 .1021 -.08201 .78151 51.647 -50.113)" opacity=".75" fill="none"/></g></svg>