<svg xmlns="http://www.w3.org/2000/svg" xmlns:xlink="http://www.w3.org/1999/xlink" width="64" height="64"><defs><linearGradient xlink:href="#a" id="b" x1="29.875" y1="19.364" x2="42.515" y2="60.111" gradientUnits="userSpaceOnUse"/><linearGradient id="a"><stop offset="0" stop-color="#fff"/><stop offset="1" stop-color="#fff" stop-opacity="0"/></linearGradient></defs><path d="M47.795 21.088c-1.25 0-2.501.48-3.465 1.441L31.672 36.934a4.962 4.962 0 0 1-6.996 0l-1.01-1.016c-1.929-1.924-5.409-5.218-8.508-1.5L9 41.807V47c0 1.668 1.332 3 3 3h40c1.668 0 3-1.332 3-3V26.338l-3.74-3.809a4.892 4.892 0 0 0-3.465-1.441z" fill="url(#b)"/><path d="M52 13H12a4 4 0 0 0-4 4v30a4 4 0 0 0 4 4h40a4 4 0 0 0 4-4V17a4 4 0 0 0-4-4z" opacity=".5" fill="none" stroke="#fff" stroke-width="2"/></svg>