<?xml version="1.0" encoding="UTF-8" standalone="no"?>
<svg
   xmlns:dc="http://purl.org/dc/elements/1.1/"
   xmlns:cc="http://creativecommons.org/ns#"
   xmlns:rdf="http://www.w3.org/1999/02/22-rdf-syntax-ns#"
   xmlns:svg="http://www.w3.org/2000/svg"
   xmlns="http://www.w3.org/2000/svg"
   xmlns:sodipodi="http://sodipodi.sourceforge.net/DTD/sodipodi-0.dtd"
   xmlns:inkscape="http://www.inkscape.org/namespaces/inkscape"
   width="12"
   height="12"
   viewBox="0 0 3.1749999 3.1750001"
   version="1.1"
   id="svg8"
   sodipodi:docname="icon-m-uwide-lense.svg"
   inkscape:version="1.0.2 (e86c870879, 2021-01-15)"
   inkscape:export-filename="/home/leszek/Downloads/work/harbour-advanced-camera/qml/pics/icon-m-uwide-lense.png"
   inkscape:export-xdpi="576"
   inkscape:export-ydpi="576">
  <defs
     id="defs2">
    <inkscape:perspective
       sodipodi:type="inkscape:persp3d"
       inkscape:vp_x="0 : 1.5875001 : 1"
       inkscape:vp_y="0 : 1000 : 0"
       inkscape:vp_z="3.1749999 : 1.5875001 : 1"
       inkscape:persp3d-origin="1.5874999 : 1.0583334 : 1"
       id="perspective921" />
    <inkscape:path-effect
       effect="fillet_chamfer"
       id="path-effect900"
       is_visible="true"
       lpeversion="1"
       satellites_param="F,0,0,1,0,0,0,1 @ F,0,0,1,0,0,0,1 @ F,0,0,1,0,0,0,1 @ F,0,0,1,0,0,0,1 @ F,0,0,1,0,0,0,1 @ F,0,0,1,0,0,0,1 @ F,0,0,1,0,0,0,1 @ F,0,0,1,0,0,0,1 @ F,0,0,1,0,0,0,1 @ F,0,0,1,0,0,0,1 @ F,0,0,1,0,0,0,1 @ F,0,0,1,0,0,0,1 @ F,0,0,1,0,0,0,1 @ F,0,0,1,0,0,0,1 @ F,0,0,1,0,0,0,1 @ F,0,0,1,0,0,0,1 @ F,0,0,1,0,0,0,1 @ F,0,0,1,0,0,0,1 @ F,0,0,1,0,0,0,1 @ F,0,0,1,0,0,0,1 @ F,0,0,1,0,0,0,1 @ F,0,0,1,0,0,0,1 @ F,0,0,1,0,0,0,1 @ F,0,0,1,0,0,0,1 @ F,0,0,1,0,0,0,1 @ F,0,0,1,0,0,0,1 @ F,0,0,1,0,0,0,1"
       unit="px"
       method="auto"
       mode="F"
       radius="0"
       chamfer_steps="1"
       flexible="false"
       use_knot_distance="true"
       apply_no_radius="true"
       apply_with_radius="true"
       only_selected="false"
       hide_knots="false" />
  </defs>
  <sodipodi:namedview
     id="base"
     pagecolor="#ffffff"
     bordercolor="#666666"
     borderopacity="1.0"
     inkscape:pageopacity="0.0"
     inkscape:pageshadow="2"
     inkscape:zoom="68.333333"
     inkscape:cx="6"
     inkscape:cy="6"
     inkscape:document-units="mm"
     inkscape:current-layer="layer1"
     inkscape:document-rotation="0"
     showgrid="false"
     units="px"
     inkscape:pagecheckerboard="true"
     inkscape:window-width="1920"
     inkscape:window-height="1005"
     inkscape:window-x="0"
     inkscape:window-y="0"
     inkscape:window-maximized="1" />
  <metadata
     id="metadata5">
    <rdf:RDF>
      <cc:Work
         rdf:about="">
        <dc:format>image/svg+xml</dc:format>
        <dc:type
           rdf:resource="http://purl.org/dc/dcmitype/StillImage" />
        <dc:title />
      </cc:Work>
    </rdf:RDF>
  </metadata>
  <g
     inkscape:label="Ebene 1"
     inkscape:groupmode="layer"
     id="layer1">
    <circle
       style="fill:none;stroke:#ffffff;stroke-width:0.1;stroke-linecap:round;stroke-linejoin:round;stroke-miterlimit:4;stroke-dasharray:none;stroke-opacity:1;paint-order:stroke markers fill"
       id="path833"
       sodipodi:type="arc"
       sodipodi:cx="1.5875007"
       sodipodi:cy="1.5875013"
       sodipodi:rx="1.2052106"
       sodipodi:ry="1.1881187"
       sodipodi:start="0"
       sodipodi:end="6.2608575"
       sodipodi:arc-type="arc"
       d="M 2.7927113,1.5875013 A 1.2052106,1.1881187 0 0 1 1.5942281,2.7756015 1.2052106,1.1881187 0 0 1 0.38236523,1.6007651 1.2052106,1.1881187 0 0 1 1.5673194,0.39954918 1.2052106,1.1881187 0 0 1 2.7924109,1.5609754"
       sodipodi:open="true" />
    <rect
       style="fill:none;stroke:#fffffc;stroke-width:0.1;stroke-linecap:round;stroke-linejoin:round;stroke-miterlimit:4;stroke-dasharray:none;stroke-opacity:1;paint-order:stroke markers fill"
       id="rect855"
       width="29.368919"
       height="27.731659"
       x="-262.1709"
       y="-119.47652" />
    <path
       style="fill:none;stroke:#000000;stroke-width:0.264583px;stroke-linecap:butt;stroke-linejoin:miter;stroke-opacity:1"
       d="m -248.06097,-103.52089 -0.65195,0.0348 -0.73163,-0.28323 -0.31352,-0.4005 -0.19261,-0.57442 -0.0618,-0.70928 0.47924,-0.87069 0.22375,-0.74915 0.34873,-0.96749 0.49295,-1.20091 0.40586,-0.8448 0.32276,-0.53156 0.44693,-0.18751 h 0.50362 l 0.15196,0.52906 0.60564,1.22406 0.67774,1.36303 0.45009,1.3277 0.29767,0.69317 0.17675,0.68624 -0.34976,0.73511 -0.43044,0.42539 -0.48197,0.21661 -0.62615,0.0226 -0.1497,-0.0853 0.0238,2.83756 -1.65837,0.0252 z"
       id="path857" />
    <path
       id="path850"
       style="fill:#ffffff;fill-opacity:1;stroke-width:0.0235063"
       d="m 2.1670257,0.68122676 c -0.017849,5.7323e-4 -0.1101282,0.20959492 -0.2266281,0.51329914 -0.1633315,0.4257912 -0.1410857,0.6069237 0.08713,0.7078743 0.101826,0.045043 0.1051879,0.049868 0.1051879,0.151236 0,0.077377 0.00915,0.1047365 0.035213,0.1047365 0.022203,0 0.028462,-0.090115 0.03115,-0.2744819 a 0.09697021,0.09980826 0 0 1 -0.017606,0.00181 0.09697021,0.09980826 0 0 1 -0.048756,-0.013092 v 9.046e-4 L 2.0595805,1.8482274 C 2.0195785,1.8342814 1.9667945,1.7901384 1.9422034,1.7498104 1.8746694,1.6390593 1.8857304,1.5409871 2.0049554,1.2247735 2.0219494,1.1797035 2.0341494,1.1441465 2.0559694,1.0888869 2.1019144,0.97253075 2.1467454,0.86886937 2.1557404,0.85864718 2.1727284,0.83934148 2.3664982,1.3176089 2.41397,1.4960952 2.449352,1.6291261 2.427042,1.7203956 2.342189,1.7917953 2.268368,1.8539113 2.253402,1.8996919 2.306524,1.8996919 c 0.051518,0 0.1745931,-0.15565 0.1905121,-0.2406231 0.00966,-0.05158 -0.00563,-0.1410058 -0.04695,-0.2717731 C 2.3937131,1.2089052 2.1930505,0.70680011 2.1683805,0.68213008 2.1679617,0.68171125 2.1676027,0.68120836 2.1670305,0.6812271 Z M 2.004955,1.5579436 c -0.00206,0.0039 -0.00158,0.00858 0,0.013544 z" />
    <path
       id="path923"
       style="fill:#ffffff;fill-opacity:1;stroke-width:0.0235063"
       d="m 1.0210795,0.68122676 c -0.017849,5.7323e-4 -0.11012769,0.20959492 -0.22662759,0.51329914 -0.1633315,0.4257912 -0.1410857,0.6069237 0.08713,0.7078743 0.10182561,0.045043 0.10518748,0.049868 0.10518748,0.151236 0,0.077377 0.00915,0.1047365 0.035213,0.1047365 0.022203,0 0.028462,-0.090115 0.03115,-0.2744819 a 0.09697021,0.09980826 0 0 1 -0.017606,0.00181 0.09697021,0.09980826 0 0 1 -0.048756,-0.013092 v 9.046e-4 l -0.073136,-0.025286 c -0.040002,-0.013946 -0.092786,-0.058089 -0.11737707,-0.098417 -0.067534,-0.1107511 -0.056473,-0.2088233 0.062752,-0.5250369 0.016994,-0.04507 0.029194,-0.080627 0.051014,-0.1358866 0.045945,-0.11635615 0.0907759,-0.22001753 0.0997709,-0.23023972 0.016988,-0.0193057 0.2107578,0.45896172 0.2582296,0.63744802 0.035382,0.1330309 0.013072,0.2243004 -0.071781,0.2957001 -0.073821,0.062116 -0.088787,0.1078966 -0.035665,0.1078966 0.051518,0 0.1745931,-0.15565 0.1905121,-0.2406231 0.00966,-0.05158 -0.00563,-0.1410058 -0.04695,-0.2717731 C 1.2477669,1.2089052 1.0471043,0.70680011 1.0224343,0.68213008 1.0220155,0.68171125 1.0216565,0.68120836 1.0210843,0.6812271 Z M 0.85900931,1.5579436 c -0.00206,0.0039 -0.00158,0.00858 0,0.013544 z" />
    <path
       id="path925"
       style="fill:#ffffff;fill-opacity:1;stroke-width:0.0235063"
       d="M 1.5611978,0.96945838 C 1.5433488,0.97003168 1.45107,1.1790531 1.3345701,1.4827574 c -0.1633315,0.4257912 -0.1410857,0.6069237 0.08713,0.7078743 0.1018256,0.045043 0.1051875,0.049868 0.1051875,0.151236 0,0.077377 0.00915,0.1047365 0.035213,0.1047365 0.022203,0 0.028462,-0.090115 0.03115,-0.2744819 a 0.09697021,0.09980826 0 0 1 -0.017606,0.00181 0.09697021,0.09980826 0 0 1 -0.048756,-0.013092 v 9.046e-4 L 1.4537526,2.1364589 C 1.4137506,2.1225129 1.3609666,2.0783699 1.3363755,2.0380419 1.2688415,1.9272908 1.2799025,1.8292186 1.3991275,1.513005 1.4161215,1.467935 1.4283215,1.432378 1.4501415,1.3771184 1.4960865,1.2607622 1.5409174,1.1571008 1.5499124,1.1468786 1.5669004,1.1275729 1.7606702,1.6058404 1.808142,1.7843267 1.843524,1.9173576 1.821214,2.0086271 1.736361,2.0800268 1.66254,2.1421428 1.647574,2.1879234 1.700696,2.1879234 c 0.051518,0 0.1745931,-0.15565 0.1905121,-0.2406231 0.00966,-0.05158 -0.00563,-0.1410058 -0.04695,-0.2717731 C 1.7878852,1.4971367 1.5872226,0.99503163 1.5625526,0.97036168 c -4.188e-4,-4.188e-4 -7.778e-4,-9.217e-4 -0.00135,-9.029e-4 z M 1.3991275,1.8461751 c -0.00206,0.0039 -0.00158,0.00858 0,0.013544 z" />
  </g>
</svg>
