<?xml version="1.0" encoding="UTF-8" standalone="no"?>
<svg
   xmlns:dc="http://purl.org/dc/elements/1.1/"
   xmlns:cc="http://creativecommons.org/ns#"
   xmlns:rdf="http://www.w3.org/1999/02/22-rdf-syntax-ns#"
   xmlns:svg="http://www.w3.org/2000/svg"
   xmlns="http://www.w3.org/2000/svg"
   xmlns:sodipodi="http://sodipodi.sourceforge.net/DTD/sodipodi-0.dtd"
   xmlns:inkscape="http://www.inkscape.org/namespaces/inkscape"
   width="72"
   height="72"
   version="1.1"
   id="svg2783"
   sodipodi:docname="icon-m-scene_mode_barcode.svg"
   inkscape:version="0.92.4 (5da689c313, 2019-01-14)">
  <metadata
     id="metadata2789">
    <rdf:RDF>
      <cc:Work
         rdf:about="">
        <dc:format>image/svg+xml</dc:format>
        <dc:type
           rdf:resource="http://purl.org/dc/dcmitype/StillImage" />
        <dc:title></dc:title>
      </cc:Work>
    </rdf:RDF>
  </metadata>
  <defs
     id="defs2787" />
  <sodipodi:namedview
     pagecolor="#ffffff"
     bordercolor="#666666"
     borderopacity="1"
     objecttolerance="10"
     gridtolerance="10"
     guidetolerance="10"
     inkscape:pageopacity="0"
     inkscape:pageshadow="2"
     inkscape:window-width="1876"
     inkscape:window-height="1055"
     id="namedview2785"
     showgrid="false"
     inkscape:pagecheckerboard="true"
     inkscape:zoom="10.429825"
     inkscape:cx="38.676885"
     inkscape:cy="35.653151"
     inkscape:window-x="44"
     inkscape:window-y="0"
     inkscape:window-maximized="1"
     inkscape:current-layer="svg2783" />
  <path
     d="m 56.697425,11.163094 h -41.39485 a 4.1394844,5.2288222 0 0 0 -4.13948,5.228823 v 39.216166 a 4.1394844,5.2288222 0 0 0 4.13948,5.228822 h 41.39485 a 4.1394844,5.2288222 0 0 0 4.13948,-5.228822 V 16.391917 a 4.1394844,5.2288222 0 0 0 -4.13948,-5.228823 z"
     id="path2779"
     inkscape:connector-curvature="0"
     style="opacity:0.5;fill:none;stroke:#ffffff;stroke-width:2.32618928" />
  <path
     d="M 13.935512,56.425086 H 13.362196 V 15.574912 h 1.146634 v 40.850174 z m 1.432262,0 H 15.081115 V 15.574912 h 0.573318 v 40.850174 z m 1.719956,0 H 16.801071 V 15.574912 h 0.573318 v 40.850174 z m 2.865559,0 H 19.66663 V 15.574912 h 0.573318 v 40.850174 z m 2.005578,0 H 20.812233 V 15.574912 h 2.293273 v 40.850174 z m 2.5789,0 H 24.251109 V 15.574912 h 0.573316 v 40.850174 z m 1.71892,0 H 25.97107 V 15.574912 h 0.57228 v 40.850174 z m 1.433297,0 H 27.116668 V 15.574912 h 1.146634 v 40.850174 z m 3.152218,0 H 30.555543 V 15.574912 h 0.573317 v 40.850174 z m 1.718919,0 H 32.274463 V 15.574912 h 0.573322 v 40.850174 z m 3.152217,0 H 34.567736 V 15.574912 h 2.292242 v 40.850174 z m 2.005584,0 H 37.432263 V 15.574912 h 0.573318 v 40.850174 z m 1.146634,0 H 38.578897 V 15.574912 h 0.573323 v 40.850174 z m 2.005584,0 H 39.725537 V 15.574912 h 2.292236 v 40.850174 z m 2.579931,0 H 43.16337 V 15.574912 h 0.573322 v 40.850174 z m 1.717888,0 H 44.883343 V 15.574912 h 0.573323 v 40.850174 z m 2.007647,0 H 46.602257 V 15.574912 h 1.146634 v 40.850174 z m 3.151185,0 H 50.041132 V 15.574912 h 0.573318 v 40.850174 z m 1.433299,0 H 51.187766 V 15.574912 h 1.145603 v 40.850174 z m 3.15118,0 H 54.053326 V 15.574912 h 1.718919 v 40.850174 z m 1.719956,0 H 56.345567 V 15.574912 h 0.573318 v 40.850174 z m 1.432261,0 H 57.49117 V 15.574912 h 1.146634 v 40.850174 z"
     id="path2781"
     inkscape:connector-curvature="0"
     style="fill:#ffffff;stroke-width:1.16309464" />
</svg>
