<svg xmlns="http://www.w3.org/2000/svg" xmlns:xlink="http://www.w3.org/1999/xlink" width="64" height="64"><defs><linearGradient xlink:href="#a" id="b" x1="29.875" y1="19.364" x2="42.515" y2="60.111" gradientUnits="userSpaceOnUse"/><linearGradient id="a"><stop offset="0" stop-color="#fff"/><stop offset="1" stop-color="#fff" stop-opacity="0"/></linearGradient><radialGradient xlink:href="#a" id="c" cx="83.781" cy="74.875" fx="83.781" fy="74.875" r="7.592" gradientUnits="userSpaceOnUse" gradientTransform="matrix(1.68623 0 0 1.68623 -119.507 -99.355)"/></defs><path d="M47.795 28.338c-1.25 0-2.28.772-3.465 1.441l-12.658 7.155c-2.371 1.34-5.066 1.924-6.996 0l-1.01-1.016c-1.929-1.924-5.409-5.218-8.508-1.5L9 41.807V47c0 1.668 1.332 3 3 3h40c1.668 0 3-1.332 3-3V33.588l-3.74-3.809a4.892 4.892 0 0 0-3.465-1.441z" fill="url(#b)"/><path d="M52 13H12a4 4 0 0 0-4 4v30a4 4 0 0 0 4 4h40a4 4 0 0 0 4-4V17a4 4 0 0 0-4-4z" opacity=".5" fill="none" stroke="#fff" stroke-width="2"/><g color="#fff" fill-rule="evenodd"><path d="M21.768 14.1a12.801 12.801 0 0 0-.461.017c.119.048.536 11.755.652 11.777.116.022 4.814-10.718 4.94-10.714a12.801 12.801 0 0 0-5.131-1.08zm5.13 1.08c.09.09-4.616 10.828-4.521 10.898.095.07 8.955-7.538 9.093-7.502A12.801 12.801 0 0 0 26.9 15.18zm4.572 3.396c.014.142-8.851 7.744-8.797 7.848.055.104 11.386-2.918 11.458-2.816a12.801 12.801 0 0 0-2.66-5.032zm2.661 5.032c-.011.125-11.343 3.14-11.339 3.257.004.118 11.513 2.306 11.543 2.431a12.801 12.801 0 0 0 .234-2.394 12.801 12.801 0 0 0-.438-3.294zm.204 5.688c-.074.105-11.581-2.09-11.629-1.983-.047.108 9.346 7.058 9.337 7.196h.004a12.801 12.801 0 0 0 2.289-5.213zm-2.292 5.213c-.13.05-9.517-6.907-9.607-6.83-.09.077 5.378 10.446 5.296 10.542a12.801 12.801 0 0 0 4.311-3.712zm-4.31 3.712c-.127.013-5.588-10.358-5.702-10.328-.114.03.313 11.737.198 11.794a12.801 12.801 0 0 0 5.503-1.466zm-5.504 1.466c-.12-.048-.536-11.755-.652-11.778-.116-.022-4.814 10.718-4.94 10.714a12.801 12.801 0 0 0 5.13 1.08 12.801 12.801 0 0 0 .462-.016zm-5.592-1.064c-.09-.09 4.616-10.828 4.521-10.898-.094-.07-8.955 7.538-9.093 7.502a12.801 12.801 0 0 0 4.572 3.396zm-4.572-3.396c-.014-.141 8.852-7.744 8.797-7.848-.055-.104-11.386 2.918-11.458 2.816a12.801 12.801 0 0 0 2.661 5.032zm-2.66-5.032c.01-.125 11.343-3.14 11.339-3.257-.005-.118-11.513-2.305-11.544-2.43a12.801 12.801 0 0 0-.234 2.394 12.801 12.801 0 0 0 .438 3.293zM9.2 24.507c.074-.105 11.582 2.09 11.63 1.983.046-.108-9.347-7.057-9.338-7.196h-.003A12.801 12.801 0 0 0 9.2 24.507zm2.292-5.213c.13-.05 9.518 6.907 9.607 6.83.09-.076-5.378-10.446-5.296-10.542a12.801 12.801 0 0 0-4.31 3.712zm4.311-3.712c.126-.013 5.587 10.359 5.701 10.328.114-.03-.313-11.737-.197-11.793a12.801 12.801 0 0 0-5.504 1.465z" style="isolation:auto;mix-blend-mode:normal;solid-color:#fff;solid-opacity:1;marker:none" overflow="visible" opacity=".755" fill="url(#c)"/><circle r="4.229" cy="26.902" cx="21.768" style="isolation:auto;mix-blend-mode:normal;solid-color:#fff;solid-opacity:1;marker:none" overflow="visible" fill="#fff"/></g></svg>