<svg xmlns="http://www.w3.org/2000/svg" xmlns:xlink="http://www.w3.org/1999/xlink" width="64" height="64"><defs><linearGradient id="a"><stop offset="0" stop-color="#fff"/><stop offset="1" stop-color="#fff" stop-opacity="0"/></linearGradient><linearGradient xlink:href="#a" id="b" x1="23.158" y1="19.806" x2="64.347" y2="65.061" gradientUnits="userSpaceOnUse"/></defs><path d="M17.293 39.898c.063-.444-.12-1.134.084-1.435 2.355-.051 4.73.142 7.067-.18.787-.283 3.656-3.09 4.474-2.054.523.375 1.033.767 1.55 1.15-.766 1.085-4.42 3.481-5.631 3.955h-7.544v-1.436z" opacity=".5" fill="#fff"/><path d="M52 13H12a4 4 0 0 0-4 4v30a4 4 0 0 0 4 4h40a4 4 0 0 0 4-4V17a4 4 0 0 0-4-4z" opacity=".5" fill="none" stroke="#fff" stroke-width="2"/><path d="M-34.56 4.857c-3.273 0-5.937-2.63-5.937-5.861 0-3.232 2.664-5.861 5.937-5.861 3.274 0 5.938 2.629 5.938 5.86 0 3.233-2.664 5.862-5.938 5.862zm0-9.722c-2.17 0-3.937 1.732-3.937 3.86 0 2.13 1.766 3.862 3.937 3.862s3.938-1.732 3.938-3.861c0-2.13-1.767-3.861-3.938-3.861zM-43.418 25.984c-3.91-.582-6.642-2.811-6.642-5.42V11.38c0-2.812 3.027-5.1 6.748-5.1h17.504c3.721 0 6.748 2.289 6.748 5.1v9.185c0 2.637-2.68 4.814-6.67 5.418l-.299-1.977c2.88-.437 4.97-1.884 4.97-3.441V11.38c0-1.68-2.176-3.1-4.749-3.1h-17.504c-2.574 0-4.748 1.42-4.748 3.1v9.185c0 1.543 2.122 3.02 4.937 3.44z" fill="#fff"/><path d="M-42.564 43.36c-.163 0-.326-.012-.488-.038l-2.207-.352a2.746 2.746 0 0 1-1.913-1.245 2.743 2.743 0 0 1-.26-2.266l4.452-14.187c.288-.916.47-1.528.526-1.736-.035-.441-.035-1.047-.035-1.872V9.28c0-1.654 1.346-3 3-3h9.857c1.654 0 3 1.346 3 3v12.382c0 .854 0 1.483-.05 1.938.058.227.23.82.496 1.67l4.452 14.188a2.745 2.745 0 0 1-.262 2.268 2.734 2.734 0 0 1-1.91 1.243l-2.209.353a3.04 3.04 0 0 1-.485.038c-1.433 0-2.779-.976-3.2-2.32l-4.76-15.17-.022-.07-.022.07-4.76 15.17c-.424 1.344-1.768 2.32-3.2 2.32zm2.09-19.987c.093.295-.049.749-.598 2.498l-4.452 14.188c-.07.226-.052.443.053.614.105.17.292.284.527.322l2.207.352c.623.094 1.284-.337 1.462-.904l4.761-15.171c.82-2.608 1.57-2.608 1.931-2.608s1.11 0 1.93 2.608l4.762 15.169c.161.516.73.919 1.292.919.058 0 .114-.004.171-.013l2.208-.353c.233-.037.42-.151.525-.321a.74.74 0 0 0 .054-.616l-4.452-14.186c-.539-1.718-.684-2.181-.564-2.516.013-.272.026-.867.026-1.692V9.28c0-.551-.448-1-1-1h-9.857c-.55 0-1 .449-1 1v12.382c0 .833.007 1.425.014 1.71z" opacity=".6" fill="#fff"/><path d="M30.942 48.334c.904-2.702 1.56-5.288 2.215-8.066-.34-1.418-1.625-1.925-2.627-2.934-1.215-.883-2.712-1.941-2.602-3.636.435-1.954 1.77-3.56 2.644-5.333.533-.817 1.51-1.603.039-1.696-1.01.448-4.295 2.85-6.51 3.767-.25-.462-2.036-2.766-.594-3.532 2.182-1.157 3.682-2.302 6.298-3.527 2.332.378 4.604 1.3 6.542 2.636 1.235.85 1.514 1.974.09 4.37-.5.842-1.175 2.124-1.737 3.036l-.945 1.675c1.23 1.35 1.846 2.01 2.742 3.621.835 2.295-.56 4.525-1.301 6.637l-1.17 2.96c-1.027.013-2.061.11-3.084.022z" fill="url(#b)"/><path d="M36.312 24.106c-2.284-.83-2.525-4.4-.371-5.528 1.746-1.132 4.351-.05 4.688 2.033.568 2.361-2.113 4.568-4.317 3.495z" fill="#fff"/><path d="M37.612 27.686c1.534 1.118 2.434 1.586 4.089 2.522.643.203 3.38.312 3.87.87.343.389.288.996.432 1.494-1.02.32-4.533.072-5.54-.217-1.112-.854-3.444-1.861-3.335-2.56.132-.85.344-.974.484-2.109z" opacity=".5" fill="#fff"/></svg>